G04 start of page 14 for group -4078 idx -4078 *
G04 Title: DAISI, bottomsilk *
G04 Creator: pcb 20140316 *
G04 CreationDate: Wed 18 Apr 2018 03:14:34 AM GMT UTC *
G04 For: afonsop *
G04 Format: Gerber/RS-274X *
G04 PCB-Dimensions (mil): 6540.00 4540.00 *
G04 PCB-Coordinate-Origin: lower left *
%MOIN*%
%FSLAX25Y25*%
%LNBOTTOMSILK*%
%ADD184C,0.0061*%
%ADD183C,0.0050*%
%ADD182C,0.0100*%
G54D182*X0Y454000D02*Y260D01*
X653543D01*
Y454000D01*
X0D01*
G54D183*X535902Y372354D02*Y366354D01*
X538902D01*
Y372354D02*Y366354D01*
X535902Y372354D02*X538902D01*
G54D184*X562402Y407543D02*Y394157D01*
X587205Y407543D02*Y394157D01*
X562402Y407543D02*X587205D01*
X562402Y394157D02*X587205D01*
X640610Y436067D02*Y366067D01*
X595610Y436067D02*Y366067D01*
X640610D01*
X595610Y436067D02*X640610D01*
X616142D02*G75*G03X620079Y436067I1969J0D01*G01*
X605709Y358331D02*Y344945D01*
X630512Y358331D02*Y344945D01*
X605709Y358331D02*X630512D01*
X605709Y344945D02*X630512D01*
G54D183*X525075Y372354D02*Y366354D01*
X528075D01*
Y372354D02*Y366354D01*
X525075Y372354D02*X528075D01*
G54D184*X544291Y435496D02*Y386087D01*
X493701Y435496D02*Y386087D01*
X544291D01*
X493701Y435496D02*X544291D01*
G54D183*X433539Y372354D02*Y366354D01*
X436539D01*
Y372354D02*Y366354D01*
X433539Y372354D02*X436539D01*
X501453D02*Y366354D01*
X504453D01*
Y372354D02*Y366354D01*
X501453Y372354D02*X504453D01*
X478815D02*Y366354D01*
X481815D01*
Y372354D02*Y366354D01*
X478815Y372354D02*X481815D01*
X466020D02*Y366354D01*
X469020D01*
Y372354D02*Y366354D01*
X466020Y372354D02*X469020D01*
G54D184*X475394Y435496D02*Y386087D01*
X424803Y435496D02*Y386087D01*
X475394D01*
X424803Y435496D02*X475394D01*
G54D183*X196803Y425972D02*X202803D01*
X196803D02*Y422972D01*
X202803D01*
Y425972D02*Y422972D01*
X196803Y416130D02*X202803D01*
X196803D02*Y413130D01*
X202803D01*
Y416130D02*Y413130D01*
X196803Y406287D02*X202803D01*
X196803D02*Y403287D01*
X202803D01*
Y406287D02*Y403287D01*
X196803Y396445D02*X202803D01*
X196803D02*Y393445D01*
X202803D01*
Y396445D02*Y393445D01*
G54D184*X235039Y414039D02*X261024D01*
X235039Y444748D02*X261024D01*
X235039D02*Y414039D01*
X261024Y444748D02*Y414039D01*
Y429394D02*G75*G03X261024Y429394I0J0D01*G01*
X605709Y82740D02*Y69354D01*
X630512Y82740D02*Y69354D01*
X605709Y82740D02*X630512D01*
X605709Y69354D02*X630512D01*
X640610Y160476D02*Y90476D01*
X595610Y160476D02*Y90476D01*
X640610D01*
X595610Y160476D02*X640610D01*
X616142D02*G75*G03X620079Y160476I1969J0D01*G01*
X562402Y131953D02*Y118567D01*
X587205Y131953D02*Y118567D01*
X562402Y131953D02*X587205D01*
X562402Y118567D02*X587205D01*
X185370Y432346D02*Y381165D01*
X143370Y432346D02*Y381165D01*
X185370D01*
X143370Y432346D02*X185370D01*
X162402D02*G75*G03X166339Y432346I1969J0D01*G01*
X57933Y436067D02*Y366067D01*
X12933Y436067D02*Y366067D01*
X57933D01*
X12933Y436067D02*X57933D01*
X33465D02*G75*G03X37402Y436067I1969J0D01*G01*
X23031Y358331D02*Y344945D01*
X47835Y358331D02*Y344945D01*
X23031Y358331D02*X47835D01*
X23031Y344945D02*X47835D01*
X91142Y407543D02*Y394157D01*
X66339Y407543D02*Y394157D01*
X91142D01*
X66339Y407543D02*X91142D01*
X57933Y188035D02*Y118035D01*
X12933Y188035D02*Y118035D01*
X57933D01*
X12933Y188035D02*X57933D01*
X33465D02*G75*G03X37402Y188035I1969J0D01*G01*
X67587Y159051D02*Y145665D01*
X92390Y159051D02*Y145665D01*
X67587Y159051D02*X92390D01*
X67587Y145665D02*X92390D01*
X22311Y107870D02*Y94484D01*
X47114Y107870D02*Y94484D01*
X22311Y107870D02*X47114D01*
X22311Y94484D02*X47114D01*
G54D183*X577740Y412193D02*X579740D01*
X577740D02*X577240Y411693D01*
Y410693D02*Y411693D01*
X577740Y410193D02*X577240Y410693D01*
X577740Y410193D02*X579240D01*
Y408193D02*Y412193D01*
X578440Y410193D02*X577240Y408193D01*
X575540D02*X573540Y412193D01*
X576040D01*
X570840D02*X570340Y411693D01*
X570840Y412193D02*X571840D01*
X572340Y411693D02*X571840Y412193D01*
X572340Y408693D02*Y411693D01*
Y408693D02*X571840Y408193D01*
X570840Y410393D02*X570340Y409893D01*
X570840Y410393D02*X572340D01*
X570840Y408193D02*X571840D01*
X570840D02*X570340Y408693D01*
Y409893D01*
X539740Y375579D02*X540920D01*
X539740D02*X539445Y375284D01*
Y374694D02*Y375284D01*
X539740Y374399D02*X539445Y374694D01*
X539740Y374399D02*X540625D01*
Y373219D02*Y375579D01*
X540153Y374399D02*X539445Y373219D01*
X538737Y375107D02*X538265Y375579D01*
Y373219D02*Y375579D01*
X537852Y373219D02*X538737D01*
X537144Y375107D02*X536672Y375579D01*
Y373219D02*Y375579D01*
X536259Y373219D02*X537144D01*
X535551Y375284D02*X535256Y375579D01*
X534666D02*X535256D01*
X534666D02*X534371Y375284D01*
X534666Y373219D02*X534371Y373514D01*
X534666Y373219D02*X535256D01*
X535551Y373514D02*X535256Y373219D01*
X534666Y374517D02*X535256D01*
X534371Y374812D02*Y375284D01*
Y373514D02*Y374222D01*
X534666Y374517D01*
X534371Y374812D02*X534666Y374517D01*
X529120Y375445D02*X530300D01*
X529120D02*X528825Y375150D01*
Y374560D02*Y375150D01*
X529120Y374265D02*X528825Y374560D01*
X529120Y374265D02*X530005D01*
Y373085D02*Y375445D01*
X529533Y374265D02*X528825Y373085D01*
X528117Y374973D02*X527645Y375445D01*
Y373085D02*Y375445D01*
X527232Y373085D02*X528117D01*
X526524Y374973D02*X526052Y375445D01*
Y373085D02*Y375445D01*
X525639Y373085D02*X526524D01*
X524931Y375150D02*X524636Y375445D01*
X523751D02*X524636D01*
X523751D02*X523456Y375150D01*
Y374560D02*Y375150D01*
X524931Y373085D02*X523456Y374560D01*
Y373085D02*X524931D01*
X436859Y375445D02*X438039D01*
X436859D02*X436564Y375150D01*
Y374560D02*Y375150D01*
X436859Y374265D02*X436564Y374560D01*
X436859Y374265D02*X437744D01*
Y373085D02*Y375445D01*
X437272Y374265D02*X436564Y373085D01*
X435856Y374973D02*X435384Y375445D01*
Y373085D02*Y375445D01*
X434971Y373085D02*X435856D01*
X434263Y374973D02*X433791Y375445D01*
Y373085D02*Y375445D01*
X433378Y373085D02*X434263D01*
X432375D02*X431195Y375445D01*
X432670D01*
X621047Y343295D02*X623047D01*
X621047D02*X620547Y342795D01*
Y341795D02*Y342795D01*
X621047Y341295D02*X620547Y341795D01*
X621047Y341295D02*X622547D01*
Y339295D02*Y343295D01*
X621747Y341295D02*X620547Y339295D01*
X618847D02*X616847Y343295D01*
X619347D01*
X615647Y339795D02*X615147Y339295D01*
X615647Y339795D02*Y340595D01*
X614947Y341295D01*
X614347D02*X614947D01*
X614347D02*X613647Y340595D01*
Y339795D02*Y340595D01*
X614147Y339295D02*X613647Y339795D01*
X614147Y339295D02*X615147D01*
X615647Y341995D02*X614947Y341295D01*
X615647Y341995D02*Y342795D01*
X615147Y343295D01*
X614147D02*X615147D01*
X614147D02*X613647Y342795D01*
Y341995D02*Y342795D01*
X614347Y341295D02*X613647Y341995D01*
X648732Y389193D02*Y392193D01*
X648232Y392693D01*
X647232D02*X648232D01*
X647232D02*X646732Y392193D01*
Y389693D02*Y392193D01*
X647732Y388693D02*X646732Y389693D01*
X647732Y388693D02*X648232D01*
X648732Y389193D02*X648232Y388693D01*
X647732Y390193D02*X646732Y388693D01*
X645532Y392193D02*X645032Y392693D01*
X643532D02*X645032D01*
X643532D02*X643032Y392193D01*
Y391193D02*Y392193D01*
X645532Y388693D02*X643032Y391193D01*
Y388693D02*X645532D01*
X485236Y409146D02*Y412646D01*
Y409146D02*X484736Y408646D01*
X483736D02*X484736D01*
X483736D02*X483236Y409146D01*
Y412646D01*
X482036Y411846D02*X481236Y412646D01*
Y408646D02*Y412646D01*
X480536Y408646D02*X482036D01*
X478836D02*X477336Y410646D01*
Y412146D01*
X477836Y412646D02*X477336Y412146D01*
X477836Y412646D02*X478836D01*
X479336Y412146D02*X478836Y412646D01*
X479336Y411146D02*Y412146D01*
Y411146D02*X478836Y410646D01*
X477336D02*X478836D01*
X555118Y409146D02*Y412646D01*
Y409146D02*X554618Y408646D01*
X553618D02*X554618D01*
X553618D02*X553118Y409146D01*
Y412646D01*
X551918Y411846D02*X551118Y412646D01*
Y408646D02*Y412646D01*
X550418Y408646D02*X551918D01*
X548718D02*X546718Y412646D01*
X549218D01*
X504773Y375445D02*X505953D01*
X504773D02*X504478Y375150D01*
Y374560D02*Y375150D01*
X504773Y374265D02*X504478Y374560D01*
X504773Y374265D02*X505658D01*
Y373085D02*Y375445D01*
X505186Y374265D02*X504478Y373085D01*
X503770Y374973D02*X503298Y375445D01*
Y373085D02*Y375445D01*
X502885Y373085D02*X503770D01*
X502177Y374973D02*X501705Y375445D01*
Y373085D02*Y375445D01*
X501292Y373085D02*X502177D01*
X500584Y374973D02*X500112Y375445D01*
Y373085D02*Y375445D01*
X499699Y373085D02*X500584D01*
X482135Y375579D02*X483315D01*
X482135D02*X481840Y375284D01*
Y374694D02*Y375284D01*
X482135Y374399D02*X481840Y374694D01*
X482135Y374399D02*X483020D01*
Y373219D02*Y375579D01*
X482548Y374399D02*X481840Y373219D01*
X481132Y375107D02*X480660Y375579D01*
Y373219D02*Y375579D01*
X480247Y373219D02*X481132D01*
X479539Y375107D02*X479067Y375579D01*
Y373219D02*Y375579D01*
X478654Y373219D02*X479539D01*
X477651D02*X476766Y374399D01*
Y375284D01*
X477061Y375579D02*X476766Y375284D01*
X477061Y375579D02*X477651D01*
X477946Y375284D02*X477651Y375579D01*
X477946Y374694D02*Y375284D01*
Y374694D02*X477651Y374399D01*
X476766D02*X477651D01*
X469340Y375579D02*X470520D01*
X469340D02*X469045Y375284D01*
Y374694D02*Y375284D01*
X469340Y374399D02*X469045Y374694D01*
X469340Y374399D02*X470225D01*
Y373219D02*Y375579D01*
X469753Y374399D02*X469045Y373219D01*
X468337Y375107D02*X467865Y375579D01*
Y373219D02*Y375579D01*
X467452Y373219D02*X468337D01*
X466744Y375107D02*X466272Y375579D01*
Y373219D02*Y375579D01*
X465859Y373219D02*X466744D01*
X465151Y373514D02*X464856Y373219D01*
X465151Y373514D02*Y373986D01*
X464738Y374399D01*
X464384D02*X464738D01*
X464384D02*X463971Y373986D01*
Y373514D02*Y373986D01*
X464266Y373219D02*X463971Y373514D01*
X464266Y373219D02*X464856D01*
X465151Y374812D02*X464738Y374399D01*
X465151Y374812D02*Y375284D01*
X464856Y375579D01*
X464266D02*X464856D01*
X464266D02*X463971Y375284D01*
Y374812D02*Y375284D01*
X464384Y374399D02*X463971Y374812D01*
X201935Y426932D02*X202832D01*
X203315Y427415D02*X202832Y426932D01*
X203315Y427415D02*Y429209D01*
X202832Y429692D01*
X201935D02*X202832D01*
X201107Y429140D02*X200555Y429692D01*
Y426932D02*Y429692D01*
X200072Y426932D02*X201107D01*
X199244Y427277D02*X198899Y426932D01*
X199244Y427277D02*Y429347D01*
X198899Y429692D01*
X198209D02*X198899D01*
X198209D02*X197864Y429347D01*
Y427277D02*Y429347D01*
X198209Y426932D02*X197864Y427277D01*
X198209Y426932D02*X198899D01*
X199244Y427622D02*X197864Y429002D01*
X195656Y429692D02*X197036D01*
Y428312D02*Y429692D01*
Y428312D02*X196691Y428657D01*
X196001D02*X196691D01*
X196001D02*X195656Y428312D01*
Y427277D02*Y428312D01*
X196001Y426932D02*X195656Y427277D01*
X196001Y426932D02*X196691D01*
X197036Y427277D02*X196691Y426932D01*
X201351Y417168D02*X202248D01*
X202731Y417651D02*X202248Y417168D01*
X202731Y417651D02*Y419445D01*
X202248Y419928D01*
X201351D02*X202248D01*
X200523Y419376D02*X199971Y419928D01*
Y417168D02*Y419928D01*
X199488Y417168D02*X200523D01*
X198660Y417513D02*X198315Y417168D01*
X198660Y417513D02*Y419583D01*
X198315Y419928D01*
X197625D02*X198315D01*
X197625D02*X197280Y419583D01*
Y417513D02*Y419583D01*
X197625Y417168D02*X197280Y417513D01*
X197625Y417168D02*X198315D01*
X198660Y417858D02*X197280Y419238D01*
X195417Y419928D02*X195072Y419583D01*
X195417Y419928D02*X196107D01*
X196452Y419583D02*X196107Y419928D01*
X196452Y417513D02*Y419583D01*
Y417513D02*X196107Y417168D01*
X195417Y418686D02*X195072Y418341D01*
X195417Y418686D02*X196452D01*
X195417Y417168D02*X196107D01*
X195417D02*X195072Y417513D01*
Y418341D01*
X201705Y407207D02*X202602D01*
X203085Y407690D02*X202602Y407207D01*
X203085Y407690D02*Y409484D01*
X202602Y409967D01*
X201705D02*X202602D01*
X200877Y409415D02*X200325Y409967D01*
Y407207D02*Y409967D01*
X199842Y407207D02*X200877D01*
X199014Y407552D02*X198669Y407207D01*
X199014Y407552D02*Y409622D01*
X198669Y409967D01*
X197979D02*X198669D01*
X197979D02*X197634Y409622D01*
Y407552D02*Y409622D01*
X197979Y407207D02*X197634Y407552D01*
X197979Y407207D02*X198669D01*
X199014Y407897D02*X197634Y409277D01*
X196461Y407207D02*X195081Y409967D01*
X196806D01*
X202014Y397522D02*X202911D01*
X203394Y398005D02*X202911Y397522D01*
X203394Y398005D02*Y399799D01*
X202911Y400282D01*
X202014D02*X202911D01*
X201186Y399730D02*X200634Y400282D01*
Y397522D02*Y400282D01*
X200151Y397522D02*X201186D01*
X199323Y397867D02*X198978Y397522D01*
X199323Y397867D02*Y399937D01*
X198978Y400282D01*
X198288D02*X198978D01*
X198288D02*X197943Y399937D01*
Y397867D02*Y399937D01*
X198288Y397522D02*X197943Y397867D01*
X198288Y397522D02*X198978D01*
X199323Y398212D02*X197943Y399592D01*
X197115Y397867D02*X196770Y397522D01*
X197115Y397867D02*Y398419D01*
X196632Y398902D01*
X196218D02*X196632D01*
X196218D02*X195735Y398419D01*
Y397867D02*Y398419D01*
X196080Y397522D02*X195735Y397867D01*
X196080Y397522D02*X196770D01*
X197115Y399385D02*X196632Y398902D01*
X197115Y399385D02*Y399937D01*
X196770Y400282D01*
X196080D02*X196770D01*
X196080D02*X195735Y399937D01*
Y399385D02*Y399937D01*
X196218Y398902D02*X195735Y399385D01*
X168189Y434736D02*Y438236D01*
Y434736D02*X167689Y434236D01*
X166689D02*X167689D01*
X166689D02*X166189Y434736D01*
Y438236D01*
X164989Y437436D02*X164189Y438236D01*
Y434236D02*Y438236D01*
X163489Y434236D02*X164989D01*
X160789Y438236D02*X160289Y437736D01*
X160789Y438236D02*X161789D01*
X162289Y437736D02*X161789Y438236D01*
X162289Y434736D02*Y437736D01*
Y434736D02*X161789Y434236D01*
X160789Y436436D02*X160289Y435936D01*
X160789Y436436D02*X162289D01*
X160789Y434236D02*X161789D01*
X160789D02*X160289Y434736D01*
Y435936D01*
X83646Y412193D02*X85646D01*
X83646D02*X83146Y411693D01*
Y410693D02*Y411693D01*
X83646Y410193D02*X83146Y410693D01*
X83646Y410193D02*X85146D01*
Y408193D02*Y412193D01*
X84346Y410193D02*X83146Y408193D01*
X81446D02*X79446Y412193D01*
X81946D01*
X77746Y408193D02*X76246Y410193D01*
Y411693D01*
X76746Y412193D02*X76246Y411693D01*
X76746Y412193D02*X77746D01*
X78246Y411693D02*X77746Y412193D01*
X78246Y410693D02*Y411693D01*
Y410693D02*X77746Y410193D01*
X76246D02*X77746D01*
X8504Y401567D02*Y404567D01*
X8004Y405067D01*
X7004D02*X8004D01*
X7004D02*X6504Y404567D01*
Y402067D02*Y404567D01*
X7504Y401067D02*X6504Y402067D01*
X7504Y401067D02*X8004D01*
X8504Y401567D02*X8004Y401067D01*
X7504Y402567D02*X6504Y401067D01*
X5304Y404567D02*X4804Y405067D01*
X3804D02*X4804D01*
X3804D02*X3304Y404567D01*
X3804Y401067D02*X3304Y401567D01*
X3804Y401067D02*X4804D01*
X5304Y401567D02*X4804Y401067D01*
X3804Y403267D02*X4804D01*
X3304Y403767D02*Y404567D01*
Y401567D02*Y402767D01*
X3804Y403267D01*
X3304Y403767D02*X3804Y403267D01*
X38370Y343295D02*X40370D01*
X38370D02*X37870Y342795D01*
Y341795D02*Y342795D01*
X38370Y341295D02*X37870Y341795D01*
X38370Y341295D02*X39870D01*
Y339295D02*Y343295D01*
X39070Y341295D02*X37870Y339295D01*
X36670Y339795D02*X36170Y339295D01*
X36670Y339795D02*Y340595D01*
X35970Y341295D01*
X35370D02*X35970D01*
X35370D02*X34670Y340595D01*
Y339795D02*Y340595D01*
X35170Y339295D02*X34670Y339795D01*
X35170Y339295D02*X36170D01*
X36670Y341995D02*X35970Y341295D01*
X36670Y341995D02*Y342795D01*
X36170Y343295D01*
X35170D02*X36170D01*
X35170D02*X34670Y342795D01*
Y341995D02*Y342795D01*
X35370Y341295D02*X34670Y341995D01*
X33470Y342495D02*X32670Y343295D01*
Y339295D02*Y343295D01*
X31970Y339295D02*X33470D01*
X272764Y433055D02*X274064D01*
X274764Y433755D02*X274064Y433055D01*
X274764Y433755D02*Y436355D01*
X274064Y437055D01*
X272764D02*X274064D01*
X271564Y436255D02*X270764Y437055D01*
Y433055D02*Y437055D01*
X270064Y433055D02*X271564D01*
X268864Y433555D02*X268364Y433055D01*
X268864Y433555D02*Y436555D01*
X268364Y437055D01*
X267364D02*X268364D01*
X267364D02*X266864Y436555D01*
Y433555D02*Y436555D01*
X267364Y433055D02*X266864Y433555D01*
X267364Y433055D02*X268364D01*
X268864Y434055D02*X266864Y436055D01*
X265664Y434555D02*X263664Y437055D01*
X263164Y434555D02*X265664D01*
X263664Y433055D02*Y437055D01*
X619984Y67980D02*X621984D01*
X619984D02*X619484Y67480D01*
Y66480D02*Y67480D01*
X619984Y65980D02*X619484Y66480D01*
X619984Y65980D02*X621484D01*
Y63980D02*Y67980D01*
X620684Y65980D02*X619484Y63980D01*
X617784D02*X615784Y67980D01*
X618284D01*
X612584D02*X614584D01*
Y65980D02*Y67980D01*
Y65980D02*X614084Y66480D01*
X613084D02*X614084D01*
X613084D02*X612584Y65980D01*
Y64480D02*Y65980D01*
X613084Y63980D02*X612584Y64480D01*
X613084Y63980D02*X614084D01*
X614584Y64480D02*X614084Y63980D01*
X647732Y127382D02*Y130382D01*
X647232Y130882D01*
X646232D02*X647232D01*
X646232D02*X645732Y130382D01*
Y127882D02*Y130382D01*
X646732Y126882D02*X645732Y127882D01*
X646732Y126882D02*X647232D01*
X647732Y127382D02*X647232Y126882D01*
X646732Y128382D02*X645732Y126882D01*
X644532Y130082D02*X643732Y130882D01*
Y126882D02*Y130882D01*
X643032Y126882D02*X644532D01*
X577740Y138571D02*X579740D01*
X577740D02*X577240Y138071D01*
Y137071D02*Y138071D01*
X577740Y136571D02*X577240Y137071D01*
X577740Y136571D02*X579240D01*
Y134571D02*Y138571D01*
X578440Y136571D02*X577240Y134571D01*
X575540D02*X573540Y138571D01*
X576040D01*
X572340Y138071D02*X571840Y138571D01*
X570840D02*X571840D01*
X570840D02*X570340Y138071D01*
X570840Y134571D02*X570340Y135071D01*
X570840Y134571D02*X571840D01*
X572340Y135071D02*X571840Y134571D01*
X570840Y136771D02*X571840D01*
X570340Y137271D02*Y138071D01*
Y135071D02*Y136271D01*
X570840Y136771D01*
X570340Y137271D02*X570840Y136771D01*
X10039Y152866D02*Y155866D01*
X9539Y156366D01*
X8539D02*X9539D01*
X8539D02*X8039Y155866D01*
Y153366D02*Y155866D01*
X9039Y152366D02*X8039Y153366D01*
X9039Y152366D02*X9539D01*
X10039Y152866D02*X9539Y152366D01*
X9039Y153866D02*X8039Y152366D01*
X6839Y153866D02*X4839Y156366D01*
X4339Y153866D02*X6839D01*
X4839Y152366D02*Y156366D01*
X82925Y163700D02*X84925D01*
X82925D02*X82425Y163200D01*
Y162200D02*Y163200D01*
X82925Y161700D02*X82425Y162200D01*
X82925Y161700D02*X84425D01*
Y159700D02*Y163700D01*
X83625Y161700D02*X82425Y159700D01*
X81225Y160200D02*X80725Y159700D01*
X81225Y160200D02*Y161000D01*
X80525Y161700D01*
X79925D02*X80525D01*
X79925D02*X79225Y161000D01*
Y160200D02*Y161000D01*
X79725Y159700D02*X79225Y160200D01*
X79725Y159700D02*X80725D01*
X81225Y162400D02*X80525Y161700D01*
X81225Y162400D02*Y163200D01*
X80725Y163700D01*
X79725D02*X80725D01*
X79725D02*X79225Y163200D01*
Y162400D02*Y163200D01*
X79925Y161700D02*X79225Y162400D01*
X78025Y163200D02*X77525Y163700D01*
X76025D02*X77525D01*
X76025D02*X75525Y163200D01*
Y162200D02*Y163200D01*
X78025Y159700D02*X75525Y162200D01*
Y159700D02*X78025D01*
X37650Y92834D02*X39650D01*
X37650D02*X37150Y92334D01*
Y91334D02*Y92334D01*
X37650Y90834D02*X37150Y91334D01*
X37650Y90834D02*X39150D01*
Y88834D02*Y92834D01*
X38350Y90834D02*X37150Y88834D01*
X35950Y89334D02*X35450Y88834D01*
X35950Y89334D02*Y90134D01*
X35250Y90834D01*
X34650D02*X35250D01*
X34650D02*X33950Y90134D01*
Y89334D02*Y90134D01*
X34450Y88834D02*X33950Y89334D01*
X34450Y88834D02*X35450D01*
X35950Y91534D02*X35250Y90834D01*
X35950Y91534D02*Y92334D01*
X35450Y92834D01*
X34450D02*X35450D01*
X34450D02*X33950Y92334D01*
Y91534D02*Y92334D01*
X34650Y90834D02*X33950Y91534D01*
X32750Y90334D02*X30750Y92834D01*
X30250Y90334D02*X32750D01*
X30750Y88834D02*Y92834D01*
M02*
