G04 start of page 13 for group -4079 idx -4079 *
G04 Title: DAISI, topsilk *
G04 Creator: pcb 20140316 *
G04 CreationDate: Wed 18 Apr 2018 03:14:34 AM GMT UTC *
G04 For: afonsop *
G04 Format: Gerber/RS-274X *
G04 PCB-Dimensions (mil): 6540.00 4540.00 *
G04 PCB-Coordinate-Origin: lower left *
%MOIN*%
%FSLAX25Y25*%
%LNTOPSILK*%
%ADD181C,0.0060*%
%ADD180C,0.0098*%
%ADD179C,0.0200*%
%ADD178C,0.0118*%
%ADD177C,0.0061*%
%ADD176C,0.0080*%
%ADD175C,0.0050*%
%ADD174C,0.0100*%
G54D174*X0Y454000D02*Y260D01*
X653543D01*
Y454000D01*
X0D01*
G54D175*X290354Y446094D02*Y443094D01*
Y446094D02*X291054Y447094D01*
X292154D01*
X292854Y446094D01*
Y443094D01*
X290354Y445094D02*X292854D01*
X294554Y444594D02*Y443094D01*
Y444594D02*X295054Y445094D01*
X295554D01*
X296054Y444594D01*
Y443094D01*
Y444594D02*X296554Y445094D01*
X297054D01*
X297554Y444594D01*
Y443094D01*
X294054Y445094D02*X294554Y444594D01*
X299254Y443094D02*X300754D01*
X298754Y443594D02*X299254Y443094D01*
X298754Y444594D02*Y443594D01*
Y444594D02*X299254Y445094D01*
X300254D01*
X300754Y444594D01*
X298754Y444094D02*X300754D01*
Y444594D02*Y444094D01*
X302454Y444594D02*Y443094D01*
Y444594D02*X302954Y445094D01*
X303954D01*
X301954D02*X302454Y444594D01*
X305154Y446094D02*Y445994D01*
Y444594D02*Y443094D01*
X306654Y445094D02*X308154D01*
X306154Y444594D02*X306654Y445094D01*
X306154Y444594D02*Y443594D01*
X306654Y443094D01*
X308154D01*
X310854Y445094D02*X311354Y444594D01*
X309854Y445094D02*X310854D01*
X309354Y444594D02*X309854Y445094D01*
X309354Y444594D02*Y443594D01*
X309854Y443094D01*
X311354Y445094D02*Y443594D01*
X311854Y443094D01*
X309854D02*X310854D01*
X311354Y443594D01*
X313554Y444594D02*Y443094D01*
Y444594D02*X314054Y445094D01*
X314554D01*
X315054Y444594D01*
Y443094D01*
X313054Y445094D02*X313554Y444594D01*
X318054Y447094D02*X320054D01*
X320554Y446594D01*
Y445594D01*
X320054Y445094D02*X320554Y445594D01*
X318554Y445094D02*X320054D01*
X318554Y447094D02*Y443094D01*
X319354Y445094D02*X320554Y443094D01*
X321754Y446094D02*Y445994D01*
Y444594D02*Y443094D01*
X322754Y445094D02*X323754Y443094D01*
X324754Y445094D02*X323754Y443094D01*
X326454D02*X327954D01*
X325954Y443594D02*X326454Y443094D01*
X325954Y444594D02*Y443594D01*
Y444594D02*X326454Y445094D01*
X327454D01*
X327954Y444594D01*
X325954Y444094D02*X327954D01*
Y444594D02*Y444094D01*
X329654Y444594D02*Y443094D01*
Y444594D02*X330154Y445094D01*
X331154D01*
X329154D02*X329654Y444594D01*
X334854Y443094D02*X336154D01*
X334154Y443794D02*X334854Y443094D01*
X334154Y446394D02*Y443794D01*
Y446394D02*X334854Y447094D01*
X336154D01*
X337354Y444594D02*Y443594D01*
Y444594D02*X337854Y445094D01*
X338854D01*
X339354Y444594D01*
Y443594D01*
X338854Y443094D02*X339354Y443594D01*
X337854Y443094D02*X338854D01*
X337354Y443594D02*X337854Y443094D01*
X340554Y447094D02*Y443594D01*
X341054Y443094D01*
X342054Y447094D02*Y443594D01*
X342554Y443094D01*
X344054D02*X345554D01*
X343554Y443594D02*X344054Y443094D01*
X343554Y444594D02*Y443594D01*
Y444594D02*X344054Y445094D01*
X345054D01*
X345554Y444594D01*
X343554Y444094D02*X345554D01*
Y444594D02*Y444094D01*
X348254Y445094D02*X348754Y444594D01*
X347254Y445094D02*X348254D01*
X346754Y444594D02*X347254Y445094D01*
X346754Y444594D02*Y443594D01*
X347254Y443094D01*
X348254D01*
X348754Y443594D01*
X346754Y442094D02*X347254Y441594D01*
X348254D01*
X348754Y442094D01*
Y445094D02*Y442094D01*
X350454Y443094D02*X351954D01*
X349954Y443594D02*X350454Y443094D01*
X349954Y444594D02*Y443594D01*
Y444594D02*X350454Y445094D01*
X351454D01*
X351954Y444594D01*
X349954Y444094D02*X351954D01*
Y444594D02*Y444094D01*
X290854Y435283D02*Y431283D01*
X290354Y435283D02*X292354D01*
X292854Y434783D01*
Y433783D01*
X292354Y433283D02*X292854Y433783D01*
X290854Y433283D02*X292354D01*
X294054Y435283D02*Y431283D01*
Y432783D02*X294554Y433283D01*
X295554D01*
X296054Y432783D01*
Y431283D01*
X297254Y433283D02*Y431783D01*
X297754Y431283D01*
X299254Y433283D02*Y430283D01*
X298754Y429783D02*X299254Y430283D01*
X297754Y429783D02*X298754D01*
X297254Y430283D02*X297754Y429783D01*
Y431283D02*X298754D01*
X299254Y431783D01*
X300954Y431283D02*X302454D01*
X302954Y431783D01*
X302454Y432283D02*X302954Y431783D01*
X300954Y432283D02*X302454D01*
X300454Y432783D02*X300954Y432283D01*
X300454Y432783D02*X300954Y433283D01*
X302454D01*
X302954Y432783D01*
X300454Y431783D02*X300954Y431283D01*
X304154Y434283D02*Y434183D01*
Y432783D02*Y431283D01*
X305654Y433283D02*X307154D01*
X305154Y432783D02*X305654Y433283D01*
X305154Y432783D02*Y431783D01*
X305654Y431283D01*
X307154D01*
X308854D02*X310354D01*
X310854Y431783D01*
X310354Y432283D02*X310854Y431783D01*
X308854Y432283D02*X310354D01*
X308354Y432783D02*X308854Y432283D01*
X308354Y432783D02*X308854Y433283D01*
X310354D01*
X310854Y432783D01*
X308354Y431783D02*X308854Y431283D01*
X315354Y433283D02*X315854Y432783D01*
X314354Y433283D02*X315354D01*
X313854Y432783D02*X314354Y433283D01*
X313854Y432783D02*Y431783D01*
X314354Y431283D01*
X315854Y433283D02*Y431783D01*
X316354Y431283D01*
X314354D02*X315354D01*
X315854Y431783D01*
X318054Y432783D02*Y431283D01*
Y432783D02*X318554Y433283D01*
X319054D01*
X319554Y432783D01*
Y431283D01*
X317554Y433283D02*X318054Y432783D01*
X322754Y435283D02*Y431283D01*
X322254D02*X322754Y431783D01*
X321254Y431283D02*X322254D01*
X320754Y431783D02*X321254Y431283D01*
X320754Y432783D02*Y431783D01*
Y432783D02*X321254Y433283D01*
X322254D01*
X322754Y432783D01*
X325754Y434283D02*Y431283D01*
Y434283D02*X326454Y435283D01*
X327554D01*
X328254Y434283D01*
Y431283D01*
X325754Y433283D02*X328254D01*
X329954Y431283D02*X331454D01*
X331954Y431783D01*
X331454Y432283D02*X331954Y431783D01*
X329954Y432283D02*X331454D01*
X329454Y432783D02*X329954Y432283D01*
X329454Y432783D02*X329954Y433283D01*
X331454D01*
X331954Y432783D01*
X329454Y431783D02*X329954Y431283D01*
X333654Y435283D02*Y431783D01*
X334154Y431283D01*
X333154Y433783D02*X334154D01*
X335654Y432783D02*Y431283D01*
Y432783D02*X336154Y433283D01*
X337154D01*
X335154D02*X335654Y432783D01*
X338354D02*Y431783D01*
Y432783D02*X338854Y433283D01*
X339854D01*
X340354Y432783D01*
Y431783D01*
X339854Y431283D02*X340354Y431783D01*
X338854Y431283D02*X339854D01*
X338354Y431783D02*X338854Y431283D01*
X342054Y432783D02*Y431283D01*
Y432783D02*X342554Y433283D01*
X343054D01*
X343554Y432783D01*
Y431283D01*
X341554Y433283D02*X342054Y432783D01*
X344754D02*Y431783D01*
Y432783D02*X345254Y433283D01*
X346254D01*
X346754Y432783D01*
Y431783D01*
X346254Y431283D02*X346754Y431783D01*
X345254Y431283D02*X346254D01*
X344754Y431783D02*X345254Y431283D01*
X348454Y432783D02*Y431283D01*
Y432783D02*X348954Y433283D01*
X349454D01*
X349954Y432783D01*
Y431283D01*
Y432783D02*X350454Y433283D01*
X350954D01*
X351454Y432783D01*
Y431283D01*
X347954Y433283D02*X348454Y432783D01*
X352654Y433283D02*Y431783D01*
X353154Y431283D01*
X354654Y433283D02*Y430283D01*
X354154Y429783D02*X354654Y430283D01*
X353154Y429783D02*X354154D01*
X352654Y430283D02*X353154Y429783D01*
Y431283D02*X354154D01*
X354654Y431783D01*
X358354Y431283D02*X359654D01*
X357654Y431983D02*X358354Y431283D01*
X357654Y434583D02*Y431983D01*
Y434583D02*X358354Y435283D01*
X359654D01*
X360854D02*Y431783D01*
X361354Y431283D01*
X362354Y433283D02*Y431783D01*
X362854Y431283D01*
X363854D01*
X364354Y431783D01*
Y433283D02*Y431783D01*
X365554Y435283D02*Y431283D01*
Y431783D02*X366054Y431283D01*
X367054D01*
X367554Y431783D01*
Y432783D02*Y431783D01*
X367054Y433283D02*X367554Y432783D01*
X366054Y433283D02*X367054D01*
X365554Y432783D02*X366054Y433283D01*
X290354Y424457D02*Y420457D01*
X292854Y424457D02*Y420457D01*
X290354Y422457D02*X292854D01*
X294054Y423457D02*Y420457D01*
Y423457D02*X294754Y424457D01*
X295854D01*
X296554Y423457D01*
Y420457D01*
X294054Y422457D02*X296554D01*
X299754Y424457D02*X300254Y423957D01*
X298254Y424457D02*X299754D01*
X297754Y423957D02*X298254Y424457D01*
X297754Y423957D02*Y422957D01*
X298254Y422457D01*
X299754D01*
X300254Y421957D01*
Y420957D01*
X299754Y420457D02*X300254Y420957D01*
X298254Y420457D02*X299754D01*
X297754Y420957D02*X298254Y420457D01*
X301954Y424457D02*Y420457D01*
X301454Y424457D02*X303454D01*
X303954Y423957D01*
Y422957D01*
X303454Y422457D02*X303954Y422957D01*
X301954Y422457D02*X303454D01*
X306954Y423957D02*X307454Y424457D01*
X308954D01*
X309454Y423957D01*
Y422957D01*
X306954Y420457D02*X309454Y422957D01*
X306954Y420457D02*X309454D01*
X310654Y420957D02*X311154Y420457D01*
X310654Y423957D02*Y420957D01*
Y423957D02*X311154Y424457D01*
X312154D01*
X312654Y423957D01*
Y420957D01*
X312154Y420457D02*X312654Y420957D01*
X311154Y420457D02*X312154D01*
X310654Y421457D02*X312654Y423457D01*
X313854Y423657D02*X314654Y424457D01*
Y420457D01*
X313854D02*X315354D01*
X316554Y420957D02*X317054Y420457D01*
X316554Y421757D02*Y420957D01*
Y421757D02*X317254Y422457D01*
X317854D01*
X318554Y421757D01*
Y420957D01*
X318054Y420457D02*X318554Y420957D01*
X317054Y420457D02*X318054D01*
X316554Y423157D02*X317254Y422457D01*
X316554Y423957D02*Y423157D01*
Y423957D02*X317054Y424457D01*
X318054D01*
X318554Y423957D01*
Y423157D01*
X317854Y422457D02*X318554Y423157D01*
X323554Y424457D02*X324054Y423957D01*
X322054Y424457D02*X323554D01*
X321554Y423957D02*X322054Y424457D01*
X321554Y423957D02*Y422957D01*
X322054Y422457D01*
X323554D01*
X324054Y421957D01*
Y420957D01*
X323554Y420457D02*X324054Y420957D01*
X322054Y420457D02*X323554D01*
X321554Y420957D02*X322054Y420457D01*
X327254Y424457D02*X327754Y423957D01*
X325754Y424457D02*X327254D01*
X325254Y423957D02*X325754Y424457D01*
X325254Y423957D02*Y422957D01*
X325754Y422457D01*
X327254D01*
X327754Y421957D01*
Y420957D01*
X327254Y420457D02*X327754Y420957D01*
X325754Y420457D02*X327254D01*
X325254Y420957D02*X325754Y420457D01*
X330954Y424457D02*X331454Y423957D01*
X329454Y424457D02*X330954D01*
X328954Y423957D02*X329454Y424457D01*
X328954Y423957D02*Y420957D01*
X329454Y420457D01*
X330954D01*
X331454Y420957D01*
Y421957D02*Y420957D01*
X330954Y422457D02*X331454Y421957D01*
X329954Y422457D02*X330954D01*
X332654Y420457D02*X335154Y424457D01*
X332654D02*X335154Y420457D01*
X338154Y422457D02*X340154D01*
X343654Y424457D02*Y420457D01*
X344954Y424457D02*X345654Y423757D01*
Y421157D01*
X344954Y420457D02*X345654Y421157D01*
X343154Y420457D02*X344954D01*
X343154Y424457D02*X344954D01*
X346854Y423457D02*Y420457D01*
Y423457D02*X347554Y424457D01*
X348654D01*
X349354Y423457D01*
Y420457D01*
X346854Y422457D02*X349354D01*
X350554Y424457D02*X351554D01*
X351054D02*Y420457D01*
X350554D02*X351554D01*
X354754Y424457D02*X355254Y423957D01*
X353254Y424457D02*X354754D01*
X352754Y423957D02*X353254Y424457D01*
X352754Y423957D02*Y422957D01*
X353254Y422457D01*
X354754D01*
X355254Y421957D01*
Y420957D01*
X354754Y420457D02*X355254Y420957D01*
X353254Y420457D02*X354754D01*
X352754Y420957D02*X353254Y420457D01*
X356454Y424457D02*X357454D01*
X356954D02*Y420457D01*
X356454D02*X357454D01*
X360454Y424457D02*X362454D01*
X362954Y423957D01*
Y422957D01*
X362454Y422457D02*X362954Y422957D01*
X360954Y422457D02*X362454D01*
X360954Y424457D02*Y420457D01*
X361754Y422457D02*X362954Y420457D01*
X364654D02*X366154D01*
X364154Y420957D02*X364654Y420457D01*
X364154Y421957D02*Y420957D01*
Y421957D02*X364654Y422457D01*
X365654D01*
X366154Y421957D01*
X364154Y421457D02*X366154D01*
Y421957D02*Y421457D01*
X367354Y422457D02*X368354Y420457D01*
X369354Y422457D02*X368354Y420457D01*
X370554D02*X371054D01*
X374054Y423457D02*Y420457D01*
Y423457D02*X374754Y424457D01*
X375854D01*
X376554Y423457D01*
Y420457D01*
X374054Y422457D02*X376554D01*
G54D176*X330786Y309876D02*Y234836D01*
Y309876D02*X408726D01*
Y231936D01*
X333686D02*X408726D01*
X333686D02*X330786Y234836D01*
X333686Y233836D02*G75*G03X333686Y233836I0J1000D01*G01*
G54D175*X432039Y288177D02*X438039D01*
Y285177D01*
X432039D02*X438039D01*
X432039Y288177D02*Y285177D01*
Y280303D02*X438039D01*
Y277303D01*
X432039D02*X438039D01*
X432039Y280303D02*Y277303D01*
Y272429D02*X438039D01*
Y269429D01*
X432039D02*X438039D01*
X432039Y272429D02*Y269429D01*
Y264555D02*X438039D01*
Y261555D01*
X432039D02*X438039D01*
X432039Y264555D02*Y261555D01*
X364642Y338890D02*Y332890D01*
Y338890D02*X367642D01*
Y332890D01*
X364642D02*X367642D01*
X356768Y338890D02*Y332890D01*
Y338890D02*X359768D01*
Y332890D01*
X356768D02*X359768D01*
X396138Y338890D02*Y332890D01*
Y338890D02*X399138D01*
Y332890D01*
X396138D02*X399138D01*
X388264Y338890D02*Y332890D01*
Y338890D02*X391264D01*
Y332890D01*
X388264D02*X391264D01*
X372516Y208969D02*Y202969D01*
Y208969D02*X375516D01*
Y202969D01*
X372516D02*X375516D01*
X380390Y208969D02*Y202969D01*
Y208969D02*X383390D01*
Y202969D01*
X380390D02*X383390D01*
X356252Y138571D02*X362252D01*
Y135571D01*
X356252D02*X362252D01*
X356252Y138571D02*Y135571D01*
X356768Y208969D02*Y202969D01*
Y208969D02*X359768D01*
Y202969D01*
X356768D02*X359768D01*
X356252Y172035D02*X362252D01*
Y169035D01*
X356252D01*
Y172035D01*
X364642Y208969D02*Y202969D01*
Y208969D02*X367642D01*
Y202969D01*
X364642D02*X367642D01*
G54D174*X299488Y164866D02*X379488D01*
X299488D02*Y144866D01*
X379488D01*
Y164866D02*Y144866D01*
X369488Y164866D02*Y154866D01*
X379488D01*
G54D177*X564961Y228854D02*Y227622D01*
X563728D02*X564961D01*
Y263055D02*Y261823D01*
X563728Y263055D02*X564961D01*
X529528Y227622D02*X530760D01*
X529528Y228854D02*Y227622D01*
Y263055D02*X530760D01*
X529528D02*Y261823D01*
X566929Y226638D02*G75*G03X566929Y226638I-984J0D01*G01*
G54D175*X590504Y252744D02*X596504D01*
Y249744D01*
X590504D02*X596504D01*
X590504Y252744D02*Y249744D01*
X588535Y275335D02*X594535D01*
X588535Y278335D02*Y275335D01*
Y278335D02*X594535D01*
Y275335D01*
X590504Y260618D02*X596504D01*
Y257618D01*
X590504D02*X596504D01*
X590504Y260618D02*Y257618D01*
X513311Y273929D02*Y267929D01*
X510311D02*X513311D01*
X510311Y273929D02*Y267929D01*
Y273929D02*X513311D01*
X509795Y301957D02*X515795D01*
Y298957D01*
X509795D01*
Y301957D01*
X521606Y298957D02*X527606D01*
X521606Y301957D02*Y298957D01*
Y301957D02*X527606D01*
Y298957D01*
X546213Y290146D02*X552213D01*
Y287146D01*
X546213D02*X552213D01*
X546213Y290146D02*Y287146D01*
Y298020D02*X552213D01*
Y295020D01*
X546213D02*X552213D01*
X546213Y298020D02*Y295020D01*
X607799Y241449D02*Y235449D01*
X604799D02*X607799D01*
X604799Y241449D02*Y235449D01*
Y241449D02*X607799D01*
X599925D02*Y235449D01*
X596925D02*X599925D01*
X596925Y241449D02*Y235449D01*
Y241449D02*X599925D01*
X551134Y368839D02*X557134D01*
X551134Y371839D02*Y368839D01*
Y371839D02*X557134D01*
Y368839D01*
X551134Y355059D02*X557134D01*
X551134Y358059D02*Y355059D01*
Y358059D02*X557134D01*
Y355059D01*
X551134Y327500D02*X557134D01*
X551134Y330500D02*Y327500D01*
Y330500D02*X557134D01*
Y327500D01*
X551134Y341280D02*X557134D01*
X551134Y344280D02*Y341280D01*
Y344280D02*X557134D01*
Y341280D01*
X616610Y421567D02*Y415567D01*
Y421567D02*X619610D01*
Y415567D01*
X616610D02*X619610D01*
G54D178*X603004Y411378D02*X615307D01*
X621213D02*X633516D01*
Y388543D01*
X603004D01*
Y411378D01*
X615307D02*G75*G03X621213Y411378I2953J0D01*G01*
G54D177*X630512Y358331D02*Y344945D01*
X605709Y358331D02*Y344945D01*
Y358331D02*X630512D01*
X605709Y344945D02*X630512D01*
X491142Y435496D02*Y386087D01*
X541732Y435496D02*Y386087D01*
X491142D02*X541732D01*
X491142Y435496D02*X541732D01*
G54D175*X459598Y252697D02*X465598D01*
X459598Y255697D02*Y252697D01*
Y255697D02*X465598D01*
Y252697D01*
X487720Y231606D02*Y225606D01*
X484720D02*X487720D01*
X484720Y231606D02*Y225606D01*
Y231606D02*X487720D01*
X495594D02*Y225606D01*
X492594D02*X495594D01*
X492594Y231606D02*Y225606D01*
Y231606D02*X495594D01*
X502484Y243417D02*Y237417D01*
X499484D02*X502484D01*
X499484Y243417D02*Y237417D01*
Y243417D02*X502484D01*
X494610D02*Y237417D01*
X491610D02*X494610D01*
X491610Y243417D02*Y237417D01*
Y243417D02*X494610D01*
X463535Y289114D02*X469535D01*
X463535Y292114D02*Y289114D01*
Y292114D02*X469535D01*
Y289114D01*
X466067Y280819D02*Y274819D01*
X463067D02*X466067D01*
X463067Y280819D02*Y274819D01*
Y280819D02*X466067D01*
X470941D02*Y274819D01*
Y280819D02*X473941D01*
Y274819D01*
X470941D02*X473941D01*
X485189Y283256D02*X491189D01*
Y280256D01*
X485189D02*X491189D01*
X485189Y283256D02*Y280256D01*
Y294083D02*X491189D01*
Y291083D01*
X485189D02*X491189D01*
X485189Y294083D02*Y291083D01*
X466488Y263524D02*X472488D01*
X466488Y266524D02*Y263524D01*
Y266524D02*X472488D01*
Y263524D01*
X461146Y372354D02*Y366354D01*
X458146D02*X461146D01*
X458146Y372354D02*Y366354D01*
Y372354D02*X461146D01*
X442445D02*Y366354D01*
X439445D02*X442445D01*
X439445Y372354D02*Y366354D01*
Y372354D02*X442445D01*
X429650D02*Y366354D01*
X426650D02*X429650D01*
X426650Y372354D02*Y366354D01*
Y372354D02*X429650D01*
G54D177*X422244Y435496D02*Y386087D01*
X472835Y435496D02*Y386087D01*
X422244D02*X472835D01*
X422244Y435496D02*X472835D01*
G54D175*X539323Y152350D02*X545323D01*
Y149350D01*
X539323D01*
Y152350D01*
X540870Y196173D02*Y190173D01*
X537870D02*X540870D01*
X537870Y196173D02*Y190173D01*
Y196173D02*X540870D01*
X547197Y192705D02*X553197D01*
Y189705D01*
X547197D02*X553197D01*
X547197Y192705D02*Y189705D01*
X559008D02*X565008D01*
X559008Y192705D02*Y189705D01*
Y192705D02*X565008D01*
Y189705D01*
X517669Y190689D02*X523669D01*
X517669Y193689D02*Y190689D01*
Y193689D02*X523669D01*
Y190689D01*
X505858D02*X511858D01*
X505858Y193689D02*Y190689D01*
Y193689D02*X511858D01*
Y190689D01*
X559008Y198563D02*X565008D01*
X559008Y201563D02*Y198563D01*
Y201563D02*X565008D01*
Y198563D01*
X547197Y201563D02*X553197D01*
Y198563D01*
X547197D02*X553197D01*
X547197Y201563D02*Y198563D01*
X517669Y199547D02*X523669D01*
X517669Y202547D02*Y199547D01*
Y202547D02*X523669D01*
Y199547D01*
X505858D02*X511858D01*
X505858Y202547D02*Y199547D01*
Y202547D02*X511858D01*
Y199547D01*
X564492Y216843D02*Y210843D01*
X561492D02*X564492D01*
X561492Y216843D02*Y210843D01*
Y216843D02*X564492D01*
X530043D02*Y210843D01*
X527043D02*X530043D01*
X527043Y216843D02*Y210843D01*
Y216843D02*X530043D01*
X516685Y212343D02*X522685D01*
X516685Y215343D02*Y212343D01*
Y215343D02*X522685D01*
Y212343D01*
X573350Y216843D02*Y210843D01*
X570350D02*X573350D01*
X570350Y216843D02*Y210843D01*
Y216843D02*X573350D01*
G54D177*X87008Y263744D02*Y207248D01*
X129528Y263744D02*Y207248D01*
X87008D02*X129528D01*
X87008Y263744D02*X129528D01*
X106299D02*G75*G03X110236Y263744I1969J0D01*G01*
G54D175*X164886Y269992D02*Y263992D01*
X161886D02*X164886D01*
X161886Y269992D02*Y263992D01*
Y269992D02*X164886D01*
X142669Y210374D02*X148669D01*
X142669Y213374D02*Y210374D01*
Y213374D02*X148669D01*
Y210374D01*
X158417Y198563D02*X164417D01*
X158417Y201563D02*Y198563D01*
Y201563D02*X164417D01*
Y198563D01*
X273575Y235028D02*X279575D01*
Y232028D01*
X273575D01*
Y235028D01*
G54D176*X161418Y221125D02*X165354D01*
X161418Y210497D02*X165354D01*
G54D175*X201724Y68642D02*X207724D01*
X201724Y71642D02*Y68642D01*
Y71642D02*X207724D01*
Y68642D01*
G54D177*X175394Y90417D02*X275394D01*
X175394Y190417D02*X275394D01*
Y90417D01*
X175394Y190417D02*Y90417D01*
Y138449D02*G75*G03X175394Y142386I0J1969D01*G01*
G54D176*X239594Y80063D02*Y70063D01*
X260594D01*
Y80063D01*
X239594D01*
X240594D02*Y70063D01*
G54D175*X228815Y283772D02*Y277772D01*
Y283772D02*X231815D01*
Y277772D01*
X228815D02*X231815D01*
X228815Y301488D02*Y295488D01*
Y301488D02*X231815D01*
Y295488D01*
X228815D02*X231815D01*
G54D177*X187303Y220339D02*X218209D01*
X187303Y246717D02*X218209D01*
Y220339D01*
X187303Y246717D02*Y220339D01*
X187697Y352228D02*X217815D01*
X187697Y378606D02*X217815D01*
Y352228D01*
X187697Y378606D02*Y352228D01*
Y308921D02*X217815D01*
X187697Y335299D02*X217815D01*
Y308921D01*
X187697Y335299D02*Y308921D01*
Y263646D02*X217815D01*
X187697Y290024D02*X217815D01*
Y263646D01*
X187697Y290024D02*Y263646D01*
G54D175*X228815Y329047D02*Y323047D01*
Y329047D02*X231815D01*
Y323047D01*
X228815D02*X231815D01*
X228815Y346764D02*Y340764D01*
Y346764D02*X231815D01*
Y340764D01*
X228815D02*X231815D01*
X228815Y372354D02*Y366354D01*
Y372354D02*X231815D01*
Y366354D01*
X228815D02*X231815D01*
X227315Y248760D02*X233315D01*
X227315Y251760D02*Y248760D01*
Y251760D02*X233315D01*
Y248760D01*
X240110Y241917D02*X246110D01*
Y238917D01*
X240110D01*
Y241917D01*
Y231091D02*X246110D01*
Y228091D01*
X240110D01*
Y231091D01*
X227315Y241917D02*X233315D01*
Y238917D01*
X227315D02*X233315D01*
X227315Y241917D02*Y238917D01*
Y217264D02*X233315D01*
X227315Y220264D02*Y217264D01*
Y220264D02*X233315D01*
Y217264D01*
X227315Y231091D02*X233315D01*
Y228091D01*
X227315D01*
Y231091D01*
X282433Y280303D02*X288433D01*
Y277303D01*
X282433D02*X288433D01*
X282433Y280303D02*Y277303D01*
Y288177D02*X288433D01*
Y285177D01*
X282433D02*X288433D01*
X282433Y288177D02*Y285177D01*
Y242902D02*X288433D01*
Y239902D01*
X282433D02*X288433D01*
X282433Y242902D02*Y239902D01*
Y250776D02*X288433D01*
Y247776D01*
X282433D02*X288433D01*
X282433Y250776D02*Y247776D01*
G54D174*X267795Y258843D02*Y208843D01*
X257795Y258843D02*X267795D01*
X257795D02*Y208843D01*
X267795D01*
X257795Y218843D02*X267795D01*
X257795D02*Y208843D01*
G54D175*X323772Y188720D02*X329772D01*
X323772Y191720D02*Y188720D01*
Y191720D02*X329772D01*
Y188720D01*
X313461Y191252D02*Y185252D01*
Y191252D02*X316461D01*
Y185252D01*
X313461D02*X316461D01*
X301650Y191252D02*Y185252D01*
Y191252D02*X304650D01*
Y185252D01*
X301650D02*X304650D01*
X288339Y188720D02*X294339D01*
X288339Y191720D02*Y188720D01*
Y191720D02*X294339D01*
Y188720D01*
X296213Y285224D02*X302213D01*
Y282224D01*
X296213D02*X302213D01*
X296213Y285224D02*Y282224D01*
Y276366D02*X302213D01*
Y273366D01*
X296213D02*X302213D01*
X296213Y276366D02*Y273366D01*
Y383602D02*X302213D01*
X296213Y386602D02*Y383602D01*
Y386602D02*X302213D01*
Y383602D01*
X285902Y386134D02*Y380134D01*
Y386134D02*X288902D01*
Y380134D01*
X285902D02*X288902D01*
X274091Y386134D02*Y380134D01*
Y386134D02*X277091D01*
Y380134D01*
X274091D02*X277091D01*
X296213Y397382D02*X302213D01*
X296213Y400382D02*Y397382D01*
Y400382D02*X302213D01*
Y397382D01*
X285902Y399913D02*Y393913D01*
Y399913D02*X288902D01*
Y393913D01*
X285902D02*X288902D01*
X274091Y399913D02*Y393913D01*
Y399913D02*X277091D01*
Y393913D01*
X274091D02*X277091D01*
X260780Y397382D02*X266780D01*
X260780Y400382D02*Y397382D01*
Y400382D02*X266780D01*
Y397382D01*
X260780Y383602D02*X266780D01*
X260780Y386602D02*Y383602D01*
Y386602D02*X266780D01*
Y383602D01*
X296213Y369823D02*X302213D01*
X296213Y372823D02*Y369823D01*
Y372823D02*X302213D01*
Y369823D01*
X285902Y372354D02*Y366354D01*
Y372354D02*X288902D01*
Y366354D01*
X285902D02*X288902D01*
X274091Y372354D02*Y366354D01*
Y372354D02*X277091D01*
Y366354D01*
X274091D02*X277091D01*
X296213Y358012D02*X302213D01*
X296213Y361012D02*Y358012D01*
Y361012D02*X302213D01*
Y358012D01*
X260780Y369823D02*X266780D01*
X260780Y372823D02*Y369823D01*
Y372823D02*X266780D01*
Y369823D01*
X260780Y358012D02*X266780D01*
X260780Y361012D02*Y358012D01*
Y361012D02*X266780D01*
Y358012D01*
X260780Y344232D02*X266780D01*
X260780Y347232D02*Y344232D01*
Y347232D02*X266780D01*
Y344232D01*
X285902Y360543D02*Y354543D01*
Y360543D02*X288902D01*
Y354543D01*
X285902D02*X288902D01*
X296213Y344232D02*X302213D01*
X296213Y347232D02*Y344232D01*
Y347232D02*X302213D01*
Y344232D01*
X285902Y346764D02*Y340764D01*
Y346764D02*X288902D01*
Y340764D01*
X285902D02*X288902D01*
X274091Y360543D02*Y354543D01*
Y360543D02*X277091D01*
Y354543D01*
X274091D02*X277091D01*
X274091Y346764D02*Y340764D01*
Y346764D02*X277091D01*
Y340764D01*
X274091D02*X277091D01*
G54D177*X630512Y82740D02*Y69354D01*
X605709Y82740D02*Y69354D01*
Y82740D02*X630512D01*
X605709Y69354D02*X630512D01*
G54D175*X616610Y147945D02*Y141945D01*
Y147945D02*X619610D01*
Y141945D01*
X616610D02*X619610D01*
G54D178*X602854Y136677D02*X615157D01*
X621063D02*X633366D01*
Y113843D01*
X602854D01*
Y136677D01*
X615157D02*G75*G03X621063Y136677I2953J0D01*G01*
G54D175*X404480Y152350D02*X410480D01*
Y149350D01*
X404480D01*
Y152350D01*
X399559Y166130D02*X405559D01*
Y163130D01*
X399559D01*
Y166130D01*
X397169Y153850D02*Y147850D01*
X394169D02*X397169D01*
X394169Y153850D02*Y147850D01*
Y153850D02*X397169D01*
X399559Y140539D02*X405559D01*
Y137539D01*
X399559D01*
Y140539D01*
X437524Y153850D02*Y147850D01*
X434524D02*X437524D01*
X434524Y153850D02*Y147850D01*
Y153850D02*X437524D01*
Y129244D02*Y123244D01*
X434524D02*X437524D01*
X434524Y129244D02*Y123244D01*
Y129244D02*X437524D01*
X397169D02*Y123244D01*
X394169D02*X397169D01*
X394169Y129244D02*Y123244D01*
Y129244D02*X397169D01*
X408980Y117433D02*Y111433D01*
X405980D02*X408980D01*
X405980Y117433D02*Y111433D01*
Y117433D02*X408980D01*
Y92827D02*Y86827D01*
X405980D02*X408980D01*
X405980Y92827D02*Y86827D01*
Y92827D02*X408980D01*
X416291Y115933D02*X422291D01*
Y112933D01*
X416291D01*
Y115933D01*
X411370Y104122D02*X417370D01*
Y101122D01*
X411370D01*
Y104122D01*
Y128728D02*X417370D01*
Y125728D01*
X411370D02*X417370D01*
X411370Y128728D02*Y125728D01*
X445819Y152350D02*X451819D01*
Y149350D01*
X445819D01*
Y152350D01*
X440898Y166130D02*X446898D01*
Y163130D01*
X440898D01*
Y166130D01*
Y140539D02*X446898D01*
Y137539D01*
X440898D01*
Y140539D01*
X453693Y129713D02*X459693D01*
Y126713D01*
X453693D01*
Y129713D01*
X458614Y115933D02*X464614D01*
Y112933D01*
X458614D01*
Y115933D01*
X453693Y104122D02*X459693D01*
Y101122D01*
X453693D01*
Y104122D01*
X450319Y92827D02*Y86827D01*
X447319D02*X450319D01*
X447319Y92827D02*Y86827D01*
Y92827D02*X450319D01*
Y117433D02*Y111433D01*
X447319D02*X450319D01*
X447319Y117433D02*Y111433D01*
Y117433D02*X450319D01*
X487720Y153850D02*Y147850D01*
X484720D02*X487720D01*
X484720Y153850D02*Y147850D01*
Y153850D02*X487720D01*
Y129244D02*Y123244D01*
X484720D02*X487720D01*
X484720Y129244D02*Y123244D01*
Y129244D02*X487720D01*
X491094Y165146D02*X497094D01*
Y162146D01*
X491094D01*
Y165146D01*
Y140539D02*X497094D01*
Y137539D01*
X491094D01*
Y140539D01*
X496016Y152350D02*X502016D01*
Y149350D01*
X496016D01*
Y152350D01*
X500516Y92827D02*Y86827D01*
X497516D02*X500516D01*
X497516Y92827D02*Y86827D01*
Y92827D02*X500516D01*
Y117433D02*Y111433D01*
X497516D02*X500516D01*
X497516Y117433D02*Y111433D01*
Y117433D02*X500516D01*
X552118Y115933D02*X558118D01*
Y112933D01*
X552118D01*
Y115933D01*
X504874Y129713D02*X510874D01*
Y126713D01*
X504874D01*
Y129713D01*
Y104122D02*X510874D01*
Y101122D01*
X504874D01*
Y104122D01*
X543823Y92827D02*Y86827D01*
X540823D02*X543823D01*
X540823Y92827D02*Y86827D01*
Y92827D02*X543823D01*
X547197Y104122D02*X553197D01*
Y101122D01*
X547197D01*
Y104122D01*
G54D174*X377764Y5146D02*Y2146D01*
Y5146D02*X650164D01*
Y2146D01*
X377764D02*X650164D01*
X383764Y5146D02*Y2146D01*
X395764Y5146D02*Y2146D01*
X644164Y5146D02*Y2146D01*
X632164Y5146D02*Y2146D01*
G54D179*X400764Y15646D02*Y5146D01*
Y15646D02*X627164D01*
Y5146D01*
G54D174*X400764D02*X627164D01*
G54D179*X611164Y40246D02*Y15646D01*
X600364Y40246D02*Y15646D01*
X589564Y40246D02*Y15646D01*
X578764Y40246D02*Y15646D01*
X567964Y40246D02*Y15646D01*
X557164Y40246D02*Y15646D01*
X546364Y40246D02*Y15646D01*
X535564Y40246D02*Y15646D01*
X524764Y40246D02*Y15646D01*
X513964Y40246D02*Y15646D01*
X503164Y40246D02*Y15646D01*
X492364Y40246D02*Y15646D01*
X481564Y40246D02*Y15646D01*
X470764Y40246D02*Y15646D01*
X459964Y40246D02*Y15646D01*
X449164Y40246D02*Y15646D01*
X438364Y40246D02*Y15646D01*
X427564Y40246D02*Y15646D01*
X416764Y40246D02*Y15646D01*
X605764Y29046D02*Y15646D01*
X594964Y29046D02*Y15646D01*
X584164Y29046D02*Y15646D01*
X573364Y29046D02*Y15646D01*
X562564Y29046D02*Y15646D01*
X551764Y29046D02*Y15646D01*
X540964Y29046D02*Y15646D01*
X530164Y29046D02*Y15646D01*
X519364Y29046D02*Y15646D01*
X508564Y29046D02*Y15646D01*
X497764Y29046D02*Y15646D01*
X486964Y29046D02*Y15646D01*
X476164Y29046D02*Y15646D01*
X465364Y29046D02*Y15646D01*
X454564Y29046D02*Y15646D01*
X443764Y29046D02*Y15646D01*
X432964Y29046D02*Y15646D01*
X422164Y29046D02*Y15646D01*
G54D175*X534402Y165146D02*X540402D01*
Y162146D01*
X534402D01*
Y165146D01*
X530043Y129244D02*Y123244D01*
X527043D02*X530043D01*
X527043Y129244D02*Y123244D01*
Y129244D02*X530043D01*
Y153850D02*Y147850D01*
X527043D02*X530043D01*
X527043Y153850D02*Y147850D01*
Y153850D02*X530043D01*
X509795Y115933D02*X515795D01*
Y112933D01*
X509795D01*
Y115933D01*
X534402Y140539D02*X540402D01*
Y137539D01*
X534402D01*
Y140539D01*
X543823Y117433D02*Y111433D01*
X540823D02*X543823D01*
X540823Y117433D02*Y111433D01*
Y117433D02*X543823D01*
X547197Y129713D02*X553197D01*
Y126713D01*
X547197D01*
Y129713D01*
X228815Y392039D02*Y386039D01*
Y392039D02*X231815D01*
Y386039D01*
X228815D02*X231815D01*
G54D176*X160631Y285102D02*Y284316D01*
X166141Y285102D02*Y284316D01*
G54D175*X97394Y329516D02*X103394D01*
Y326516D01*
X97394D02*X103394D01*
X97394Y329516D02*Y326516D01*
X109205Y329516D02*X115205D01*
Y326516D01*
X109205D01*
Y329516D01*
X144169Y319205D02*Y313205D01*
Y319205D02*X147169D01*
Y313205D01*
X144169D02*X147169D01*
G54D180*X118897Y317386D02*X118898D01*
X118897Y308724D02*Y317386D01*
X125197Y308724D02*X118897D01*
X125197Y319748D02*Y308724D01*
X121260Y319748D02*X125197D01*
X118898Y317386D02*X121260Y319748D01*
G54D175*X33933Y421567D02*Y415567D01*
Y421567D02*X36933D01*
Y415567D01*
X33933D02*X36933D01*
G54D178*X20177Y412268D02*X32480D01*
X38386D02*X50689D01*
Y389433D01*
X20177D01*
Y412268D01*
X32480D02*G75*G03X38386Y412268I2953J0D01*G01*
G54D177*X47835Y358331D02*Y344945D01*
X23031Y358331D02*Y344945D01*
Y358331D02*X47835D01*
X23031Y344945D02*X47835D01*
G54D174*X84805Y5824D02*Y2824D01*
Y5824D02*X357205D01*
Y2824D01*
X84805D02*X357205D01*
X90805Y5824D02*Y2824D01*
X102805Y5824D02*Y2824D01*
X351205Y5824D02*Y2824D01*
X339205Y5824D02*Y2824D01*
G54D179*X107805Y16324D02*Y5824D01*
Y16324D02*X334205D01*
Y5824D01*
G54D174*X107805D02*X334205D01*
G54D179*X318205Y40924D02*Y16324D01*
X307405Y40924D02*Y16324D01*
X296605Y40924D02*Y16324D01*
X285805Y40924D02*Y16324D01*
X275005Y40924D02*Y16324D01*
X264205Y40924D02*Y16324D01*
X253405Y40924D02*Y16324D01*
X242605Y40924D02*Y16324D01*
X231805Y40924D02*Y16324D01*
X221005Y40924D02*Y16324D01*
X210205Y40924D02*Y16324D01*
X199405Y40924D02*Y16324D01*
X188605Y40924D02*Y16324D01*
X177805Y40924D02*Y16324D01*
X167005Y40924D02*Y16324D01*
X156205Y40924D02*Y16324D01*
X145405Y40924D02*Y16324D01*
X134605Y40924D02*Y16324D01*
X123805Y40924D02*Y16324D01*
X312805Y29724D02*Y16324D01*
X302005Y29724D02*Y16324D01*
X291205Y29724D02*Y16324D01*
X280405Y29724D02*Y16324D01*
X269605Y29724D02*Y16324D01*
X258805Y29724D02*Y16324D01*
X248005Y29724D02*Y16324D01*
X237205Y29724D02*Y16324D01*
X226405Y29724D02*Y16324D01*
X215605Y29724D02*Y16324D01*
X204805Y29724D02*Y16324D01*
X194005Y29724D02*Y16324D01*
X183205Y29724D02*Y16324D01*
X172405Y29724D02*Y16324D01*
X161605Y29724D02*Y16324D01*
X150805Y29724D02*Y16324D01*
X140005Y29724D02*Y16324D01*
X129205Y29724D02*Y16324D01*
G54D175*X33933Y173535D02*Y167535D01*
Y173535D02*X36933D01*
Y167535D01*
X33933D02*X36933D01*
G54D174*X2453Y318917D02*X5453D01*
Y197717D01*
X2453D01*
Y318917D01*
Y312917D02*X5453D01*
X2453Y300917D02*X5453D01*
X2453Y203717D02*X5453D01*
X2453Y215717D02*X5453D01*
G54D179*Y295917D02*X15953D01*
Y220717D01*
X5453D01*
G54D174*Y295917D01*
G54D179*X40553Y236717D02*X15953D01*
X40553Y247517D02*X15953D01*
X40553Y258317D02*X15953D01*
X40553Y269117D02*X15953D01*
X40553Y279917D02*X15953D01*
X29353Y242117D02*X15953D01*
X29353Y252917D02*X15953D01*
X29353Y263717D02*X15953D01*
X29353Y274517D02*X15953D01*
G54D178*X19457Y161807D02*X31760D01*
X37665D02*X49969D01*
Y138972D01*
X19457D01*
Y161807D01*
X31760D02*G75*G03X37665Y161807I2953J0D01*G01*
G54D177*X47114Y107870D02*Y94484D01*
X22311Y107870D02*Y94484D01*
Y107870D02*X47114D01*
X22311Y94484D02*X47114D01*
G54D175*X88535Y197626D02*X94535D01*
Y194626D01*
X88535D02*X94535D01*
X88535Y197626D02*Y194626D01*
G54D176*X162403Y160495D02*X163189D01*
X162403Y154985D02*X163189D01*
G54D177*X128740Y196323D02*X154724D01*
X128740Y170339D02*X154724D01*
X128740Y196323D02*Y170339D01*
X154724Y196323D02*Y170339D01*
Y195142D02*G75*G03X154724Y171520I0J-11811D01*G01*
X119488Y161677D02*Y149866D01*
X152559Y161677D02*Y149866D01*
X119488D02*X152559D01*
X119488Y161677D02*X152559D01*
X136024D02*G75*G03X136024Y161677I0J0D01*G01*
G54D179*X116188Y183672D02*Y165272D01*
G54D174*Y183672D02*X108988Y186272D01*
X73788D02*X108988D01*
X73788D02*Y162672D01*
X108988D01*
X116188Y165272D01*
G54D177*X75984Y154787D02*X115354D01*
X75984Y115417D02*X115354D01*
X75984Y154787D02*Y115417D01*
X115354Y154787D02*Y115417D01*
Y154787D02*G75*G03X115354Y115417I0J-19685D01*G01*
X135827Y141992D02*X155512D01*
X135827Y55378D02*X155512D01*
X135827Y141992D02*Y55378D01*
X155512Y141992D02*Y55378D01*
X1969Y108528D02*X17717D01*
X1969Y2228D02*X17717D01*
X1969Y108528D02*Y2228D01*
X17717Y108528D02*Y2228D01*
G54D175*X356882Y142527D02*X358262D01*
X358607Y142182D01*
Y141492D01*
X358262Y141147D02*X358607Y141492D01*
X357227Y141147D02*X358262D01*
X357227Y142527D02*Y139767D01*
X357779Y141147D02*X358607Y139767D01*
X360470Y142527D02*X360815Y142182D01*
X359780Y142527D02*X360470D01*
X359435Y142182D02*X359780Y142527D01*
X359435Y142182D02*Y140112D01*
X359780Y139767D01*
X360470Y141285D02*X360815Y140940D01*
X359435Y141285D02*X360470D01*
X359780Y139767D02*X360470D01*
X360815Y140112D01*
Y140940D02*Y140112D01*
X356066Y210751D02*X356963D01*
X355583Y211234D02*X356066Y210751D01*
X355583Y213028D02*Y211234D01*
Y213028D02*X356066Y213511D01*
X356963D01*
X357791Y212959D02*X358343Y213511D01*
Y210751D01*
X357791D02*X358826D01*
X359654Y213511D02*X361034D01*
X359654D02*Y212131D01*
X359999Y212476D01*
X360689D01*
X361034Y212131D01*
Y211096D01*
X360689Y210751D02*X361034Y211096D01*
X359999Y210751D02*X360689D01*
X359654Y211096D02*X359999Y210751D01*
X363579Y210633D02*X364476D01*
X363096Y211116D02*X363579Y210633D01*
X363096Y212910D02*Y211116D01*
Y212910D02*X363579Y213393D01*
X364476D01*
X365304Y212841D02*X365856Y213393D01*
Y210633D01*
X365304D02*X366339D01*
X368202Y213393D02*X368547Y213048D01*
X367512Y213393D02*X368202D01*
X367167Y213048D02*X367512Y213393D01*
X367167Y213048D02*Y210978D01*
X367512Y210633D01*
X368202Y212151D02*X368547Y211806D01*
X367167Y212151D02*X368202D01*
X367512Y210633D02*X368202D01*
X368547Y210978D01*
Y211806D02*Y210978D01*
X371689Y211026D02*X372586D01*
X371206Y211509D02*X371689Y211026D01*
X371206Y213303D02*Y211509D01*
Y213303D02*X371689Y213786D01*
X372586D01*
X373414Y213234D02*X373966Y213786D01*
Y211026D01*
X373414D02*X374449D01*
X375622D02*X377002Y213786D01*
X375277D02*X377002D01*
X379603Y211184D02*X380500D01*
X379120Y211667D02*X379603Y211184D01*
X379120Y213461D02*Y211667D01*
Y213461D02*X379603Y213944D01*
X380500D01*
X381328Y213392D02*X381880Y213944D01*
Y211184D01*
X381328D02*X382363D01*
X383191Y212219D02*X384571Y213944D01*
X383191Y212219D02*X384916D01*
X384571Y213944D02*Y211184D01*
X356189Y175814D02*X357569D01*
X357914Y175469D01*
Y174779D01*
X357569Y174434D02*X357914Y174779D01*
X356534Y174434D02*X357569D01*
X356534Y175814D02*Y173054D01*
X357086Y174434D02*X357914Y173054D01*
X358742Y175262D02*X359294Y175814D01*
Y173054D01*
X358742D02*X359777D01*
X360605Y175469D02*X360950Y175814D01*
X361985D01*
X362330Y175469D01*
Y174779D01*
X360605Y173054D02*X362330Y174779D01*
X360605Y173054D02*X362330D01*
X363158Y173399D02*X363503Y173054D01*
X363158Y175469D02*Y173399D01*
Y175469D02*X363503Y175814D01*
X364193D01*
X364538Y175469D01*
Y173399D01*
X364193Y173054D02*X364538Y173399D01*
X363503Y173054D02*X364193D01*
X363158Y173744D02*X364538Y175124D01*
X387089Y340239D02*X387986D01*
X386606Y340722D02*X387089Y340239D01*
X386606Y342516D02*Y340722D01*
Y342516D02*X387089Y342999D01*
X387986D01*
X388814Y342447D02*X389366Y342999D01*
Y340239D01*
X388814D02*X389849D01*
X390677Y342654D02*X391022Y342999D01*
X392057D01*
X392402Y342654D01*
Y341964D01*
X390677Y340239D02*X392402Y341964D01*
X390677Y340239D02*X392402D01*
X391331Y157960D02*X392711D01*
X393056Y157615D01*
Y156925D01*
X392711Y156580D02*X393056Y156925D01*
X391676Y156580D02*X392711D01*
X391676Y157960D02*Y155200D01*
X392228Y156580D02*X393056Y155200D01*
X393884Y157408D02*X394436Y157960D01*
Y155200D01*
X393884D02*X394919D01*
X395747Y155545D02*X396092Y155200D01*
X395747Y157615D02*Y155545D01*
Y157615D02*X396092Y157960D01*
X396782D01*
X397127Y157615D01*
Y155545D01*
X396782Y155200D02*X397127Y155545D01*
X396092Y155200D02*X396782D01*
X395747Y155890D02*X397127Y157270D01*
X398300Y155200D02*X399680Y157960D01*
X397955D02*X399680D01*
X391961Y133471D02*X393341D01*
X393686Y133126D01*
Y132436D01*
X393341Y132091D02*X393686Y132436D01*
X392306Y132091D02*X393341D01*
X392306Y133471D02*Y130711D01*
X392858Y132091D02*X393686Y130711D01*
X394514Y132919D02*X395066Y133471D01*
Y130711D01*
X394514D02*X395549D01*
X396377Y131056D02*X396722Y130711D01*
X396377Y133126D02*Y131056D01*
Y133126D02*X396722Y133471D01*
X397412D01*
X397757Y133126D01*
Y131056D01*
X397412Y130711D02*X397757Y131056D01*
X396722Y130711D02*X397412D01*
X396377Y131401D02*X397757Y132781D01*
X399620Y133471D02*X399965Y133126D01*
X398930Y133471D02*X399620D01*
X398585Y133126D02*X398930Y133471D01*
X398585Y133126D02*Y131056D01*
X398930Y130711D01*
X399620Y132229D02*X399965Y131884D01*
X398585Y132229D02*X399620D01*
X398930Y130711D02*X399620D01*
X399965Y131056D01*
Y131884D02*Y131056D01*
X432422Y288976D02*X433319D01*
X431939Y289459D02*X432422Y288976D01*
X431939Y291253D02*Y289459D01*
Y291253D02*X432422Y291736D01*
X433319D01*
X434147Y291184D02*X434699Y291736D01*
Y288976D01*
X434147D02*X435182D01*
X436010Y289321D02*X436355Y288976D01*
X436010Y289873D02*Y289321D01*
Y289873D02*X436493Y290356D01*
X436907D01*
X437390Y289873D01*
Y289321D01*
X437045Y288976D02*X437390Y289321D01*
X436355Y288976D02*X437045D01*
X436010Y290839D02*X436493Y290356D01*
X436010Y291391D02*Y290839D01*
Y291391D02*X436355Y291736D01*
X437045D01*
X437390Y291391D01*
Y290839D01*
X436907Y290356D02*X437390Y290839D01*
X432618Y281141D02*X433515D01*
X432135Y281624D02*X432618Y281141D01*
X432135Y283418D02*Y281624D01*
Y283418D02*X432618Y283901D01*
X433515D01*
X434343Y283349D02*X434895Y283901D01*
Y281141D01*
X434343D02*X435378D01*
X436551D02*X437586Y282521D01*
Y283556D02*Y282521D01*
X437241Y283901D02*X437586Y283556D01*
X436551Y283901D02*X437241D01*
X436206Y283556D02*X436551Y283901D01*
X436206Y283556D02*Y282866D01*
X436551Y282521D01*
X437586D01*
X432484Y273307D02*X433381D01*
X432001Y273790D02*X432484Y273307D01*
X432001Y275584D02*Y273790D01*
Y275584D02*X432484Y276067D01*
X433381D01*
X434209Y275722D02*X434554Y276067D01*
X435589D01*
X435934Y275722D01*
Y275032D01*
X434209Y273307D02*X435934Y275032D01*
X434209Y273307D02*X435934D01*
X436762Y273652D02*X437107Y273307D01*
X436762Y275722D02*Y273652D01*
Y275722D02*X437107Y276067D01*
X437797D01*
X438142Y275722D01*
Y273652D01*
X437797Y273307D02*X438142Y273652D01*
X437107Y273307D02*X437797D01*
X436762Y273997D02*X438142Y275377D01*
X464789Y295716D02*Y292956D01*
X466169D01*
X467342D02*X468722Y295716D01*
X466997D02*X468722D01*
X462004Y282247D02*X462901D01*
X461521Y282730D02*X462004Y282247D01*
X461521Y284524D02*Y282730D01*
Y284524D02*X462004Y285007D01*
X462901D01*
X463729Y282592D02*X464074Y282247D01*
X463729Y283144D02*Y282592D01*
Y283144D02*X464212Y283627D01*
X464626D01*
X465109Y283144D01*
Y282592D01*
X464764Y282247D02*X465109Y282592D01*
X464074Y282247D02*X464764D01*
X463729Y284110D02*X464212Y283627D01*
X463729Y284662D02*Y284110D01*
Y284662D02*X464074Y285007D01*
X464764D01*
X465109Y284662D01*
Y284110D01*
X464626Y283627D02*X465109Y284110D01*
X465937Y282592D02*X466282Y282247D01*
X465937Y284662D02*Y282592D01*
Y284662D02*X466282Y285007D01*
X466972D01*
X467317Y284662D01*
Y282592D01*
X466972Y282247D02*X467317Y282592D01*
X466282Y282247D02*X466972D01*
X465937Y282937D02*X467317Y284317D01*
X432540Y265511D02*X433437D01*
X432057Y265994D02*X432540Y265511D01*
X432057Y267788D02*Y265994D01*
Y267788D02*X432540Y268271D01*
X433437D01*
X434265Y267926D02*X434610Y268271D01*
X435645D01*
X435990Y267926D01*
Y267236D01*
X434265Y265511D02*X435990Y267236D01*
X434265Y265511D02*X435990D01*
X436818Y267719D02*X437370Y268271D01*
Y265511D01*
X436818D02*X437853D01*
X459559Y259338D02*X460939D01*
X461284Y258993D01*
Y258303D01*
X460939Y257958D02*X461284Y258303D01*
X459904Y257958D02*X460939D01*
X459904Y259338D02*Y256578D01*
X460456Y257958D02*X461284Y256578D01*
X462112Y259338D02*X463492D01*
X462112D02*Y257958D01*
X462457Y258303D01*
X463147D01*
X463492Y257958D01*
Y256923D01*
X463147Y256578D02*X463492Y256923D01*
X462457Y256578D02*X463147D01*
X462112Y256923D02*X462457Y256578D01*
X464320Y258993D02*X464665Y259338D01*
X465355D01*
X465700Y258993D01*
X465355Y256578D02*X465700Y256923D01*
X464665Y256578D02*X465355D01*
X464320Y256923D02*X464665Y256578D01*
Y258096D02*X465355D01*
X465700Y258993D02*Y258441D01*
Y257751D02*Y256923D01*
Y257751D02*X465355Y258096D01*
X465700Y258441D02*X465355Y258096D01*
X467326Y267404D02*X468223D01*
X466843Y267887D02*X467326Y267404D01*
X466843Y269681D02*Y267887D01*
Y269681D02*X467326Y270164D01*
X468223D01*
X469051Y267749D02*X469396Y267404D01*
X469051Y268301D02*Y267749D01*
Y268301D02*X469534Y268784D01*
X469948D01*
X470431Y268301D01*
Y267749D01*
X470086Y267404D02*X470431Y267749D01*
X469396Y267404D02*X470086D01*
X469051Y269267D02*X469534Y268784D01*
X469051Y269819D02*Y269267D01*
Y269819D02*X469396Y270164D01*
X470086D01*
X470431Y269819D01*
Y269267D01*
X469948Y268784D02*X470431Y269267D01*
X471259Y269612D02*X471811Y270164D01*
Y267404D01*
X471259D02*X472294D01*
X483343Y232995D02*X484240D01*
X482860Y233478D02*X483343Y232995D01*
X482860Y235272D02*Y233478D01*
Y235272D02*X483343Y235755D01*
X484240D01*
X485068Y235410D02*X485413Y235755D01*
X486448D01*
X486793Y235410D01*
Y234720D01*
X485068Y232995D02*X486793Y234720D01*
X485068Y232995D02*X486793D01*
X487621Y234030D02*X489001Y235755D01*
X487621Y234030D02*X489346D01*
X489001Y235755D02*Y232995D01*
X491577Y233034D02*X492474D01*
X491094Y233517D02*X491577Y233034D01*
X491094Y235311D02*Y233517D01*
Y235311D02*X491577Y235794D01*
X492474D01*
X493302Y235449D02*X493647Y235794D01*
X494682D01*
X495027Y235449D01*
Y234759D01*
X493302Y233034D02*X495027Y234759D01*
X493302Y233034D02*X495027D01*
X495855Y235794D02*X497235D01*
X495855D02*Y234414D01*
X496200Y234759D01*
X496890D01*
X497235Y234414D01*
Y233379D01*
X496890Y233034D02*X497235Y233379D01*
X496200Y233034D02*X496890D01*
X495855Y233379D02*X496200Y233034D01*
X498743Y244806D02*X499640D01*
X498260Y245289D02*X498743Y244806D01*
X498260Y247083D02*Y245289D01*
Y247083D02*X498743Y247566D01*
X499640D01*
X501503D02*X501848Y247221D01*
X500813Y247566D02*X501503D01*
X500468Y247221D02*X500813Y247566D01*
X500468Y247221D02*Y245151D01*
X500813Y244806D01*
X501503Y246324D02*X501848Y245979D01*
X500468Y246324D02*X501503D01*
X500813Y244806D02*X501503D01*
X501848Y245151D01*
Y245979D02*Y245151D01*
X503021Y244806D02*X504056Y246186D01*
Y247221D02*Y246186D01*
X503711Y247566D02*X504056Y247221D01*
X503021Y247566D02*X503711D01*
X502676Y247221D02*X503021Y247566D01*
X502676Y247221D02*Y246531D01*
X503021Y246186D01*
X504056D01*
X490587Y244767D02*X491484D01*
X490104Y245250D02*X490587Y244767D01*
X490104Y247044D02*Y245250D01*
Y247044D02*X490587Y247527D01*
X491484D01*
X493347D02*X493692Y247182D01*
X492657Y247527D02*X493347D01*
X492312Y247182D02*X492657Y247527D01*
X492312Y247182D02*Y245112D01*
X492657Y244767D01*
X493347Y246285D02*X493692Y245940D01*
X492312Y246285D02*X493347D01*
X492657Y244767D02*X493347D01*
X493692Y245112D01*
Y245940D02*Y245112D01*
X494520D02*X494865Y244767D01*
X494520Y245664D02*Y245112D01*
Y245664D02*X495003Y246147D01*
X495417D01*
X495900Y245664D01*
Y245112D01*
X495555Y244767D02*X495900Y245112D01*
X494865Y244767D02*X495555D01*
X494520Y246630D02*X495003Y246147D01*
X494520Y247182D02*Y246630D01*
Y247182D02*X494865Y247527D01*
X495555D01*
X495900Y247182D01*
Y246630D01*
X495417Y246147D02*X495900Y246630D01*
X590987Y253507D02*X591884D01*
X590504Y253990D02*X590987Y253507D01*
X590504Y255784D02*Y253990D01*
Y255784D02*X590987Y256267D01*
X591884D01*
X593057Y253507D02*X594437Y256267D01*
X592712D02*X594437D01*
X595265Y253852D02*X595610Y253507D01*
X595265Y255922D02*Y253852D01*
Y255922D02*X595610Y256267D01*
X596300D01*
X596645Y255922D01*
Y253852D01*
X596300Y253507D02*X596645Y253852D01*
X595610Y253507D02*X596300D01*
X595265Y254197D02*X596645Y255577D01*
X591296Y261420D02*X592193D01*
X590813Y261903D02*X591296Y261420D01*
X590813Y263697D02*Y261903D01*
Y263697D02*X591296Y264180D01*
X592193D01*
X593366Y261420D02*X594746Y264180D01*
X593021D02*X594746D01*
X595574Y263628D02*X596126Y264180D01*
Y261420D01*
X595574D02*X596609D01*
X603900Y242719D02*X604797D01*
X603417Y243202D02*X603900Y242719D01*
X603417Y244996D02*Y243202D01*
Y244996D02*X603900Y245479D01*
X604797D01*
X605625Y245134D02*X605970Y245479D01*
X606660D01*
X607005Y245134D01*
X606660Y242719D02*X607005Y243064D01*
X605970Y242719D02*X606660D01*
X605625Y243064D02*X605970Y242719D01*
Y244237D02*X606660D01*
X607005Y245134D02*Y244582D01*
Y243892D02*Y243064D01*
Y243892D02*X606660Y244237D01*
X607005Y244582D02*X606660Y244237D01*
X607833Y245479D02*X609213D01*
X607833D02*Y244099D01*
X608178Y244444D01*
X608868D01*
X609213Y244099D01*
Y243064D01*
X608868Y242719D02*X609213Y243064D01*
X608178Y242719D02*X608868D01*
X607833Y243064D02*X608178Y242719D01*
X596066Y242877D02*X596963D01*
X595583Y243360D02*X596066Y242877D01*
X595583Y245154D02*Y243360D01*
Y245154D02*X596066Y245637D01*
X596963D01*
X597791Y245292D02*X598136Y245637D01*
X598826D01*
X599171Y245292D01*
X598826Y242877D02*X599171Y243222D01*
X598136Y242877D02*X598826D01*
X597791Y243222D02*X598136Y242877D01*
Y244395D02*X598826D01*
X599171Y245292D02*Y244740D01*
Y244050D02*Y243222D01*
Y244050D02*X598826Y244395D01*
X599171Y244740D02*X598826Y244395D01*
X599999Y243912D02*X601379Y245637D01*
X599999Y243912D02*X601724D01*
X601379Y245637D02*Y242877D01*
X588609Y281995D02*X589989D01*
X590334Y281650D01*
Y280960D01*
X589989Y280615D02*X590334Y280960D01*
X588954Y280615D02*X589989D01*
X588954Y281995D02*Y279235D01*
X589506Y280615D02*X590334Y279235D01*
X591162Y280270D02*X592542Y281995D01*
X591162Y280270D02*X592887D01*
X592542Y281995D02*Y279235D01*
X593715Y279580D02*X594060Y279235D01*
X593715Y280132D02*Y279580D01*
Y280132D02*X594198Y280615D01*
X594612D01*
X595095Y280132D01*
Y279580D01*
X594750Y279235D02*X595095Y279580D01*
X594060Y279235D02*X594750D01*
X593715Y281098D02*X594198Y280615D01*
X593715Y281650D02*Y281098D01*
Y281650D02*X594060Y281995D01*
X594750D01*
X595095Y281650D01*
Y281098D01*
X594612Y280615D02*X595095Y281098D01*
X469474Y284967D02*X470854D01*
X471199Y284622D01*
Y283932D01*
X470854Y283587D02*X471199Y283932D01*
X469819Y283587D02*X470854D01*
X469819Y284967D02*Y282207D01*
X470371Y283587D02*X471199Y282207D01*
X472027Y284967D02*X473407D01*
X472027D02*Y283587D01*
X472372Y283932D01*
X473062D01*
X473407Y283587D01*
Y282552D01*
X473062Y282207D02*X473407Y282552D01*
X472372Y282207D02*X473062D01*
X472027Y282552D02*X472372Y282207D01*
X474235Y283242D02*X475615Y284967D01*
X474235Y283242D02*X475960D01*
X475615Y284967D02*Y282207D01*
X485869Y284137D02*X486766D01*
X485386Y284620D02*X485869Y284137D01*
X485386Y286414D02*Y284620D01*
Y286414D02*X485869Y286897D01*
X486766D01*
X488629D02*X488974Y286552D01*
X487939Y286897D02*X488629D01*
X487594Y286552D02*X487939Y286897D01*
X487594Y286552D02*Y284482D01*
X487939Y284137D01*
X488629Y285655D02*X488974Y285310D01*
X487594Y285655D02*X488629D01*
X487939Y284137D02*X488629D01*
X488974Y284482D01*
Y285310D02*Y284482D01*
X489802Y286345D02*X490354Y286897D01*
Y284137D01*
X489802D02*X490837D01*
X485626Y295042D02*X486523D01*
X485143Y295525D02*X485626Y295042D01*
X485143Y297319D02*Y295525D01*
Y297319D02*X485626Y297802D01*
X486523D01*
X488386D02*X488731Y297457D01*
X487696Y297802D02*X488386D01*
X487351Y297457D02*X487696Y297802D01*
X487351Y297457D02*Y295387D01*
X487696Y295042D01*
X488386Y296560D02*X488731Y296215D01*
X487351Y296560D02*X488386D01*
X487696Y295042D02*X488386D01*
X488731Y295387D01*
Y296215D02*Y295387D01*
X489559D02*X489904Y295042D01*
X489559Y297457D02*Y295387D01*
Y297457D02*X489904Y297802D01*
X490594D01*
X490939Y297457D01*
Y295387D01*
X490594Y295042D02*X490939Y295387D01*
X489904Y295042D02*X490594D01*
X489559Y295732D02*X490939Y297112D01*
X516339Y290339D02*X518839Y294339D01*
X516339D02*X518839Y290339D01*
X520039Y293839D02*X520539Y294339D01*
X522039D01*
X522539Y293839D01*
Y292839D01*
X520039Y290339D02*X522539Y292839D01*
X520039Y290339D02*X522539D01*
X550780Y375834D02*X552160D01*
X552505Y375489D01*
Y374799D01*
X552160Y374454D02*X552505Y374799D01*
X551125Y374454D02*X552160D01*
X551125Y375834D02*Y373074D01*
X551677Y374454D02*X552505Y373074D01*
X553333Y374109D02*X554713Y375834D01*
X553333Y374109D02*X555058D01*
X554713Y375834D02*Y373074D01*
X556231D02*X557266Y374454D01*
Y375489D02*Y374454D01*
X556921Y375834D02*X557266Y375489D01*
X556231Y375834D02*X556921D01*
X555886Y375489D02*X556231Y375834D01*
X555886Y375489D02*Y374799D01*
X556231Y374454D01*
X557266D01*
X551646Y361621D02*X553026D01*
X553371Y361276D01*
Y360586D01*
X553026Y360241D02*X553371Y360586D01*
X551991Y360241D02*X553026D01*
X551991Y361621D02*Y358861D01*
X552543Y360241D02*X553371Y358861D01*
X554199Y361621D02*X555579D01*
X554199D02*Y360241D01*
X554544Y360586D01*
X555234D01*
X555579Y360241D01*
Y359206D01*
X555234Y358861D02*X555579Y359206D01*
X554544Y358861D02*X555234D01*
X554199Y359206D02*X554544Y358861D01*
X556407Y361069D02*X556959Y361621D01*
Y358861D01*
X556407D02*X557442D01*
X550617Y348412D02*X551997D01*
X552342Y348067D01*
Y347377D01*
X551997Y347032D02*X552342Y347377D01*
X550962Y347032D02*X551997D01*
X550962Y348412D02*Y345652D01*
X551514Y347032D02*X552342Y345652D01*
X553170Y348412D02*X554550D01*
X553170D02*Y347032D01*
X553515Y347377D01*
X554205D01*
X554550Y347032D01*
Y345997D01*
X554205Y345652D02*X554550Y345997D01*
X553515Y345652D02*X554205D01*
X553170Y345997D02*X553515Y345652D01*
X555378Y345997D02*X555723Y345652D01*
X555378Y348067D02*Y345997D01*
Y348067D02*X555723Y348412D01*
X556413D01*
X556758Y348067D01*
Y345997D01*
X556413Y345652D02*X556758Y345997D01*
X555723Y345652D02*X556413D01*
X555378Y346342D02*X556758Y347722D01*
X551055Y334298D02*X552435D01*
X552780Y333953D01*
Y333263D01*
X552435Y332918D02*X552780Y333263D01*
X551400Y332918D02*X552435D01*
X551400Y334298D02*Y331538D01*
X551952Y332918D02*X552780Y331538D01*
X553608Y334298D02*X554988D01*
X553608D02*Y332918D01*
X553953Y333263D01*
X554643D01*
X554988Y332918D01*
Y331883D01*
X554643Y331538D02*X554988Y331883D01*
X553953Y331538D02*X554643D01*
X553608Y331883D02*X553953Y331538D01*
X555816Y333953D02*X556161Y334298D01*
X557196D01*
X557541Y333953D01*
Y333263D01*
X555816Y331538D02*X557541Y333263D01*
X555816Y331538D02*X557541D01*
X395239Y340200D02*X396136D01*
X394756Y340683D02*X395239Y340200D01*
X394756Y342477D02*Y340683D01*
Y342477D02*X395239Y342960D01*
X396136D01*
X396964Y342408D02*X397516Y342960D01*
Y340200D01*
X396964D02*X397999D01*
X398827Y342615D02*X399172Y342960D01*
X399862D01*
X400207Y342615D01*
X399862Y340200D02*X400207Y340545D01*
X399172Y340200D02*X399862D01*
X398827Y340545D02*X399172Y340200D01*
Y341718D02*X399862D01*
X400207Y342615D02*Y342063D01*
Y341373D02*Y340545D01*
Y341373D02*X399862Y341718D01*
X400207Y342063D02*X399862Y341718D01*
X424497Y375517D02*X425677D01*
X425972Y375222D01*
Y374632D01*
X425677Y374337D02*X425972Y374632D01*
X424792Y374337D02*X425677D01*
X424792Y375517D02*Y373157D01*
X425264Y374337D02*X425972Y373157D01*
X426680Y375045D02*X427152Y375517D01*
Y373157D01*
X426680D02*X427565D01*
X428273Y375045D02*X428745Y375517D01*
Y373157D01*
X428273D02*X429158D01*
X430751Y375517D02*X431046Y375222D01*
X430161Y375517D02*X430751D01*
X429866Y375222D02*X430161Y375517D01*
X429866Y375222D02*Y373452D01*
X430161Y373157D01*
X430751Y374455D02*X431046Y374160D01*
X429866Y374455D02*X430751D01*
X430161Y373157D02*X430751D01*
X431046Y373452D01*
Y374160D02*Y373452D01*
X437292Y375641D02*X438472D01*
X438767Y375346D01*
Y374756D01*
X438472Y374461D02*X438767Y374756D01*
X437587Y374461D02*X438472D01*
X437587Y375641D02*Y373281D01*
X438059Y374461D02*X438767Y373281D01*
X439475Y375169D02*X439947Y375641D01*
Y373281D01*
X439475D02*X440360D01*
X441068Y375169D02*X441540Y375641D01*
Y373281D01*
X441068D02*X441953D01*
X442661Y375641D02*X443841D01*
X442661D02*Y374461D01*
X442956Y374756D01*
X443546D01*
X443841Y374461D01*
Y373576D01*
X443546Y373281D02*X443841Y373576D01*
X442956Y373281D02*X443546D01*
X442661Y373576D02*X442956Y373281D01*
X412402Y412646D02*Y409146D01*
X412902Y408646D01*
X413902D01*
X414402Y409146D01*
Y412646D02*Y409146D01*
X415602Y411846D02*X416402Y412646D01*
Y408646D01*
X415602D02*X417102D01*
X418302Y409146D02*X418802Y408646D01*
X418302Y409946D02*Y409146D01*
Y409946D02*X419002Y410646D01*
X419602D01*
X420302Y409946D01*
Y409146D01*
X419802Y408646D02*X420302Y409146D01*
X418802Y408646D02*X419802D01*
X418302Y411346D02*X419002Y410646D01*
X418302Y412146D02*Y411346D01*
Y412146D02*X418802Y412646D01*
X419802D01*
X420302Y412146D01*
Y411346D01*
X419602Y410646D02*X420302Y411346D01*
X613173Y343295D02*X615173D01*
X615673Y342795D01*
Y341795D01*
X615173Y341295D02*X615673Y341795D01*
X613673Y341295D02*X615173D01*
X613673Y343295D02*Y339295D01*
X614473Y341295D02*X615673Y339295D01*
X617373D02*X619373Y343295D01*
X616873D02*X619373D01*
X621073Y339295D02*X623073Y343295D01*
X620573D02*X623073D01*
X603004Y385969D02*Y382469D01*
X603504Y381969D01*
X604504D01*
X605004Y382469D01*
Y385969D02*Y382469D01*
X606204Y385169D02*X607004Y385969D01*
Y381969D01*
X606204D02*X607704D01*
X608904Y385169D02*X609704Y385969D01*
Y381969D01*
X608904D02*X610404D01*
X615987Y423113D02*X616884D01*
X615504Y423596D02*X615987Y423113D01*
X615504Y425390D02*Y423596D01*
Y425390D02*X615987Y425873D01*
X616884D01*
X618057Y423113D02*X619437Y425873D01*
X617712D02*X619437D01*
X620265Y425528D02*X620610Y425873D01*
X621300D01*
X621645Y425528D01*
X621300Y423113D02*X621645Y423458D01*
X620610Y423113D02*X621300D01*
X620265Y423458D02*X620610Y423113D01*
Y424631D02*X621300D01*
X621645Y425528D02*Y424976D01*
Y424286D02*Y423458D01*
Y424286D02*X621300Y424631D01*
X621645Y424976D02*X621300Y424631D01*
X483268Y413630D02*Y410130D01*
X483768Y409630D01*
X484768D01*
X485268Y410130D01*
Y413630D02*Y410130D01*
X486468Y411130D02*X488468Y413630D01*
X486468Y411130D02*X488968D01*
X488468Y413630D02*Y409630D01*
X455993Y375517D02*X457173D01*
X457468Y375222D01*
Y374632D01*
X457173Y374337D02*X457468Y374632D01*
X456288Y374337D02*X457173D01*
X456288Y375517D02*Y373157D01*
X456760Y374337D02*X457468Y373157D01*
X458176Y375045D02*X458648Y375517D01*
Y373157D01*
X458176D02*X459061D01*
X459769Y375045D02*X460241Y375517D01*
Y373157D01*
X459769D02*X460654D01*
X461362Y374042D02*X462542Y375517D01*
X461362Y374042D02*X462837D01*
X462542Y375517D02*Y373157D01*
X537348Y200282D02*X538728D01*
X539073Y199937D01*
Y199247D01*
X538728Y198902D02*X539073Y199247D01*
X537693Y198902D02*X538728D01*
X537693Y200282D02*Y197522D01*
X538245Y198902D02*X539073Y197522D01*
X539901Y199730D02*X540453Y200282D01*
Y197522D01*
X539901D02*X540936D01*
X541764Y199730D02*X542316Y200282D01*
Y197522D01*
X541764D02*X542799D01*
X547831Y193507D02*X548728D01*
X547348Y193990D02*X547831Y193507D01*
X547348Y195784D02*Y193990D01*
Y195784D02*X547831Y196267D01*
X548728D01*
X550591D02*X550936Y195922D01*
X549901Y196267D02*X550591D01*
X549556Y195922D02*X549901Y196267D01*
X549556Y195922D02*Y193852D01*
X549901Y193507D01*
X550591Y195025D02*X550936Y194680D01*
X549556Y195025D02*X550591D01*
X549901Y193507D02*X550591D01*
X550936Y193852D01*
Y194680D02*Y193852D01*
X551764Y196267D02*X553144D01*
X551764D02*Y194887D01*
X552109Y195232D01*
X552799D01*
X553144Y194887D01*
Y193852D01*
X552799Y193507D02*X553144Y193852D01*
X552109Y193507D02*X552799D01*
X551764Y193852D02*X552109Y193507D01*
X559648Y193664D02*X560545D01*
X559165Y194147D02*X559648Y193664D01*
X559165Y195941D02*Y194147D01*
Y195941D02*X559648Y196424D01*
X560545D01*
X561373Y196079D02*X561718Y196424D01*
X562408D01*
X562753Y196079D01*
X562408Y193664D02*X562753Y194009D01*
X561718Y193664D02*X562408D01*
X561373Y194009D02*X561718Y193664D01*
Y195182D02*X562408D01*
X562753Y196079D02*Y195527D01*
Y194837D02*Y194009D01*
Y194837D02*X562408Y195182D01*
X562753Y195527D02*X562408Y195182D01*
X563581Y196079D02*X563926Y196424D01*
X564616D01*
X564961Y196079D01*
X564616Y193664D02*X564961Y194009D01*
X563926Y193664D02*X564616D01*
X563581Y194009D02*X563926Y193664D01*
Y195182D02*X564616D01*
X564961Y196079D02*Y195527D01*
Y194837D02*Y194009D01*
Y194837D02*X564616Y195182D01*
X564961Y195527D02*X564616Y195182D01*
X517877Y194570D02*X518774D01*
X517394Y195053D02*X517877Y194570D01*
X517394Y196847D02*Y195053D01*
Y196847D02*X517877Y197330D01*
X518774D01*
X519602Y196985D02*X519947Y197330D01*
X520982D01*
X521327Y196985D01*
Y196295D01*
X519602Y194570D02*X521327Y196295D01*
X519602Y194570D02*X521327D01*
X522500D02*X523880Y197330D01*
X522155D02*X523880D01*
X506611Y194609D02*X507508D01*
X506128Y195092D02*X506611Y194609D01*
X506128Y196886D02*Y195092D01*
Y196886D02*X506611Y197369D01*
X507508D01*
X508336Y197024D02*X508681Y197369D01*
X509371D01*
X509716Y197024D01*
X509371Y194609D02*X509716Y194954D01*
X508681Y194609D02*X509371D01*
X508336Y194954D02*X508681Y194609D01*
Y196127D02*X509371D01*
X509716Y197024D02*Y196472D01*
Y195782D02*Y194954D01*
Y195782D02*X509371Y196127D01*
X509716Y196472D02*X509371Y196127D01*
X510544Y196817D02*X511096Y197369D01*
Y194609D01*
X510544D02*X511579D01*
X521535Y269929D02*Y266429D01*
X522035Y265929D01*
X523035D01*
X523535Y266429D01*
Y269929D02*Y266429D01*
X526235Y269929D02*X526735Y269429D01*
X525235Y269929D02*X526235D01*
X524735Y269429D02*X525235Y269929D01*
X524735Y269429D02*Y266429D01*
X525235Y265929D01*
X526235Y268129D02*X526735Y267629D01*
X524735Y268129D02*X526235D01*
X525235Y265929D02*X526235D01*
X526735Y266429D01*
Y267629D02*Y266429D01*
X507827Y278078D02*X509207D01*
X509552Y277733D01*
Y277043D01*
X509207Y276698D02*X509552Y277043D01*
X508172Y276698D02*X509207D01*
X508172Y278078D02*Y275318D01*
X508724Y276698D02*X509552Y275318D01*
X510380Y277526D02*X510932Y278078D01*
Y275318D01*
X510380D02*X511415D01*
X512243Y275663D02*X512588Y275318D01*
X512243Y277733D02*Y275663D01*
Y277733D02*X512588Y278078D01*
X513278D01*
X513623Y277733D01*
Y275663D01*
X513278Y275318D02*X513623Y275663D01*
X512588Y275318D02*X513278D01*
X512243Y276008D02*X513623Y277388D01*
X509638Y305637D02*X511018D01*
X511363Y305292D01*
Y304602D01*
X511018Y304257D02*X511363Y304602D01*
X509983Y304257D02*X511018D01*
X509983Y305637D02*Y302877D01*
X510535Y304257D02*X511363Y302877D01*
X512191Y303912D02*X513571Y305637D01*
X512191Y303912D02*X513916D01*
X513571Y305637D02*Y302877D01*
X515779Y305637D02*X516124Y305292D01*
X515089Y305637D02*X515779D01*
X514744Y305292D02*X515089Y305637D01*
X514744Y305292D02*Y303222D01*
X515089Y302877D01*
X515779Y304395D02*X516124Y304050D01*
X514744Y304395D02*X515779D01*
X515089Y302877D02*X515779D01*
X516124Y303222D01*
Y304050D02*Y303222D01*
X522477Y302916D02*X523374D01*
X521994Y303399D02*X522477Y302916D01*
X521994Y305193D02*Y303399D01*
Y305193D02*X522477Y305676D01*
X523374D01*
X524202D02*X525582D01*
X524202D02*Y304296D01*
X524547Y304641D01*
X525237D01*
X525582Y304296D01*
Y303261D01*
X525237Y302916D02*X525582Y303261D01*
X524547Y302916D02*X525237D01*
X524202Y303261D02*X524547Y302916D01*
X526755D02*X527790Y304296D01*
Y305331D02*Y304296D01*
X527445Y305676D02*X527790Y305331D01*
X526755Y305676D02*X527445D01*
X526410Y305331D02*X526755Y305676D01*
X526410Y305331D02*Y304641D01*
X526755Y304296D01*
X527790D01*
X546577Y291105D02*X547474D01*
X546094Y291588D02*X546577Y291105D01*
X546094Y293382D02*Y291588D01*
Y293382D02*X546577Y293865D01*
X547474D01*
X549337D02*X549682Y293520D01*
X548647Y293865D02*X549337D01*
X548302Y293520D02*X548647Y293865D01*
X548302Y293520D02*Y291450D01*
X548647Y291105D01*
X549337Y292623D02*X549682Y292278D01*
X548302Y292623D02*X549337D01*
X548647Y291105D02*X549337D01*
X549682Y291450D01*
Y292278D02*Y291450D01*
X550510Y293520D02*X550855Y293865D01*
X551890D01*
X552235Y293520D01*
Y292830D01*
X550510Y291105D02*X552235Y292830D01*
X550510Y291105D02*X552235D01*
X546577Y298940D02*X547474D01*
X546094Y299423D02*X546577Y298940D01*
X546094Y301217D02*Y299423D01*
Y301217D02*X546577Y301700D01*
X547474D01*
X549337D02*X549682Y301355D01*
X548647Y301700D02*X549337D01*
X548302Y301355D02*X548647Y301700D01*
X548302Y301355D02*Y299285D01*
X548647Y298940D01*
X549337Y300458D02*X549682Y300113D01*
X548302Y300458D02*X549337D01*
X548647Y298940D02*X549337D01*
X549682Y299285D01*
Y300113D02*Y299285D01*
X550510Y301355D02*X550855Y301700D01*
X551545D01*
X551890Y301355D01*
X551545Y298940D02*X551890Y299285D01*
X550855Y298940D02*X551545D01*
X550510Y299285D02*X550855Y298940D01*
Y300458D02*X551545D01*
X551890Y301355D02*Y300803D01*
Y300113D02*Y299285D01*
Y300113D02*X551545Y300458D01*
X551890Y300803D02*X551545Y300458D01*
X535469Y166302D02*X536366D01*
X534986Y166785D02*X535469Y166302D01*
X534986Y168579D02*Y166785D01*
Y168579D02*X535469Y169062D01*
X536366D01*
X537539Y166302D02*X538574Y167682D01*
Y168717D02*Y167682D01*
X538229Y169062D02*X538574Y168717D01*
X537539Y169062D02*X538229D01*
X537194Y168717D02*X537539Y169062D01*
X537194Y168717D02*Y168027D01*
X537539Y167682D01*
X538574D01*
X539402Y168510D02*X539954Y169062D01*
Y166302D01*
X539402D02*X540437D01*
X535478Y141526D02*X536245D01*
X535065Y141939D02*X535478Y141526D01*
X535065Y143473D02*Y141939D01*
Y143473D02*X535478Y143886D01*
X536245D01*
X537248Y141526D02*X538133Y142706D01*
Y143591D02*Y142706D01*
X537838Y143886D02*X538133Y143591D01*
X537248Y143886D02*X537838D01*
X536953Y143591D02*X537248Y143886D01*
X536953Y143591D02*Y143001D01*
X537248Y142706D01*
X538133D01*
X538841Y141821D02*X539136Y141526D01*
X538841Y143591D02*Y141821D01*
Y143591D02*X539136Y143886D01*
X539726D01*
X540021Y143591D01*
Y141821D01*
X539726Y141526D02*X540021Y141821D01*
X539136Y141526D02*X539726D01*
X538841Y142116D02*X540021Y143296D01*
X547792Y131223D02*X548689D01*
X547309Y131706D02*X547792Y131223D01*
X547309Y133500D02*Y131706D01*
Y133500D02*X547792Y133983D01*
X548689D01*
X549517Y131568D02*X549862Y131223D01*
X549517Y132120D02*Y131568D01*
Y132120D02*X550000Y132603D01*
X550414D01*
X550897Y132120D01*
Y131568D01*
X550552Y131223D02*X550897Y131568D01*
X549862Y131223D02*X550552D01*
X549517Y133086D02*X550000Y132603D01*
X549517Y133638D02*Y133086D01*
Y133638D02*X549862Y133983D01*
X550552D01*
X550897Y133638D01*
Y133086D01*
X550414Y132603D02*X550897Y133086D01*
X552070Y131223D02*X553105Y132603D01*
Y133638D02*Y132603D01*
X552760Y133983D02*X553105Y133638D01*
X552070Y133983D02*X552760D01*
X551725Y133638D02*X552070Y133983D01*
X551725Y133638D02*Y132948D01*
X552070Y132603D01*
X553105D01*
X539986Y155697D02*X541166D01*
X541461Y155402D01*
Y154812D01*
X541166Y154517D02*X541461Y154812D01*
X540281Y154517D02*X541166D01*
X540281Y155697D02*Y153337D01*
X540753Y154517D02*X541461Y153337D01*
X542464D02*X543349Y154517D01*
Y155402D02*Y154517D01*
X543054Y155697D02*X543349Y155402D01*
X542464Y155697D02*X543054D01*
X542169Y155402D02*X542464Y155697D01*
X542169Y155402D02*Y154812D01*
X542464Y154517D01*
X543349D01*
X544057Y153632D02*X544352Y153337D01*
X544057Y155402D02*Y153632D01*
Y155402D02*X544352Y155697D01*
X544942D01*
X545237Y155402D01*
Y153632D01*
X544942Y153337D02*X545237Y153632D01*
X544352Y153337D02*X544942D01*
X544057Y153927D02*X545237Y155107D01*
X559373Y202562D02*X560270D01*
X558890Y203045D02*X559373Y202562D01*
X558890Y204839D02*Y203045D01*
Y204839D02*X559373Y205322D01*
X560270D01*
X561098Y204977D02*X561443Y205322D01*
X562133D01*
X562478Y204977D01*
X562133Y202562D02*X562478Y202907D01*
X561443Y202562D02*X562133D01*
X561098Y202907D02*X561443Y202562D01*
Y204080D02*X562133D01*
X562478Y204977D02*Y204425D01*
Y203735D02*Y202907D01*
Y203735D02*X562133Y204080D01*
X562478Y204425D02*X562133Y204080D01*
X563306Y204977D02*X563651Y205322D01*
X564686D01*
X565031Y204977D01*
Y204287D01*
X563306Y202562D02*X565031Y204287D01*
X563306Y202562D02*X565031D01*
X560357Y218231D02*X561254D01*
X559874Y218714D02*X560357Y218231D01*
X559874Y220508D02*Y218714D01*
Y220508D02*X560357Y220991D01*
X561254D01*
X562082Y220646D02*X562427Y220991D01*
X563462D01*
X563807Y220646D01*
Y219956D01*
X562082Y218231D02*X563807Y219956D01*
X562082Y218231D02*X563807D01*
X564635Y218576D02*X564980Y218231D01*
X564635Y219128D02*Y218576D01*
Y219128D02*X565118Y219611D01*
X565532D01*
X566015Y219128D01*
Y218576D01*
X565670Y218231D02*X566015Y218576D01*
X564980Y218231D02*X565670D01*
X564635Y220094D02*X565118Y219611D01*
X564635Y220646D02*Y220094D01*
Y220646D02*X564980Y220991D01*
X565670D01*
X566015Y220646D01*
Y220094D01*
X565532Y219611D02*X566015Y220094D01*
X569412Y218192D02*X570309D01*
X568929Y218675D02*X569412Y218192D01*
X568929Y220469D02*Y218675D01*
Y220469D02*X569412Y220952D01*
X570309D01*
X571137Y220607D02*X571482Y220952D01*
X572517D01*
X572862Y220607D01*
Y219917D01*
X571137Y218192D02*X572862Y219917D01*
X571137Y218192D02*X572862D01*
X574035D02*X575070Y219572D01*
Y220607D02*Y219572D01*
X574725Y220952D02*X575070Y220607D01*
X574035Y220952D02*X574725D01*
X573690Y220607D02*X574035Y220952D01*
X573690Y220607D02*Y219917D01*
X574035Y219572D01*
X575070D01*
X526144Y218113D02*X527041D01*
X525661Y218596D02*X526144Y218113D01*
X525661Y220390D02*Y218596D01*
Y220390D02*X526144Y220873D01*
X527041D01*
X528904D02*X529249Y220528D01*
X528214Y220873D02*X528904D01*
X527869Y220528D02*X528214Y220873D01*
X527869Y220528D02*Y218458D01*
X528214Y218113D01*
X528904Y219631D02*X529249Y219286D01*
X527869Y219631D02*X528904D01*
X528214Y218113D02*X528904D01*
X529249Y218458D01*
Y219286D02*Y218458D01*
X531112Y220873D02*X531457Y220528D01*
X530422Y220873D02*X531112D01*
X530077Y220528D02*X530422Y220873D01*
X530077Y220528D02*Y218458D01*
X530422Y218113D01*
X531112Y219631D02*X531457Y219286D01*
X530077Y219631D02*X531112D01*
X530422Y218113D02*X531112D01*
X531457Y218458D01*
Y219286D02*Y218458D01*
X516617Y216223D02*X517514D01*
X516134Y216706D02*X516617Y216223D01*
X516134Y218500D02*Y216706D01*
Y218500D02*X516617Y218983D01*
X517514D01*
X519377D02*X519722Y218638D01*
X518687Y218983D02*X519377D01*
X518342Y218638D02*X518687Y218983D01*
X518342Y218638D02*Y216568D01*
X518687Y216223D01*
X519377Y217741D02*X519722Y217396D01*
X518342Y217741D02*X519377D01*
X518687Y216223D02*X519377D01*
X519722Y216568D01*
Y217396D02*Y216568D01*
X520895Y216223D02*X522275Y218983D01*
X520550D02*X522275D01*
X547910Y202444D02*X548807D01*
X547427Y202927D02*X547910Y202444D01*
X547427Y204721D02*Y202927D01*
Y204721D02*X547910Y205204D01*
X548807D01*
X550670D02*X551015Y204859D01*
X549980Y205204D02*X550670D01*
X549635Y204859D02*X549980Y205204D01*
X549635Y204859D02*Y202789D01*
X549980Y202444D01*
X550670Y203962D02*X551015Y203617D01*
X549635Y203962D02*X550670D01*
X549980Y202444D02*X550670D01*
X551015Y202789D01*
Y203617D02*Y202789D01*
X551843Y203479D02*X553223Y205204D01*
X551843Y203479D02*X553568D01*
X553223Y205204D02*Y202444D01*
X517837Y203546D02*X518734D01*
X517354Y204029D02*X517837Y203546D01*
X517354Y205823D02*Y204029D01*
Y205823D02*X517837Y206306D01*
X518734D01*
X519562Y205961D02*X519907Y206306D01*
X520942D01*
X521287Y205961D01*
Y205271D01*
X519562Y203546D02*X521287Y205271D01*
X519562Y203546D02*X521287D01*
X523150Y206306D02*X523495Y205961D01*
X522460Y206306D02*X523150D01*
X522115Y205961D02*X522460Y206306D01*
X522115Y205961D02*Y203891D01*
X522460Y203546D01*
X523150Y205064D02*X523495Y204719D01*
X522115Y205064D02*X523150D01*
X522460Y203546D02*X523150D01*
X523495Y203891D01*
Y204719D02*Y203891D01*
X506696Y203428D02*X507593D01*
X506213Y203911D02*X506696Y203428D01*
X506213Y205705D02*Y203911D01*
Y205705D02*X506696Y206188D01*
X507593D01*
X508421Y205843D02*X508766Y206188D01*
X509456D01*
X509801Y205843D01*
X509456Y203428D02*X509801Y203773D01*
X508766Y203428D02*X509456D01*
X508421Y203773D02*X508766Y203428D01*
Y204946D02*X509456D01*
X509801Y205843D02*Y205291D01*
Y204601D02*Y203773D01*
Y204601D02*X509456Y204946D01*
X509801Y205291D02*X509456Y204946D01*
X510629Y203773D02*X510974Y203428D01*
X510629Y205843D02*Y203773D01*
Y205843D02*X510974Y206188D01*
X511664D01*
X512009Y205843D01*
Y203773D01*
X511664Y203428D02*X512009Y203773D01*
X510974Y203428D02*X511664D01*
X510629Y204118D02*X512009Y205498D01*
X105906Y270323D02*Y266823D01*
X106406Y266323D01*
X107406D01*
X107906Y266823D01*
Y270323D02*Y266823D01*
X109606Y266323D02*X111606Y270323D01*
X109106D02*X111606D01*
X161049Y273708D02*X162429D01*
X162774Y273363D01*
Y272673D01*
X162429Y272328D02*X162774Y272673D01*
X161394Y272328D02*X162429D01*
X161394Y273708D02*Y270948D01*
X161946Y272328D02*X162774Y270948D01*
X163602Y271983D02*X164982Y273708D01*
X163602Y271983D02*X165327D01*
X164982Y273708D02*Y270948D01*
X162098Y295733D02*Y291733D01*
X163398Y295733D02*X164098Y295033D01*
Y292433D01*
X163398Y291733D02*X164098Y292433D01*
X161598Y291733D02*X163398D01*
X161598Y295733D02*X163398D01*
X165298Y294933D02*X166098Y295733D01*
Y291733D01*
X165298D02*X166798D01*
X94028Y317898D02*Y313898D01*
X95328Y317898D02*X96028Y317198D01*
Y314598D01*
X95328Y313898D02*X96028Y314598D01*
X93528Y313898D02*X95328D01*
X93528Y317898D02*X95328D01*
X97228Y317398D02*X97728Y317898D01*
X99228D01*
X99728Y317398D01*
Y316398D01*
X97228Y313898D02*X99728Y316398D01*
X97228Y313898D02*X99728D01*
X96932Y331459D02*X97829D01*
X96449Y331942D02*X96932Y331459D01*
X96449Y333736D02*Y331942D01*
Y333736D02*X96932Y334219D01*
X97829D01*
X98657Y333874D02*X99002Y334219D01*
X100037D01*
X100382Y333874D01*
Y333184D01*
X98657Y331459D02*X100382Y333184D01*
X98657Y331459D02*X100382D01*
X101210Y333874D02*X101555Y334219D01*
X102590D01*
X102935Y333874D01*
Y333184D01*
X101210Y331459D02*X102935Y333184D01*
X101210Y331459D02*X102935D01*
X110458Y334263D02*X111838D01*
X112183Y333918D01*
Y333228D01*
X111838Y332883D02*X112183Y333228D01*
X110803Y332883D02*X111838D01*
X110803Y334263D02*Y331503D01*
X111355Y332883D02*X112183Y331503D01*
X113356D02*X114391Y332883D01*
Y333918D02*Y332883D01*
X114046Y334263D02*X114391Y333918D01*
X113356Y334263D02*X114046D01*
X113011Y333918D02*X113356Y334263D01*
X113011Y333918D02*Y333228D01*
X113356Y332883D01*
X114391D01*
X144441Y324298D02*X145821D01*
X146166Y323953D01*
Y323263D01*
X145821Y322918D02*X146166Y323263D01*
X144786Y322918D02*X145821D01*
X144786Y324298D02*Y321538D01*
X145338Y322918D02*X146166Y321538D01*
X146994Y321883D02*X147339Y321538D01*
X146994Y322435D02*Y321883D01*
Y322435D02*X147477Y322918D01*
X147891D01*
X148374Y322435D01*
Y321883D01*
X148029Y321538D02*X148374Y321883D01*
X147339Y321538D02*X148029D01*
X146994Y323401D02*X147477Y322918D01*
X146994Y323953D02*Y323401D01*
Y323953D02*X147339Y324298D01*
X148029D01*
X148374Y323953D01*
Y323401D01*
X147891Y322918D02*X148374Y323401D01*
X120079Y327015D02*Y323515D01*
X120579Y323015D01*
X121579D01*
X122079Y323515D01*
Y327015D02*Y323515D01*
X123279Y327015D02*X125279D01*
X123279D02*Y325015D01*
X123779Y325515D01*
X124779D01*
X125279Y325015D01*
Y323515D01*
X124779Y323015D02*X125279Y323515D01*
X123779Y323015D02*X124779D01*
X123279Y323515D02*X123779Y323015D01*
G54D181*X62500Y310742D02*Y309542D01*
Y310742D02*X67750D01*
X68500Y309992D02*X67750Y310742D01*
X68500Y309992D02*Y309242D01*
X67750Y308492D02*X68500Y309242D01*
X67000Y308492D02*X67750D01*
X63700Y312542D02*X62500Y313742D01*
X68500D01*
Y314792D02*Y312542D01*
G54D175*X240773Y245558D02*X242153D01*
X242498Y245213D01*
Y244523D01*
X242153Y244178D02*X242498Y244523D01*
X241118Y244178D02*X242153D01*
X241118Y245558D02*Y242798D01*
X241670Y244178D02*X242498Y242798D01*
X243326Y245213D02*X243671Y245558D01*
X244361D01*
X244706Y245213D01*
X244361Y242798D02*X244706Y243143D01*
X243671Y242798D02*X244361D01*
X243326Y243143D02*X243671Y242798D01*
Y244316D02*X244361D01*
X244706Y245213D02*Y244661D01*
Y243971D02*Y243143D01*
Y243971D02*X244361Y244316D01*
X244706Y244661D02*X244361Y244316D01*
X240970Y234731D02*Y231971D01*
X242350D01*
X243178Y234179D02*X243730Y234731D01*
Y231971D01*
X243178D02*X244213D01*
X228461Y284727D02*X229358D01*
X227978Y285210D02*X228461Y284727D01*
X227978Y287004D02*Y285210D01*
Y287004D02*X228461Y287487D01*
X229358D01*
X230186Y285762D02*X231566Y287487D01*
X230186Y285762D02*X231911D01*
X231566Y287487D02*Y284727D01*
X228461Y302444D02*X229358D01*
X227978Y302927D02*X228461Y302444D01*
X227978Y304721D02*Y302927D01*
Y304721D02*X228461Y305204D01*
X229358D01*
X230186Y304859D02*X230531Y305204D01*
X231221D01*
X231566Y304859D01*
X231221Y302444D02*X231566Y302789D01*
X230531Y302444D02*X231221D01*
X230186Y302789D02*X230531Y302444D01*
Y303962D02*X231221D01*
X231566Y304859D02*Y304307D01*
Y303617D02*Y302789D01*
Y303617D02*X231221Y303962D01*
X231566Y304307D02*X231221Y303962D01*
X200000Y251819D02*Y248319D01*
X200500Y247819D01*
X201500D01*
X202000Y248319D01*
Y251819D02*Y248319D01*
X203200Y251019D02*X204000Y251819D01*
Y247819D01*
X203200D02*X204700D01*
X229429Y253063D02*X230326D01*
X228946Y253546D02*X229429Y253063D01*
X228946Y255340D02*Y253546D01*
Y255340D02*X229429Y255823D01*
X230326D01*
X231154Y255271D02*X231706Y255823D01*
Y253063D01*
X231154D02*X232189D01*
X228461Y330003D02*X229358D01*
X227978Y330486D02*X228461Y330003D01*
X227978Y332280D02*Y330486D01*
Y332280D02*X228461Y332763D01*
X229358D01*
X230531Y330003D02*X231911Y332763D01*
X230186D02*X231911D01*
X233084Y330003D02*X234464Y332763D01*
X232739D02*X234464D01*
X228461Y242798D02*X229358D01*
X227978Y243281D02*X228461Y242798D01*
X227978Y245075D02*Y243281D01*
Y245075D02*X228461Y245558D01*
X229358D01*
X230186Y245213D02*X230531Y245558D01*
X231566D01*
X231911Y245213D01*
Y244523D01*
X230186Y242798D02*X231911Y244523D01*
X230186Y242798D02*X231911D01*
X227978Y223511D02*X229358D01*
X229703Y223166D01*
Y222476D01*
X229358Y222131D02*X229703Y222476D01*
X228323Y222131D02*X229358D01*
X228323Y223511D02*Y220751D01*
X228875Y222131D02*X229703Y220751D01*
X230531Y223166D02*X230876Y223511D01*
X231911D01*
X232256Y223166D01*
Y222476D01*
X230531Y220751D02*X232256Y222476D01*
X230531Y220751D02*X232256D01*
X227978Y234731D02*X229358D01*
X229703Y234386D01*
Y233696D01*
X229358Y233351D02*X229703Y233696D01*
X228323Y233351D02*X229358D01*
X228323Y234731D02*Y231971D01*
X228875Y233351D02*X229703Y231971D01*
X230531Y234179D02*X231083Y234731D01*
Y231971D01*
X230531D02*X231566D01*
X221732Y197882D02*Y194382D01*
X222232Y193882D01*
X223232D01*
X223732Y194382D01*
Y197882D02*Y194382D01*
X224932D02*X225432Y193882D01*
X224932Y195182D02*Y194382D01*
Y195182D02*X225632Y195882D01*
X226232D01*
X226932Y195182D01*
Y194382D01*
X226432Y193882D02*X226932Y194382D01*
X225432Y193882D02*X226432D01*
X224932Y196582D02*X225632Y195882D01*
X224932Y197382D02*Y196582D01*
Y197382D02*X225432Y197882D01*
X226432D01*
X226932Y197382D01*
Y196582D01*
X226232Y195882D02*X226932Y196582D01*
X198819Y295520D02*Y292020D01*
X199319Y291520D01*
X200319D01*
X200819Y292020D01*
Y295520D02*Y292020D01*
X202019Y295020D02*X202519Y295520D01*
X204019D01*
X204519Y295020D01*
Y294020D01*
X202019Y291520D02*X204519Y294020D01*
X202019Y291520D02*X204519D01*
X320811Y317591D02*Y314091D01*
X321311Y313591D01*
X322311D01*
X322811Y314091D01*
Y317591D02*Y314091D01*
X324011Y317091D02*X324511Y317591D01*
X325511D01*
X326011Y317091D01*
X325511Y313591D02*X326011Y314091D01*
X324511Y313591D02*X325511D01*
X324011Y314091D02*X324511Y313591D01*
Y315791D02*X325511D01*
X326011Y317091D02*Y316291D01*
Y315291D02*Y314091D01*
Y315291D02*X325511Y315791D01*
X326011Y316291D02*X325511Y315791D01*
X363743Y340247D02*X364640D01*
X363260Y340730D02*X363743Y340247D01*
X363260Y342524D02*Y340730D01*
Y342524D02*X363743Y343007D01*
X364640D01*
X365468Y342455D02*X366020Y343007D01*
Y340247D01*
X365468D02*X366503D01*
X367331Y342455D02*X367883Y343007D01*
Y340247D01*
X367331D02*X368366D01*
X355790Y340255D02*X356687D01*
X355307Y340738D02*X355790Y340255D01*
X355307Y342532D02*Y340738D01*
Y342532D02*X355790Y343015D01*
X356687D01*
X357515Y342463D02*X358067Y343015D01*
Y340255D01*
X357515D02*X358550D01*
X359378Y340600D02*X359723Y340255D01*
X359378Y342670D02*Y340600D01*
Y342670D02*X359723Y343015D01*
X360413D01*
X360758Y342670D01*
Y340600D01*
X360413Y340255D02*X360758Y340600D01*
X359723Y340255D02*X360413D01*
X359378Y340945D02*X360758Y342325D01*
X284389Y281088D02*X285286D01*
X283906Y281571D02*X284389Y281088D01*
X283906Y283365D02*Y281571D01*
Y283365D02*X284389Y283848D01*
X285286D01*
X286459Y281088D02*X287839Y283848D01*
X286114D02*X287839D01*
X284744Y288647D02*X285641D01*
X284261Y289130D02*X284744Y288647D01*
X284261Y290924D02*Y289130D01*
Y290924D02*X284744Y291407D01*
X285641D01*
X287504D02*X287849Y291062D01*
X286814Y291407D02*X287504D01*
X286469Y291062D02*X286814Y291407D01*
X286469Y291062D02*Y288992D01*
X286814Y288647D01*
X287504Y290165D02*X287849Y289820D01*
X286469Y290165D02*X287504D01*
X286814Y288647D02*X287504D01*
X287849Y288992D01*
Y289820D02*Y288992D01*
X284271Y243647D02*X285168D01*
X283788Y244130D02*X284271Y243647D01*
X283788Y245924D02*Y244130D01*
Y245924D02*X284271Y246407D01*
X285168D01*
X286341Y243647D02*X287376Y245027D01*
Y246062D02*Y245027D01*
X287031Y246407D02*X287376Y246062D01*
X286341Y246407D02*X287031D01*
X285996Y246062D02*X286341Y246407D01*
X285996Y246062D02*Y245372D01*
X286341Y245027D01*
X287376D01*
X283726Y251403D02*X284623D01*
X283243Y251886D02*X283726Y251403D01*
X283243Y253680D02*Y251886D01*
Y253680D02*X283726Y254163D01*
X284623D01*
X285451Y251748D02*X285796Y251403D01*
X285451Y252300D02*Y251748D01*
Y252300D02*X285934Y252783D01*
X286348D01*
X286831Y252300D01*
Y251748D01*
X286486Y251403D02*X286831Y251748D01*
X285796Y251403D02*X286486D01*
X285451Y253266D02*X285934Y252783D01*
X285451Y253818D02*Y253266D01*
Y253818D02*X285796Y254163D01*
X286486D01*
X286831Y253818D01*
Y253266D01*
X286348Y252783D02*X286831Y253266D01*
X295964Y286774D02*X296861D01*
X295481Y287257D02*X295964Y286774D01*
X295481Y289051D02*Y287257D01*
Y289051D02*X295964Y289534D01*
X296861D01*
X297689Y289189D02*X298034Y289534D01*
X299069D01*
X299414Y289189D01*
Y288499D01*
X297689Y286774D02*X299414Y288499D01*
X297689Y286774D02*X299414D01*
X300242Y289189D02*X300587Y289534D01*
X301277D01*
X301622Y289189D01*
X301277Y286774D02*X301622Y287119D01*
X300587Y286774D02*X301277D01*
X300242Y287119D02*X300587Y286774D01*
Y288292D02*X301277D01*
X301622Y289189D02*Y288637D01*
Y287947D02*Y287119D01*
Y287947D02*X301277Y288292D01*
X301622Y288637D02*X301277Y288292D01*
X295425Y280755D02*X296805D01*
X297150Y280410D01*
Y279720D01*
X296805Y279375D02*X297150Y279720D01*
X295770Y279375D02*X296805D01*
X295770Y280755D02*Y277995D01*
X296322Y279375D02*X297150Y277995D01*
X297978Y279030D02*X299358Y280755D01*
X297978Y279030D02*X299703D01*
X299358Y280755D02*Y277995D01*
X300531Y280755D02*X301911D01*
X300531D02*Y279375D01*
X300876Y279720D01*
X301566D01*
X301911Y279375D01*
Y278340D01*
X301566Y277995D02*X301911Y278340D01*
X300876Y277995D02*X301566D01*
X300531Y278340D02*X300876Y277995D01*
X324435Y194967D02*X325815D01*
X326160Y194622D01*
Y193932D01*
X325815Y193587D02*X326160Y193932D01*
X324780Y193587D02*X325815D01*
X324780Y194967D02*Y192207D01*
X325332Y193587D02*X326160Y192207D01*
X328023Y194967D02*X328368Y194622D01*
X327333Y194967D02*X328023D01*
X326988Y194622D02*X327333Y194967D01*
X326988Y194622D02*Y192552D01*
X327333Y192207D01*
X328023Y193725D02*X328368Y193380D01*
X326988Y193725D02*X328023D01*
X327333Y192207D02*X328023D01*
X328368Y192552D01*
Y193380D02*Y192552D01*
X330231Y194967D02*X330576Y194622D01*
X329541Y194967D02*X330231D01*
X329196Y194622D02*X329541Y194967D01*
X329196Y194622D02*Y192552D01*
X329541Y192207D01*
X330231Y193725D02*X330576Y193380D01*
X329196Y193725D02*X330231D01*
X329541Y192207D02*X330231D01*
X330576Y192552D01*
Y193380D02*Y192552D01*
X289002Y194967D02*X290382D01*
X290727Y194622D01*
Y193932D01*
X290382Y193587D02*X290727Y193932D01*
X289347Y193587D02*X290382D01*
X289347Y194967D02*Y192207D01*
X289899Y193587D02*X290727Y192207D01*
X292590Y194967D02*X292935Y194622D01*
X291900Y194967D02*X292590D01*
X291555Y194622D02*X291900Y194967D01*
X291555Y194622D02*Y192552D01*
X291900Y192207D01*
X292590Y193725D02*X292935Y193380D01*
X291555Y193725D02*X292590D01*
X291900Y192207D02*X292590D01*
X292935Y192552D01*
Y193380D02*Y192552D01*
X293763Y193242D02*X295143Y194967D01*
X293763Y193242D02*X295488D01*
X295143Y194967D02*Y192207D01*
X276397Y216909D02*X277197D01*
Y213409D01*
X276697Y212909D02*X277197Y213409D01*
X276197Y212909D02*X276697D01*
X275697Y213409D02*X276197Y212909D01*
X275697Y213909D02*Y213409D01*
X278397Y216409D02*X278897Y216909D01*
X279897D01*
X280397Y216409D01*
X279897Y212909D02*X280397Y213409D01*
X278897Y212909D02*X279897D01*
X278397Y213409D02*X278897Y212909D01*
Y215109D02*X279897D01*
X280397Y216409D02*Y215609D01*
Y214609D02*Y213409D01*
Y214609D02*X279897Y215109D01*
X280397Y215609D02*X279897Y215109D01*
X272591Y238275D02*X273971D01*
X274316Y237930D01*
Y237240D01*
X273971Y236895D02*X274316Y237240D01*
X272936Y236895D02*X273971D01*
X272936Y238275D02*Y235515D01*
X273488Y236895D02*X274316Y235515D01*
X275144Y237723D02*X275696Y238275D01*
Y235515D01*
X275144D02*X276179D01*
X277007Y237930D02*X277352Y238275D01*
X278387D01*
X278732Y237930D01*
Y237240D01*
X277007Y235515D02*X278732Y237240D01*
X277007Y235515D02*X278732D01*
X279560Y237723D02*X280112Y238275D01*
Y235515D01*
X279560D02*X280595D01*
X313107Y192207D02*X314004D01*
X312624Y192690D02*X313107Y192207D01*
X312624Y194484D02*Y192690D01*
Y194484D02*X313107Y194967D01*
X314004D01*
X314832Y192552D02*X315177Y192207D01*
X314832Y193104D02*Y192552D01*
Y193104D02*X315315Y193587D01*
X315729D01*
X316212Y193104D01*
Y192552D01*
X315867Y192207D02*X316212Y192552D01*
X315177Y192207D02*X315867D01*
X314832Y194070D02*X315315Y193587D01*
X314832Y194622D02*Y194070D01*
Y194622D02*X315177Y194967D01*
X315867D01*
X316212Y194622D01*
Y194070D01*
X315729Y193587D02*X316212Y194070D01*
X317040Y194967D02*X318420D01*
X317040D02*Y193587D01*
X317385Y193932D01*
X318075D01*
X318420Y193587D01*
Y192552D01*
X318075Y192207D02*X318420Y192552D01*
X317385Y192207D02*X318075D01*
X317040Y192552D02*X317385Y192207D01*
X314492Y263961D02*X316992Y267961D01*
X314492D02*X316992Y263961D01*
X318192Y267161D02*X318992Y267961D01*
Y263961D01*
X318192D02*X319692D01*
X300813Y195299D02*X302193D01*
X302538Y194954D01*
Y194264D01*
X302193Y193919D02*X302538Y194264D01*
X301158Y193919D02*X302193D01*
X301158Y195299D02*Y192539D01*
X301710Y193919D02*X302538Y192539D01*
X304401Y195299D02*X304746Y194954D01*
X303711Y195299D02*X304401D01*
X303366Y194954D02*X303711Y195299D01*
X303366Y194954D02*Y192884D01*
X303711Y192539D01*
X304401Y194057D02*X304746Y193712D01*
X303366Y194057D02*X304401D01*
X303711Y192539D02*X304401D01*
X304746Y192884D01*
Y193712D02*Y192884D01*
X305574Y195299D02*X306954D01*
X305574D02*Y193919D01*
X305919Y194264D01*
X306609D01*
X306954Y193919D01*
Y192884D01*
X306609Y192539D02*X306954Y192884D01*
X305919Y192539D02*X306609D01*
X305574Y192884D02*X305919Y192539D01*
X304243Y171583D02*X305043D01*
Y168083D01*
X304543Y167583D02*X305043Y168083D01*
X304043Y167583D02*X304543D01*
X303543Y168083D02*X304043Y167583D01*
X303543Y168583D02*Y168083D01*
X306743Y167583D02*X308743Y171583D01*
X306243D02*X308743D01*
X198819Y384102D02*Y380602D01*
X199319Y380102D01*
X200319D01*
X200819Y380602D01*
Y384102D02*Y380602D01*
X202019Y383302D02*X202819Y384102D01*
Y380102D01*
X202019D02*X203519D01*
X204719Y384102D02*X206719D01*
X204719D02*Y382102D01*
X205219Y382602D01*
X206219D01*
X206719Y382102D01*
Y380602D01*
X206219Y380102D02*X206719Y380602D01*
X205219Y380102D02*X206219D01*
X204719Y380602D02*X205219Y380102D01*
X196850Y340795D02*Y337295D01*
X197350Y336795D01*
X198350D01*
X198850Y337295D01*
Y340795D02*Y337295D01*
X200050Y339995D02*X200850Y340795D01*
Y336795D01*
X200050D02*X201550D01*
X202750Y338295D02*X204750Y340795D01*
X202750Y338295D02*X205250D01*
X204750Y340795D02*Y336795D01*
X228461Y347719D02*X229358D01*
X227978Y348202D02*X228461Y347719D01*
X227978Y349996D02*Y348202D01*
Y349996D02*X228461Y350479D01*
X229358D01*
X230531Y347719D02*X231911Y350479D01*
X230186D02*X231911D01*
X233774D02*X234119Y350134D01*
X233084Y350479D02*X233774D01*
X232739Y350134D02*X233084Y350479D01*
X232739Y350134D02*Y348064D01*
X233084Y347719D01*
X233774Y349237D02*X234119Y348892D01*
X232739Y349237D02*X233774D01*
X233084Y347719D02*X233774D01*
X234119Y348064D01*
Y348892D02*Y348064D01*
X228461Y373310D02*X229358D01*
X227978Y373793D02*X228461Y373310D01*
X227978Y375587D02*Y373793D01*
Y375587D02*X228461Y376070D01*
X229358D01*
X230531Y373310D02*X231911Y376070D01*
X230186D02*X231911D01*
X233084Y373310D02*X234119Y374690D01*
Y375725D02*Y374690D01*
X233774Y376070D02*X234119Y375725D01*
X233084Y376070D02*X233774D01*
X232739Y375725D02*X233084Y376070D01*
X232739Y375725D02*Y375035D01*
X233084Y374690D01*
X234119D01*
X228461Y392995D02*X229358D01*
X227978Y393478D02*X228461Y392995D01*
X227978Y395272D02*Y393478D01*
Y395272D02*X228461Y395755D01*
X229358D01*
X230531Y392995D02*X231911Y395755D01*
X230186D02*X231911D01*
X232739Y393340D02*X233084Y392995D01*
X232739Y393892D02*Y393340D01*
Y393892D02*X233222Y394375D01*
X233636D01*
X234119Y393892D01*
Y393340D01*
X233774Y392995D02*X234119Y393340D01*
X233084Y392995D02*X233774D01*
X232739Y394858D02*X233222Y394375D01*
X232739Y395410D02*Y394858D01*
Y395410D02*X233084Y395755D01*
X233774D01*
X234119Y395410D01*
Y394858D01*
X233636Y394375D02*X234119Y394858D01*
X32089Y421932D02*X32986D01*
X31606Y422415D02*X32089Y421932D01*
X31606Y424209D02*Y422415D01*
Y424209D02*X32089Y424692D01*
X32986D01*
X34159Y421932D02*X35539Y424692D01*
X33814D02*X35539D01*
X36367Y422967D02*X37747Y424692D01*
X36367Y422967D02*X38092D01*
X37747Y424692D02*Y421932D01*
X30496Y343295D02*X32496D01*
X32996Y342795D01*
Y341795D01*
X32496Y341295D02*X32996Y341795D01*
X30996Y341295D02*X32496D01*
X30996Y343295D02*Y339295D01*
X31796Y341295D02*X32996Y339295D01*
X34196Y339795D02*X34696Y339295D01*
X34196Y340595D02*Y339795D01*
Y340595D02*X34896Y341295D01*
X35496D01*
X36196Y340595D01*
Y339795D01*
X35696Y339295D02*X36196Y339795D01*
X34696Y339295D02*X35696D01*
X34196Y341995D02*X34896Y341295D01*
X34196Y342795D02*Y341995D01*
Y342795D02*X34696Y343295D01*
X35696D01*
X36196Y342795D01*
Y341995D01*
X35496Y341295D02*X36196Y341995D01*
X37396Y339795D02*X37896Y339295D01*
X37396Y342795D02*Y339795D01*
Y342795D02*X37896Y343295D01*
X38896D01*
X39396Y342795D01*
Y339795D01*
X38896Y339295D02*X39396Y339795D01*
X37896Y339295D02*X38896D01*
X37396Y340295D02*X39396Y342295D01*
X20177Y386858D02*Y383358D01*
X20677Y382858D01*
X21677D01*
X22177Y383358D01*
Y386858D02*Y383358D01*
X23377Y386058D02*X24177Y386858D01*
Y382858D01*
X23377D02*X24877D01*
X26077Y386358D02*X26577Y386858D01*
X28077D01*
X28577Y386358D01*
Y385358D01*
X26077Y382858D02*X28577Y385358D01*
X26077Y382858D02*X28577D01*
X296876Y389849D02*X298256D01*
X298601Y389504D01*
Y388814D01*
X298256Y388469D02*X298601Y388814D01*
X297221Y388469D02*X298256D01*
X297221Y389849D02*Y387089D01*
X297773Y388469D02*X298601Y387089D01*
X300464Y389849D02*X300809Y389504D01*
X299774Y389849D02*X300464D01*
X299429Y389504D02*X299774Y389849D01*
X299429Y389504D02*Y387434D01*
X299774Y387089D01*
X300464Y388607D02*X300809Y388262D01*
X299429Y388607D02*X300464D01*
X299774Y387089D02*X300464D01*
X300809Y387434D01*
Y388262D02*Y387434D01*
X301637D02*X301982Y387089D01*
X301637Y389504D02*Y387434D01*
Y389504D02*X301982Y389849D01*
X302672D01*
X303017Y389504D01*
Y387434D01*
X302672Y387089D02*X303017Y387434D01*
X301982Y387089D02*X302672D01*
X301637Y387779D02*X303017Y389159D01*
X296876Y364259D02*X298256D01*
X298601Y363914D01*
Y363224D01*
X298256Y362879D02*X298601Y363224D01*
X297221Y362879D02*X298256D01*
X297221Y364259D02*Y361499D01*
X297773Y362879D02*X298601Y361499D01*
X300464Y364259D02*X300809Y363914D01*
X299774Y364259D02*X300464D01*
X299429Y363914D02*X299774Y364259D01*
X299429Y363914D02*Y361844D01*
X299774Y361499D01*
X300464Y363017D02*X300809Y362672D01*
X299429Y363017D02*X300464D01*
X299774Y361499D02*X300464D01*
X300809Y361844D01*
Y362672D02*Y361844D01*
X301982Y361499D02*X303017Y362879D01*
Y363914D02*Y362879D01*
X302672Y364259D02*X303017Y363914D01*
X301982Y364259D02*X302672D01*
X301637Y363914D02*X301982Y364259D01*
X301637Y363914D02*Y363224D01*
X301982Y362879D01*
X303017D01*
X296876Y350479D02*X298256D01*
X298601Y350134D01*
Y349444D01*
X298256Y349099D02*X298601Y349444D01*
X297221Y349099D02*X298256D01*
X297221Y350479D02*Y347719D01*
X297773Y349099D02*X298601Y347719D01*
X300464Y350479D02*X300809Y350134D01*
X299774Y350479D02*X300464D01*
X299429Y350134D02*X299774Y350479D01*
X299429Y350134D02*Y348064D01*
X299774Y347719D01*
X300464Y349237D02*X300809Y348892D01*
X299429Y349237D02*X300464D01*
X299774Y347719D02*X300464D01*
X300809Y348064D01*
Y348892D02*Y348064D01*
X301637Y350134D02*X301982Y350479D01*
X302672D01*
X303017Y350134D01*
X302672Y347719D02*X303017Y348064D01*
X301982Y347719D02*X302672D01*
X301637Y348064D02*X301982Y347719D01*
Y349237D02*X302672D01*
X303017Y350134D02*Y349582D01*
Y348892D02*Y348064D01*
Y348892D02*X302672Y349237D01*
X303017Y349582D02*X302672Y349237D01*
X296876Y403629D02*X298256D01*
X298601Y403284D01*
Y402594D01*
X298256Y402249D02*X298601Y402594D01*
X297221Y402249D02*X298256D01*
X297221Y403629D02*Y400869D01*
X297773Y402249D02*X298601Y400869D01*
X299429Y403629D02*X300809D01*
X299429D02*Y402249D01*
X299774Y402594D01*
X300464D01*
X300809Y402249D01*
Y401214D01*
X300464Y400869D02*X300809Y401214D01*
X299774Y400869D02*X300464D01*
X299429Y401214D02*X299774Y400869D01*
X301982D02*X303362Y403629D01*
X301637D02*X303362D01*
X261443D02*X262823D01*
X263168Y403284D01*
Y402594D01*
X262823Y402249D02*X263168Y402594D01*
X261788Y402249D02*X262823D01*
X261788Y403629D02*Y400869D01*
X262340Y402249D02*X263168Y400869D01*
X263996Y403629D02*X265376D01*
X263996D02*Y402249D01*
X264341Y402594D01*
X265031D01*
X265376Y402249D01*
Y401214D01*
X265031Y400869D02*X265376Y401214D01*
X264341Y400869D02*X265031D01*
X263996Y401214D02*X264341Y400869D01*
X266204Y403629D02*X267584D01*
X266204D02*Y402249D01*
X266549Y402594D01*
X267239D01*
X267584Y402249D01*
Y401214D01*
X267239Y400869D02*X267584Y401214D01*
X266549Y400869D02*X267239D01*
X266204Y401214D02*X266549Y400869D01*
X261111Y389849D02*X262491D01*
X262836Y389504D01*
Y388814D01*
X262491Y388469D02*X262836Y388814D01*
X261456Y388469D02*X262491D01*
X261456Y389849D02*Y387089D01*
X262008Y388469D02*X262836Y387089D01*
X263664Y389849D02*X265044D01*
X263664D02*Y388469D01*
X264009Y388814D01*
X264699D01*
X265044Y388469D01*
Y387434D01*
X264699Y387089D02*X265044Y387434D01*
X264009Y387089D02*X264699D01*
X263664Y387434D02*X264009Y387089D01*
X265872Y387434D02*X266217Y387089D01*
X265872Y387986D02*Y387434D01*
Y387986D02*X266355Y388469D01*
X266769D01*
X267252Y387986D01*
Y387434D01*
X266907Y387089D02*X267252Y387434D01*
X266217Y387089D02*X266907D01*
X265872Y388952D02*X266355Y388469D01*
X265872Y389504D02*Y388952D01*
Y389504D02*X266217Y389849D01*
X266907D01*
X267252Y389504D01*
Y388952D01*
X266769Y388469D02*X267252Y388952D01*
X261443Y376070D02*X262823D01*
X263168Y375725D01*
Y375035D01*
X262823Y374690D02*X263168Y375035D01*
X261788Y374690D02*X262823D01*
X261788Y376070D02*Y373310D01*
X262340Y374690D02*X263168Y373310D01*
X264341D02*X265721Y376070D01*
X263996D02*X265721D01*
X266549Y373655D02*X266894Y373310D01*
X266549Y375725D02*Y373655D01*
Y375725D02*X266894Y376070D01*
X267584D01*
X267929Y375725D01*
Y373655D01*
X267584Y373310D02*X267929Y373655D01*
X266894Y373310D02*X267584D01*
X266549Y374000D02*X267929Y375380D01*
X261443Y364259D02*X262823D01*
X263168Y363914D01*
Y363224D01*
X262823Y362879D02*X263168Y363224D01*
X261788Y362879D02*X262823D01*
X261788Y364259D02*Y361499D01*
X262340Y362879D02*X263168Y361499D01*
X265031Y364259D02*X265376Y363914D01*
X264341Y364259D02*X265031D01*
X263996Y363914D02*X264341Y364259D01*
X263996Y363914D02*Y361844D01*
X264341Y361499D01*
X265031Y363017D02*X265376Y362672D01*
X263996Y363017D02*X265031D01*
X264341Y361499D02*X265031D01*
X265376Y361844D01*
Y362672D02*Y361844D01*
X266549Y361499D02*X267929Y364259D01*
X266204D02*X267929D01*
X261443Y350479D02*X262823D01*
X263168Y350134D01*
Y349444D01*
X262823Y349099D02*X263168Y349444D01*
X261788Y349099D02*X262823D01*
X261788Y350479D02*Y347719D01*
X262340Y349099D02*X263168Y347719D01*
X265031Y350479D02*X265376Y350134D01*
X264341Y350479D02*X265031D01*
X263996Y350134D02*X264341Y350479D01*
X263996Y350134D02*Y348064D01*
X264341Y347719D01*
X265031Y349237D02*X265376Y348892D01*
X263996Y349237D02*X265031D01*
X264341Y347719D02*X265031D01*
X265376Y348064D01*
Y348892D02*Y348064D01*
X266204Y349927D02*X266756Y350479D01*
Y347719D01*
X266204D02*X267239D01*
X285548Y387089D02*X286445D01*
X285065Y387572D02*X285548Y387089D01*
X285065Y389366D02*Y387572D01*
Y389366D02*X285548Y389849D01*
X286445D01*
X287273Y387434D02*X287618Y387089D01*
X287273Y387986D02*Y387434D01*
Y387986D02*X287756Y388469D01*
X288170D01*
X288653Y387986D01*
Y387434D01*
X288308Y387089D02*X288653Y387434D01*
X287618Y387089D02*X288308D01*
X287273Y388952D02*X287756Y388469D01*
X287273Y389504D02*Y388952D01*
Y389504D02*X287618Y389849D01*
X288308D01*
X288653Y389504D01*
Y388952D01*
X288170Y388469D02*X288653Y388952D01*
X289481Y389504D02*X289826Y389849D01*
X290516D01*
X290861Y389504D01*
X290516Y387089D02*X290861Y387434D01*
X289826Y387089D02*X290516D01*
X289481Y387434D02*X289826Y387089D01*
Y388607D02*X290516D01*
X290861Y389504D02*Y388952D01*
Y388262D02*Y387434D01*
Y388262D02*X290516Y388607D01*
X290861Y388952D02*X290516Y388607D01*
X285548Y361499D02*X286445D01*
X285065Y361982D02*X285548Y361499D01*
X285065Y363776D02*Y361982D01*
Y363776D02*X285548Y364259D01*
X286445D01*
X287273Y361844D02*X287618Y361499D01*
X287273Y362396D02*Y361844D01*
Y362396D02*X287756Y362879D01*
X288170D01*
X288653Y362396D01*
Y361844D01*
X288308Y361499D02*X288653Y361844D01*
X287618Y361499D02*X288308D01*
X287273Y363362D02*X287756Y362879D01*
X287273Y363914D02*Y363362D01*
Y363914D02*X287618Y364259D01*
X288308D01*
X288653Y363914D01*
Y363362D01*
X288170Y362879D02*X288653Y363362D01*
X290516Y364259D02*X290861Y363914D01*
X289826Y364259D02*X290516D01*
X289481Y363914D02*X289826Y364259D01*
X289481Y363914D02*Y361844D01*
X289826Y361499D01*
X290516Y363017D02*X290861Y362672D01*
X289481Y363017D02*X290516D01*
X289826Y361499D02*X290516D01*
X290861Y361844D01*
Y362672D02*Y361844D01*
X285216Y347719D02*X286113D01*
X284733Y348202D02*X285216Y347719D01*
X284733Y349996D02*Y348202D01*
Y349996D02*X285216Y350479D01*
X286113D01*
X286941Y348064D02*X287286Y347719D01*
X286941Y348616D02*Y348064D01*
Y348616D02*X287424Y349099D01*
X287838D01*
X288321Y348616D01*
Y348064D01*
X287976Y347719D02*X288321Y348064D01*
X287286Y347719D02*X287976D01*
X286941Y349582D02*X287424Y349099D01*
X286941Y350134D02*Y349582D01*
Y350134D02*X287286Y350479D01*
X287976D01*
X288321Y350134D01*
Y349582D01*
X287838Y349099D02*X288321Y349582D01*
X289149Y348754D02*X290529Y350479D01*
X289149Y348754D02*X290874D01*
X290529Y350479D02*Y347719D01*
X285548Y400869D02*X286445D01*
X285065Y401352D02*X285548Y400869D01*
X285065Y403146D02*Y401352D01*
Y403146D02*X285548Y403629D01*
X286445D01*
X287273Y401214D02*X287618Y400869D01*
X287273Y401766D02*Y401214D01*
Y401766D02*X287756Y402249D01*
X288170D01*
X288653Y401766D01*
Y401214D01*
X288308Y400869D02*X288653Y401214D01*
X287618Y400869D02*X288308D01*
X287273Y402732D02*X287756Y402249D01*
X287273Y403284D02*Y402732D01*
Y403284D02*X287618Y403629D01*
X288308D01*
X288653Y403284D01*
Y402732D01*
X288170Y402249D02*X288653Y402732D01*
X289481Y403284D02*X289826Y403629D01*
X290861D01*
X291206Y403284D01*
Y402594D01*
X289481Y400869D02*X291206Y402594D01*
X289481Y400869D02*X291206D01*
X273254Y389849D02*X274634D01*
X274979Y389504D01*
Y388814D01*
X274634Y388469D02*X274979Y388814D01*
X273599Y388469D02*X274634D01*
X273599Y389849D02*Y387089D01*
X274151Y388469D02*X274979Y387089D01*
X275807Y389849D02*X277187D01*
X275807D02*Y388469D01*
X276152Y388814D01*
X276842D01*
X277187Y388469D01*
Y387434D01*
X276842Y387089D02*X277187Y387434D01*
X276152Y387089D02*X276842D01*
X275807Y387434D02*X276152Y387089D01*
X278360D02*X279395Y388469D01*
Y389504D02*Y388469D01*
X279050Y389849D02*X279395Y389504D01*
X278360Y389849D02*X279050D01*
X278015Y389504D02*X278360Y389849D01*
X278015Y389504D02*Y388814D01*
X278360Y388469D01*
X279395D01*
X273254Y364259D02*X274634D01*
X274979Y363914D01*
Y363224D01*
X274634Y362879D02*X274979Y363224D01*
X273599Y362879D02*X274634D01*
X273599Y364259D02*Y361499D01*
X274151Y362879D02*X274979Y361499D01*
X276842Y364259D02*X277187Y363914D01*
X276152Y364259D02*X276842D01*
X275807Y363914D02*X276152Y364259D01*
X275807Y363914D02*Y361844D01*
X276152Y361499D01*
X276842Y363017D02*X277187Y362672D01*
X275807Y363017D02*X276842D01*
X276152Y361499D02*X276842D01*
X277187Y361844D01*
Y362672D02*Y361844D01*
X278015D02*X278360Y361499D01*
X278015Y362396D02*Y361844D01*
Y362396D02*X278498Y362879D01*
X278912D01*
X279395Y362396D01*
Y361844D01*
X279050Y361499D02*X279395Y361844D01*
X278360Y361499D02*X279050D01*
X278015Y363362D02*X278498Y362879D01*
X278015Y363914D02*Y363362D01*
Y363914D02*X278360Y364259D01*
X279050D01*
X279395Y363914D01*
Y363362D01*
X278912Y362879D02*X279395Y363362D01*
X273254Y350479D02*X274634D01*
X274979Y350134D01*
Y349444D01*
X274634Y349099D02*X274979Y349444D01*
X273599Y349099D02*X274634D01*
X273599Y350479D02*Y347719D01*
X274151Y349099D02*X274979Y347719D01*
X276842Y350479D02*X277187Y350134D01*
X276152Y350479D02*X276842D01*
X275807Y350134D02*X276152Y350479D01*
X275807Y350134D02*Y348064D01*
X276152Y347719D01*
X276842Y349237D02*X277187Y348892D01*
X275807Y349237D02*X276842D01*
X276152Y347719D02*X276842D01*
X277187Y348064D01*
Y348892D02*Y348064D01*
X278015Y350134D02*X278360Y350479D01*
X279395D01*
X279740Y350134D01*
Y349444D01*
X278015Y347719D02*X279740Y349444D01*
X278015Y347719D02*X279740D01*
X273254Y403629D02*X274634D01*
X274979Y403284D01*
Y402594D01*
X274634Y402249D02*X274979Y402594D01*
X273599Y402249D02*X274634D01*
X273599Y403629D02*Y400869D01*
X274151Y402249D02*X274979Y400869D01*
X275807Y403629D02*X277187D01*
X275807D02*Y402249D01*
X276152Y402594D01*
X276842D01*
X277187Y402249D01*
Y401214D01*
X276842Y400869D02*X277187Y401214D01*
X276152Y400869D02*X276842D01*
X275807Y401214D02*X276152Y400869D01*
X279050Y403629D02*X279395Y403284D01*
X278360Y403629D02*X279050D01*
X278015Y403284D02*X278360Y403629D01*
X278015Y403284D02*Y401214D01*
X278360Y400869D01*
X279050Y402387D02*X279395Y402042D01*
X278015Y402387D02*X279050D01*
X278360Y400869D02*X279050D01*
X279395Y401214D01*
Y402042D02*Y401214D01*
X296876Y376070D02*X298256D01*
X298601Y375725D01*
Y375035D01*
X298256Y374690D02*X298601Y375035D01*
X297221Y374690D02*X298256D01*
X297221Y376070D02*Y373310D01*
X297773Y374690D02*X298601Y373310D01*
X299774D02*X301154Y376070D01*
X299429D02*X301154D01*
X301982Y375725D02*X302327Y376070D01*
X303362D01*
X303707Y375725D01*
Y375035D01*
X301982Y373310D02*X303707Y375035D01*
X301982Y373310D02*X303707D01*
X285548D02*X286445D01*
X285065Y373793D02*X285548Y373310D01*
X285065Y375587D02*Y373793D01*
Y375587D02*X285548Y376070D01*
X286445D01*
X287273Y373655D02*X287618Y373310D01*
X287273Y374207D02*Y373655D01*
Y374207D02*X287756Y374690D01*
X288170D01*
X288653Y374207D01*
Y373655D01*
X288308Y373310D02*X288653Y373655D01*
X287618Y373310D02*X288308D01*
X287273Y375173D02*X287756Y374690D01*
X287273Y375725D02*Y375173D01*
Y375725D02*X287618Y376070D01*
X288308D01*
X288653Y375725D01*
Y375173D01*
X288170Y374690D02*X288653Y375173D01*
X289826Y373310D02*X291206Y376070D01*
X289481D02*X291206D01*
X273254D02*X274634D01*
X274979Y375725D01*
Y375035D01*
X274634Y374690D02*X274979Y375035D01*
X273599Y374690D02*X274634D01*
X273599Y376070D02*Y373310D01*
X274151Y374690D02*X274979Y373310D01*
X276152D02*X277532Y376070D01*
X275807D02*X277532D01*
X278360Y375518D02*X278912Y376070D01*
Y373310D01*
X278360D02*X279395D01*
X89681Y198113D02*X90578D01*
X89198Y198596D02*X89681Y198113D01*
X89198Y200390D02*Y198596D01*
Y200390D02*X89681Y200873D01*
X90578D01*
X91406D02*X92786D01*
X91406D02*Y199493D01*
X91751Y199838D01*
X92441D01*
X92786Y199493D01*
Y198458D01*
X92441Y198113D02*X92786Y198458D01*
X91751Y198113D02*X92441D01*
X91406Y198458D02*X91751Y198113D01*
X93614Y200528D02*X93959Y200873D01*
X94994D01*
X95339Y200528D01*
Y199838D01*
X93614Y198113D02*X95339Y199838D01*
X93614Y198113D02*X95339D01*
X141364Y216621D02*X142744D01*
X143089Y216276D01*
Y215586D01*
X142744Y215241D02*X143089Y215586D01*
X141709Y215241D02*X142744D01*
X141709Y216621D02*Y213861D01*
X142261Y215241D02*X143089Y213861D01*
X143917Y216069D02*X144469Y216621D01*
Y213861D01*
X143917D02*X144952D01*
X145780Y216069D02*X146332Y216621D01*
Y213861D01*
X145780D02*X146815D01*
X147643Y214206D02*X147988Y213861D01*
X147643Y216276D02*Y214206D01*
Y216276D02*X147988Y216621D01*
X148678D01*
X149023Y216276D01*
Y214206D01*
X148678Y213861D02*X149023Y214206D01*
X147988Y213861D02*X148678D01*
X147643Y214551D02*X149023Y215931D01*
X157112Y204810D02*X158492D01*
X158837Y204465D01*
Y203775D01*
X158492Y203430D02*X158837Y203775D01*
X157457Y203430D02*X158492D01*
X157457Y204810D02*Y202050D01*
X158009Y203430D02*X158837Y202050D01*
X159665Y204258D02*X160217Y204810D01*
Y202050D01*
X159665D02*X160700D01*
X161528Y202395D02*X161873Y202050D01*
X161528Y204465D02*Y202395D01*
Y204465D02*X161873Y204810D01*
X162563D01*
X162908Y204465D01*
Y202395D01*
X162563Y202050D02*X162908Y202395D01*
X161873Y202050D02*X162563D01*
X161528Y202740D02*X162908Y204120D01*
X164081Y202050D02*X165116Y203430D01*
Y204465D02*Y203430D01*
X164771Y204810D02*X165116Y204465D01*
X164081Y204810D02*X164771D01*
X163736Y204465D02*X164081Y204810D01*
X163736Y204465D02*Y203775D01*
X164081Y203430D01*
X165116D01*
X158952Y223819D02*X160252D01*
X158252Y224519D02*X158952Y223819D01*
X158252Y227119D02*Y224519D01*
Y227119D02*X158952Y227819D01*
X160252D01*
X161452D02*X163452D01*
X161452D02*Y225819D01*
X161952Y226319D01*
X162952D01*
X163452Y225819D01*
Y224319D01*
X162952Y223819D02*X163452Y224319D01*
X161952Y223819D02*X162952D01*
X161452Y224319D02*X161952Y223819D01*
X164652Y225319D02*X166652Y227819D01*
X164652Y225319D02*X167152D01*
X166652Y227819D02*Y223819D01*
X139480Y198016D02*X140780D01*
X138780Y198716D02*X139480Y198016D01*
X138780Y201316D02*Y198716D01*
Y201316D02*X139480Y202016D01*
X140780D01*
X141980D02*X143980D01*
X141980D02*Y200016D01*
X142480Y200516D01*
X143480D01*
X143980Y200016D01*
Y198516D01*
X143480Y198016D02*X143980Y198516D01*
X142480Y198016D02*X143480D01*
X141980Y198516D02*X142480Y198016D01*
X145180Y201516D02*X145680Y202016D01*
X146680D01*
X147180Y201516D01*
X146680Y198016D02*X147180Y198516D01*
X145680Y198016D02*X146680D01*
X145180Y198516D02*X145680Y198016D01*
Y200216D02*X146680D01*
X147180Y201516D02*Y200716D01*
Y199716D02*Y198516D01*
Y199716D02*X146680Y200216D01*
X147180Y200716D02*X146680Y200216D01*
X91051Y192235D02*Y188235D01*
X92351Y192235D02*X93051Y191535D01*
Y188935D01*
X92351Y188235D02*X93051Y188935D01*
X90551Y188235D02*X92351D01*
X90551Y192235D02*X92351D01*
X94251Y191435D02*X95051Y192235D01*
Y188235D01*
X94251D02*X95751D01*
X96951Y188735D02*X97451Y188235D01*
X96951Y191735D02*Y188735D01*
Y191735D02*X97451Y192235D01*
X98451D01*
X98951Y191735D01*
Y188735D01*
X98451Y188235D02*X98951Y188735D01*
X97451Y188235D02*X98451D01*
X96951Y189235D02*X98951Y191235D01*
X613173Y67705D02*X615173D01*
X615673Y67205D01*
Y66205D01*
X615173Y65705D02*X615673Y66205D01*
X613673Y65705D02*X615173D01*
X613673Y67705D02*Y63705D01*
X614473Y65705D02*X615673Y63705D01*
X617373D02*X619373Y67705D01*
X616873D02*X619373D01*
X620573Y65205D02*X622573Y67705D01*
X620573Y65205D02*X623073D01*
X622573Y67705D02*Y63705D01*
X615375Y142774D02*Y141877D01*
X614892Y141394D02*X615375Y141877D01*
X613098Y141394D02*X614892D01*
X613098D02*X612615Y141877D01*
Y142774D02*Y141877D01*
X615375Y143947D02*X612615Y145327D01*
Y143602D01*
X612960Y146155D02*X612615Y146500D01*
Y147535D02*Y146500D01*
Y147535D02*X612960Y147880D01*
X613650D01*
X615375Y146155D02*X613650Y147880D01*
X615375D02*Y146155D01*
X602854Y111268D02*Y107768D01*
X603354Y107268D01*
X604354D01*
X604854Y107768D01*
Y111268D02*Y107768D01*
X606054Y110468D02*X606854Y111268D01*
Y107268D01*
X606054D02*X607554D01*
X608754Y107768D02*X609254Y107268D01*
X608754Y110768D02*Y107768D01*
Y110768D02*X609254Y111268D01*
X610254D01*
X610754Y110768D01*
Y107768D01*
X610254Y107268D02*X610754Y107768D01*
X609254Y107268D02*X610254D01*
X608754Y108268D02*X610754Y110268D01*
X403929Y156267D02*X405309D01*
X405654Y155922D01*
Y155232D01*
X405309Y154887D02*X405654Y155232D01*
X404274Y154887D02*X405309D01*
X404274Y156267D02*Y153507D01*
X404826Y154887D02*X405654Y153507D01*
X406482Y155715D02*X407034Y156267D01*
Y153507D01*
X406482D02*X407517D01*
X408345Y153852D02*X408690Y153507D01*
X408345Y155922D02*Y153852D01*
Y155922D02*X408690Y156267D01*
X409380D01*
X409725Y155922D01*
Y153852D01*
X409380Y153507D02*X409725Y153852D01*
X408690Y153507D02*X409380D01*
X408345Y154197D02*X409725Y155577D01*
X410553Y153852D02*X410898Y153507D01*
X410553Y154404D02*Y153852D01*
Y154404D02*X411036Y154887D01*
X411450D01*
X411933Y154404D01*
Y153852D01*
X411588Y153507D02*X411933Y153852D01*
X410898Y153507D02*X411588D01*
X410553Y155370D02*X411036Y154887D01*
X410553Y155922D02*Y155370D01*
Y155922D02*X410898Y156267D01*
X411588D01*
X411933Y155922D01*
Y155370D01*
X411450Y154887D02*X411933Y155370D01*
X399570Y141341D02*X400467D01*
X399087Y141824D02*X399570Y141341D01*
X399087Y143618D02*Y141824D01*
Y143618D02*X399570Y144101D01*
X400467D01*
X401295Y143549D02*X401847Y144101D01*
Y141341D01*
X401295D02*X402330D01*
X403158Y141686D02*X403503Y141341D01*
X403158Y143756D02*Y141686D01*
Y143756D02*X403503Y144101D01*
X404193D01*
X404538Y143756D01*
Y141686D01*
X404193Y141341D02*X404538Y141686D01*
X403503Y141341D02*X404193D01*
X403158Y142031D02*X404538Y143411D01*
X405366Y143756D02*X405711Y144101D01*
X406746D01*
X407091Y143756D01*
Y143066D01*
X405366Y141341D02*X407091Y143066D01*
X405366Y141341D02*X407091D01*
X411735Y130003D02*X412632D01*
X411252Y130486D02*X411735Y130003D01*
X411252Y132280D02*Y130486D01*
Y132280D02*X411735Y132763D01*
X412632D01*
X413460Y132211D02*X414012Y132763D01*
Y130003D01*
X413460D02*X414495D01*
X415323Y130348D02*X415668Y130003D01*
X415323Y132418D02*Y130348D01*
Y132418D02*X415668Y132763D01*
X416358D01*
X416703Y132418D01*
Y130348D01*
X416358Y130003D02*X416703Y130348D01*
X415668Y130003D02*X416358D01*
X415323Y130693D02*X416703Y132073D01*
X417531Y132211D02*X418083Y132763D01*
Y130003D01*
X417531D02*X418566D01*
X399097Y167168D02*X399994D01*
X398614Y167651D02*X399097Y167168D01*
X398614Y169445D02*Y167651D01*
Y169445D02*X399097Y169928D01*
X399994D01*
X400822Y169376D02*X401374Y169928D01*
Y167168D01*
X400822D02*X401857D01*
X402685Y167513D02*X403030Y167168D01*
X402685Y169583D02*Y167513D01*
Y169583D02*X403030Y169928D01*
X403720D01*
X404065Y169583D01*
Y167513D01*
X403720Y167168D02*X404065Y167513D01*
X403030Y167168D02*X403720D01*
X402685Y167858D02*X404065Y169238D01*
X404893Y169583D02*X405238Y169928D01*
X405928D01*
X406273Y169583D01*
X405928Y167168D02*X406273Y167513D01*
X405238Y167168D02*X405928D01*
X404893Y167513D02*X405238Y167168D01*
Y168686D02*X405928D01*
X406273Y169583D02*Y169031D01*
Y168341D02*Y167513D01*
Y168341D02*X405928Y168686D01*
X406273Y169031D02*X405928Y168686D01*
X441768Y166814D02*X442665D01*
X441285Y167297D02*X441768Y166814D01*
X441285Y169091D02*Y167297D01*
Y169091D02*X441768Y169574D01*
X442665D01*
X443838Y166814D02*X444873Y168194D01*
Y169229D02*Y168194D01*
X444528Y169574D02*X444873Y169229D01*
X443838Y169574D02*X444528D01*
X443493Y169229D02*X443838Y169574D01*
X443493Y169229D02*Y168539D01*
X443838Y168194D01*
X444873D01*
X446046Y166814D02*X447081Y168194D01*
Y169229D02*Y168194D01*
X446736Y169574D02*X447081Y169229D01*
X446046Y169574D02*X446736D01*
X445701Y169229D02*X446046Y169574D01*
X445701Y169229D02*Y168539D01*
X446046Y168194D01*
X447081D01*
X492170Y166133D02*X492937D01*
X491757Y166546D02*X492170Y166133D01*
X491757Y168080D02*Y166546D01*
Y168080D02*X492170Y168493D01*
X492937D01*
X493940Y166133D02*X494825Y167313D01*
Y168198D02*Y167313D01*
X494530Y168493D02*X494825Y168198D01*
X493940Y168493D02*X494530D01*
X493645Y168198D02*X493940Y168493D01*
X493645Y168198D02*Y167608D01*
X493940Y167313D01*
X494825D01*
X495533Y168493D02*X496713D01*
X495533D02*Y167313D01*
X495828Y167608D01*
X496418D01*
X496713Y167313D01*
Y166428D01*
X496418Y166133D02*X496713Y166428D01*
X495828Y166133D02*X496418D01*
X495533Y166428D02*X495828Y166133D01*
X444435Y156109D02*X445815D01*
X446160Y155764D01*
Y155074D01*
X445815Y154729D02*X446160Y155074D01*
X444780Y154729D02*X445815D01*
X444780Y156109D02*Y153349D01*
X445332Y154729D02*X446160Y153349D01*
X446988Y155557D02*X447540Y156109D01*
Y153349D01*
X446988D02*X448023D01*
X448851Y153694D02*X449196Y153349D01*
X448851Y155764D02*Y153694D01*
Y155764D02*X449196Y156109D01*
X449886D01*
X450231Y155764D01*
Y153694D01*
X449886Y153349D02*X450231Y153694D01*
X449196Y153349D02*X449886D01*
X448851Y154039D02*X450231Y155419D01*
X451059Y155764D02*X451404Y156109D01*
X452439D01*
X452784Y155764D01*
Y155074D01*
X451059Y153349D02*X452784Y155074D01*
X451059Y153349D02*X452784D01*
X442562Y142168D02*X443459D01*
X442079Y142651D02*X442562Y142168D01*
X442079Y144445D02*Y142651D01*
Y144445D02*X442562Y144928D01*
X443459D01*
X444632Y142168D02*X445667Y143548D01*
Y144583D02*Y143548D01*
X445322Y144928D02*X445667Y144583D01*
X444632Y144928D02*X445322D01*
X444287Y144583D02*X444632Y144928D01*
X444287Y144583D02*Y143893D01*
X444632Y143548D01*
X445667D01*
X446495Y142513D02*X446840Y142168D01*
X446495Y143065D02*Y142513D01*
Y143065D02*X446978Y143548D01*
X447392D01*
X447875Y143065D01*
Y142513D01*
X447530Y142168D02*X447875Y142513D01*
X446840Y142168D02*X447530D01*
X446495Y144031D02*X446978Y143548D01*
X446495Y144583D02*Y144031D01*
Y144583D02*X446840Y144928D01*
X447530D01*
X447875Y144583D01*
Y144031D01*
X447392Y143548D02*X447875Y144031D01*
X431921Y158314D02*X433301D01*
X433646Y157969D01*
Y157279D01*
X433301Y156934D02*X433646Y157279D01*
X432266Y156934D02*X433301D01*
X432266Y158314D02*Y155554D01*
X432818Y156934D02*X433646Y155554D01*
X434474Y157762D02*X435026Y158314D01*
Y155554D01*
X434474D02*X435509D01*
X436337Y155899D02*X436682Y155554D01*
X436337Y157969D02*Y155899D01*
Y157969D02*X436682Y158314D01*
X437372D01*
X437717Y157969D01*
Y155899D01*
X437372Y155554D02*X437717Y155899D01*
X436682Y155554D02*X437372D01*
X436337Y156244D02*X437717Y157624D01*
X438545Y157762D02*X439097Y158314D01*
Y155554D01*
X438545D02*X439580D01*
X431252Y133944D02*X432632D01*
X432977Y133599D01*
Y132909D01*
X432632Y132564D02*X432977Y132909D01*
X431597Y132564D02*X432632D01*
X431597Y133944D02*Y131184D01*
X432149Y132564D02*X432977Y131184D01*
X433805Y133392D02*X434357Y133944D01*
Y131184D01*
X433805D02*X434840D01*
X435668Y131529D02*X436013Y131184D01*
X435668Y133599D02*Y131529D01*
Y133599D02*X436013Y133944D01*
X436703D01*
X437048Y133599D01*
Y131529D01*
X436703Y131184D02*X437048Y131529D01*
X436013Y131184D02*X436703D01*
X435668Y131874D02*X437048Y133254D01*
X437876Y131529D02*X438221Y131184D01*
X437876Y133599D02*Y131529D01*
Y133599D02*X438221Y133944D01*
X438911D01*
X439256Y133599D01*
Y131529D01*
X438911Y131184D02*X439256Y131529D01*
X438221Y131184D02*X438911D01*
X437876Y131874D02*X439256Y133254D01*
X459277Y119280D02*X460457D01*
X460752Y118985D01*
Y118395D01*
X460457Y118100D02*X460752Y118395D01*
X459572Y118100D02*X460457D01*
X459572Y119280D02*Y116920D01*
X460044Y118100D02*X460752Y116920D01*
X461755D02*X462640Y118100D01*
Y118985D02*Y118100D01*
X462345Y119280D02*X462640Y118985D01*
X461755Y119280D02*X462345D01*
X461460Y118985D02*X461755Y119280D01*
X461460Y118985D02*Y118395D01*
X461755Y118100D01*
X462640D01*
X463643Y116920D02*X464528Y118100D01*
Y118985D02*Y118100D01*
X464233Y119280D02*X464528Y118985D01*
X463643Y119280D02*X464233D01*
X463348Y118985D02*X463643Y119280D01*
X463348Y118985D02*Y118395D01*
X463643Y118100D01*
X464528D01*
X445661Y121227D02*X447041D01*
X447386Y120882D01*
Y120192D01*
X447041Y119847D02*X447386Y120192D01*
X446006Y119847D02*X447041D01*
X446006Y121227D02*Y118467D01*
X446558Y119847D02*X447386Y118467D01*
X448559D02*X449594Y119847D01*
Y120882D02*Y119847D01*
X449249Y121227D02*X449594Y120882D01*
X448559Y121227D02*X449249D01*
X448214Y120882D02*X448559Y121227D01*
X448214Y120882D02*Y120192D01*
X448559Y119847D01*
X449594D01*
X450422Y118812D02*X450767Y118467D01*
X450422Y119364D02*Y118812D01*
Y119364D02*X450905Y119847D01*
X451319D01*
X451802Y119364D01*
Y118812D01*
X451457Y118467D02*X451802Y118812D01*
X450767Y118467D02*X451457D01*
X450422Y120330D02*X450905Y119847D01*
X450422Y120882D02*Y120330D01*
Y120882D02*X450767Y121227D01*
X451457D01*
X451802Y120882D01*
Y120330D01*
X451319Y119847D02*X451802Y120330D01*
X404395Y121660D02*X405775D01*
X406120Y121315D01*
Y120625D01*
X405775Y120280D02*X406120Y120625D01*
X404740Y120280D02*X405775D01*
X404740Y121660D02*Y118900D01*
X405292Y120280D02*X406120Y118900D01*
X406948Y121108D02*X407500Y121660D01*
Y118900D01*
X406948D02*X407983D01*
X408811Y119245D02*X409156Y118900D01*
X408811Y121315D02*Y119245D01*
Y121315D02*X409156Y121660D01*
X409846D01*
X410191Y121315D01*
Y119245D01*
X409846Y118900D02*X410191Y119245D01*
X409156Y118900D02*X409846D01*
X408811Y119590D02*X410191Y120970D01*
X411019Y119935D02*X412399Y121660D01*
X411019Y119935D02*X412744D01*
X412399Y121660D02*Y118900D01*
X415458Y119574D02*X416838D01*
X417183Y119229D01*
Y118539D01*
X416838Y118194D02*X417183Y118539D01*
X415803Y118194D02*X416838D01*
X415803Y119574D02*Y116814D01*
X416355Y118194D02*X417183Y116814D01*
X418011Y119022D02*X418563Y119574D01*
Y116814D01*
X418011D02*X419046D01*
X419874Y117159D02*X420219Y116814D01*
X419874Y119229D02*Y117159D01*
Y119229D02*X420219Y119574D01*
X420909D01*
X421254Y119229D01*
Y117159D01*
X420909Y116814D02*X421254Y117159D01*
X420219Y116814D02*X420909D01*
X419874Y117504D02*X421254Y118884D01*
X422082Y119574D02*X423462D01*
X422082D02*Y118194D01*
X422427Y118539D01*
X423117D01*
X423462Y118194D01*
Y117159D01*
X423117Y116814D02*X423462Y117159D01*
X422427Y116814D02*X423117D01*
X422082Y117159D02*X422427Y116814D01*
X495694Y120264D02*X496874D01*
X497169Y119969D01*
Y119379D01*
X496874Y119084D02*X497169Y119379D01*
X495989Y119084D02*X496874D01*
X495989Y120264D02*Y117904D01*
X496461Y119084D02*X497169Y117904D01*
X498172D02*X499057Y119084D01*
Y119969D02*Y119084D01*
X498762Y120264D02*X499057Y119969D01*
X498172Y120264D02*X498762D01*
X497877Y119969D02*X498172Y120264D01*
X497877Y119969D02*Y119379D01*
X498172Y119084D01*
X499057D01*
X499765Y119969D02*X500060Y120264D01*
X500945D01*
X501240Y119969D01*
Y119379D01*
X499765Y117904D02*X501240Y119379D01*
X499765Y117904D02*X501240D01*
X454769Y105109D02*X455536D01*
X454356Y105522D02*X454769Y105109D01*
X454356Y107056D02*Y105522D01*
Y107056D02*X454769Y107469D01*
X455536D01*
X456539Y105109D02*X457424Y106289D01*
Y107174D02*Y106289D01*
X457129Y107469D02*X457424Y107174D01*
X456539Y107469D02*X457129D01*
X456244Y107174D02*X456539Y107469D01*
X456244Y107174D02*Y106584D01*
X456539Y106289D01*
X457424D01*
X459017Y107469D02*X459312Y107174D01*
X458427Y107469D02*X459017D01*
X458132Y107174D02*X458427Y107469D01*
X458132Y107174D02*Y105404D01*
X458427Y105109D01*
X459017Y106407D02*X459312Y106112D01*
X458132Y106407D02*X459017D01*
X458427Y105109D02*X459017D01*
X459312Y105404D01*
Y106112D02*Y105404D01*
X445268Y96975D02*X446648D01*
X446993Y96630D01*
Y95940D01*
X446648Y95595D02*X446993Y95940D01*
X445613Y95595D02*X446648D01*
X445613Y96975D02*Y94215D01*
X446165Y95595D02*X446993Y94215D01*
X448166D02*X449201Y95595D01*
Y96630D02*Y95595D01*
X448856Y96975D02*X449201Y96630D01*
X448166Y96975D02*X448856D01*
X447821Y96630D02*X448166Y96975D01*
X447821Y96630D02*Y95940D01*
X448166Y95595D01*
X449201D01*
X450374Y94215D02*X451754Y96975D01*
X450029D02*X451754D01*
X403844Y97172D02*X405224D01*
X405569Y96827D01*
Y96137D01*
X405224Y95792D02*X405569Y96137D01*
X404189Y95792D02*X405224D01*
X404189Y97172D02*Y94412D01*
X404741Y95792D02*X405569Y94412D01*
X406397Y96620D02*X406949Y97172D01*
Y94412D01*
X406397D02*X407432D01*
X408260Y94757D02*X408605Y94412D01*
X408260Y96827D02*Y94757D01*
Y96827D02*X408605Y97172D01*
X409295D01*
X409640Y96827D01*
Y94757D01*
X409295Y94412D02*X409640Y94757D01*
X408605Y94412D02*X409295D01*
X408260Y95102D02*X409640Y96482D01*
X410468Y96827D02*X410813Y97172D01*
X411503D01*
X411848Y96827D01*
X411503Y94412D02*X411848Y94757D01*
X410813Y94412D02*X411503D01*
X410468Y94757D02*X410813Y94412D01*
Y95930D02*X411503D01*
X411848Y96827D02*Y96275D01*
Y95585D02*Y94757D01*
Y95585D02*X411503Y95930D01*
X411848Y96275D02*X411503Y95930D01*
X411302Y105396D02*X412199D01*
X410819Y105879D02*X411302Y105396D01*
X410819Y107673D02*Y105879D01*
Y107673D02*X411302Y108156D01*
X412199D01*
X413027Y107604D02*X413579Y108156D01*
Y105396D01*
X413027D02*X414062D01*
X414890Y105741D02*X415235Y105396D01*
X414890Y107811D02*Y105741D01*
Y107811D02*X415235Y108156D01*
X415925D01*
X416270Y107811D01*
Y105741D01*
X415925Y105396D02*X416270Y105741D01*
X415235Y105396D02*X415925D01*
X414890Y106086D02*X416270Y107466D01*
X417098Y105741D02*X417443Y105396D01*
X417098Y107811D02*Y105741D01*
Y107811D02*X417443Y108156D01*
X418133D01*
X418478Y107811D01*
Y105741D01*
X418133Y105396D02*X418478Y105741D01*
X417443Y105396D02*X418133D01*
X417098Y106086D02*X418478Y107466D01*
X496679Y95658D02*X497859D01*
X498154Y95363D01*
Y94773D01*
X497859Y94478D02*X498154Y94773D01*
X496974Y94478D02*X497859D01*
X496974Y95658D02*Y93298D01*
X497446Y94478D02*X498154Y93298D01*
X499157D02*X500042Y94478D01*
Y95363D02*Y94478D01*
X499747Y95658D02*X500042Y95363D01*
X499157Y95658D02*X499747D01*
X498862Y95363D02*X499157Y95658D01*
X498862Y95363D02*Y94773D01*
X499157Y94478D01*
X500042D01*
X500750Y95186D02*X501222Y95658D01*
Y93298D01*
X500750D02*X501635D01*
G54D181*X406924Y66642D02*X408124D01*
Y61392D01*
X407374Y60642D02*X408124Y61392D01*
X406624Y60642D02*X407374D01*
X405874Y61392D02*X406624Y60642D01*
X405874Y62142D02*Y61392D01*
X409924Y62892D02*X412924Y66642D01*
X409924Y62892D02*X413674D01*
X412924Y66642D02*Y60642D01*
G54D175*X454885Y130869D02*X455782D01*
X454402Y131352D02*X454885Y130869D01*
X454402Y133146D02*Y131352D01*
Y133146D02*X454885Y133629D01*
X455782D01*
X456955Y130869D02*X457990Y132249D01*
Y133284D02*Y132249D01*
X457645Y133629D02*X457990Y133284D01*
X456955Y133629D02*X457645D01*
X456610Y133284D02*X456955Y133629D01*
X456610Y133284D02*Y132594D01*
X456955Y132249D01*
X457990D01*
X459163Y130869D02*X460543Y133629D01*
X458818D02*X460543D01*
X482899Y156682D02*X484079D01*
X484374Y156387D01*
Y155797D01*
X484079Y155502D02*X484374Y155797D01*
X483194Y155502D02*X484079D01*
X483194Y156682D02*Y154322D01*
X483666Y155502D02*X484374Y154322D01*
X485377D02*X486262Y155502D01*
Y156387D02*Y155502D01*
X485967Y156682D02*X486262Y156387D01*
X485377Y156682D02*X485967D01*
X485082Y156387D02*X485377Y156682D01*
X485082Y156387D02*Y155797D01*
X485377Y155502D01*
X486262D01*
X486970Y156682D02*X488150D01*
X486970D02*Y155502D01*
X487265Y155797D01*
X487855D01*
X488150Y155502D01*
Y154617D01*
X487855Y154322D02*X488150Y154617D01*
X487265Y154322D02*X487855D01*
X486970Y154617D02*X487265Y154322D01*
X483883Y132075D02*X485063D01*
X485358Y131780D01*
Y131190D01*
X485063Y130895D02*X485358Y131190D01*
X484178Y130895D02*X485063D01*
X484178Y132075D02*Y129715D01*
X484650Y130895D02*X485358Y129715D01*
X486361D02*X487246Y130895D01*
Y131780D02*Y130895D01*
X486951Y132075D02*X487246Y131780D01*
X486361Y132075D02*X486951D01*
X486066Y131780D02*X486361Y132075D01*
X486066Y131780D02*Y131190D01*
X486361Y130895D01*
X487246D01*
X487954Y130600D02*X489134Y132075D01*
X487954Y130600D02*X489429D01*
X489134Y132075D02*Y129715D01*
X492170Y141526D02*X492937D01*
X491757Y141939D02*X492170Y141526D01*
X491757Y143473D02*Y141939D01*
Y143473D02*X492170Y143886D01*
X492937D01*
X493940Y141526D02*X494825Y142706D01*
Y143591D02*Y142706D01*
X494530Y143886D02*X494825Y143591D01*
X493940Y143886D02*X494530D01*
X493645Y143591D02*X493940Y143886D01*
X493645Y143591D02*Y143001D01*
X493940Y142706D01*
X494825D01*
X495533Y142411D02*X496713Y143886D01*
X495533Y142411D02*X497008D01*
X496713Y143886D02*Y141526D01*
X496679Y155697D02*X497859D01*
X498154Y155402D01*
Y154812D01*
X497859Y154517D02*X498154Y154812D01*
X496974Y154517D02*X497859D01*
X496974Y155697D02*Y153337D01*
X497446Y154517D02*X498154Y153337D01*
X499157D02*X500042Y154517D01*
Y155402D02*Y154517D01*
X499747Y155697D02*X500042Y155402D01*
X499157Y155697D02*X499747D01*
X498862Y155402D02*X499157Y155697D01*
X498862Y155402D02*Y154812D01*
X499157Y154517D01*
X500042D01*
X501635Y155697D02*X501930Y155402D01*
X501045Y155697D02*X501635D01*
X500750Y155402D02*X501045Y155697D01*
X500750Y155402D02*Y153632D01*
X501045Y153337D01*
X501635Y154635D02*X501930Y154340D01*
X500750Y154635D02*X501635D01*
X501045Y153337D02*X501635D01*
X501930Y153632D01*
Y154340D02*Y153632D01*
X526206Y132075D02*X527386D01*
X527681Y131780D01*
Y131190D01*
X527386Y130895D02*X527681Y131190D01*
X526501Y130895D02*X527386D01*
X526501Y132075D02*Y129715D01*
X526973Y130895D02*X527681Y129715D01*
X528389Y130010D02*X528684Y129715D01*
X528389Y130482D02*Y130010D01*
Y130482D02*X528802Y130895D01*
X529156D01*
X529569Y130482D01*
Y130010D01*
X529274Y129715D02*X529569Y130010D01*
X528684Y129715D02*X529274D01*
X528389Y131308D02*X528802Y130895D01*
X528389Y131780D02*Y131308D01*
Y131780D02*X528684Y132075D01*
X529274D01*
X529569Y131780D01*
Y131308D01*
X529156Y130895D02*X529569Y131308D01*
X530277Y130010D02*X530572Y129715D01*
X530277Y130482D02*Y130010D01*
Y130482D02*X530690Y130895D01*
X531044D01*
X531457Y130482D01*
Y130010D01*
X531162Y129715D02*X531457Y130010D01*
X530572Y129715D02*X531162D01*
X530277Y131308D02*X530690Y130895D01*
X530277Y131780D02*Y131308D01*
Y131780D02*X530572Y132075D01*
X531162D01*
X531457Y131780D01*
Y131308D01*
X531044Y130895D02*X531457Y131308D01*
X526206Y157013D02*X527386D01*
X527681Y156718D01*
Y156128D01*
X527386Y155833D02*X527681Y156128D01*
X526501Y155833D02*X527386D01*
X526501Y157013D02*Y154653D01*
X526973Y155833D02*X527681Y154653D01*
X528389Y154948D02*X528684Y154653D01*
X528389Y155420D02*Y154948D01*
Y155420D02*X528802Y155833D01*
X529156D01*
X529569Y155420D01*
Y154948D01*
X529274Y154653D02*X529569Y154948D01*
X528684Y154653D02*X529274D01*
X528389Y156246D02*X528802Y155833D01*
X528389Y156718D02*Y156246D01*
Y156718D02*X528684Y157013D01*
X529274D01*
X529569Y156718D01*
Y156246D01*
X529156Y155833D02*X529569Y156246D01*
X530572Y154653D02*X531457Y155833D01*
Y156718D02*Y155833D01*
X531162Y157013D02*X531457Y156718D01*
X530572Y157013D02*X531162D01*
X530277Y156718D02*X530572Y157013D01*
X530277Y156718D02*Y156128D01*
X530572Y155833D01*
X531457D01*
X505950Y130700D02*X506717D01*
X505537Y131113D02*X505950Y130700D01*
X505537Y132647D02*Y131113D01*
Y132647D02*X505950Y133060D01*
X506717D01*
X507720Y130700D02*X508605Y131880D01*
Y132765D02*Y131880D01*
X508310Y133060D02*X508605Y132765D01*
X507720Y133060D02*X508310D01*
X507425Y132765D02*X507720Y133060D01*
X507425Y132765D02*Y132175D01*
X507720Y131880D01*
X508605D01*
X509313Y132765D02*X509608Y133060D01*
X510198D01*
X510493Y132765D01*
X510198Y130700D02*X510493Y130995D01*
X509608Y130700D02*X510198D01*
X509313Y130995D02*X509608Y130700D01*
Y131998D02*X510198D01*
X510493Y132765D02*Y132293D01*
Y131703D02*Y130995D01*
Y131703D02*X510198Y131998D01*
X510493Y132293D02*X510198Y131998D01*
X510127Y119280D02*X511307D01*
X511602Y118985D01*
Y118395D01*
X511307Y118100D02*X511602Y118395D01*
X510422Y118100D02*X511307D01*
X510422Y119280D02*Y116920D01*
X510894Y118100D02*X511602Y116920D01*
X512605D02*X513490Y118100D01*
Y118985D02*Y118100D01*
X513195Y119280D02*X513490Y118985D01*
X512605Y119280D02*X513195D01*
X512310Y118985D02*X512605Y119280D01*
X512310Y118985D02*Y118395D01*
X512605Y118100D01*
X513490D01*
X514198Y118985D02*X514493Y119280D01*
X515083D01*
X515378Y118985D01*
X515083Y116920D02*X515378Y117215D01*
X514493Y116920D02*X515083D01*
X514198Y117215D02*X514493Y116920D01*
Y118218D02*X515083D01*
X515378Y118985D02*Y118513D01*
Y117923D02*Y117215D01*
Y117923D02*X515083Y118218D01*
X515378Y118513D02*X515083Y118218D01*
X539002Y120264D02*X540182D01*
X540477Y119969D01*
Y119379D01*
X540182Y119084D02*X540477Y119379D01*
X539297Y119084D02*X540182D01*
X539297Y120264D02*Y117904D01*
X539769Y119084D02*X540477Y117904D01*
X541185Y118199D02*X541480Y117904D01*
X541185Y118671D02*Y118199D01*
Y118671D02*X541598Y119084D01*
X541952D01*
X542365Y118671D01*
Y118199D01*
X542070Y117904D02*X542365Y118199D01*
X541480Y117904D02*X542070D01*
X541185Y119497D02*X541598Y119084D01*
X541185Y119969D02*Y119497D01*
Y119969D02*X541480Y120264D01*
X542070D01*
X542365Y119969D01*
Y119497D01*
X541952Y119084D02*X542365Y119497D01*
X543958Y120264D02*X544253Y119969D01*
X543368Y120264D02*X543958D01*
X543073Y119969D02*X543368Y120264D01*
X543073Y119969D02*Y118199D01*
X543368Y117904D01*
X543958Y119202D02*X544253Y118907D01*
X543073Y119202D02*X543958D01*
X543368Y117904D02*X543958D01*
X544253Y118199D01*
Y118907D02*Y118199D01*
X552781Y119280D02*X553961D01*
X554256Y118985D01*
Y118395D01*
X553961Y118100D02*X554256Y118395D01*
X553076Y118100D02*X553961D01*
X553076Y119280D02*Y116920D01*
X553548Y118100D02*X554256Y116920D01*
X554964Y117215D02*X555259Y116920D01*
X554964Y117687D02*Y117215D01*
Y117687D02*X555377Y118100D01*
X555731D01*
X556144Y117687D01*
Y117215D01*
X555849Y116920D02*X556144Y117215D01*
X555259Y116920D02*X555849D01*
X554964Y118513D02*X555377Y118100D01*
X554964Y118985D02*Y118513D01*
Y118985D02*X555259Y119280D01*
X555849D01*
X556144Y118985D01*
Y118513D01*
X555731Y118100D02*X556144Y118513D01*
X557147Y116920D02*X558327Y119280D01*
X556852D02*X558327D01*
X505950Y105109D02*X506717D01*
X505537Y105522D02*X505950Y105109D01*
X505537Y107056D02*Y105522D01*
Y107056D02*X505950Y107469D01*
X506717D01*
X507720Y105109D02*X508605Y106289D01*
Y107174D02*Y106289D01*
X508310Y107469D02*X508605Y107174D01*
X507720Y107469D02*X508310D01*
X507425Y107174D02*X507720Y107469D01*
X507425Y107174D02*Y106584D01*
X507720Y106289D01*
X508605D01*
X509313Y107174D02*X509608Y107469D01*
X510493D01*
X510788Y107174D01*
Y106584D01*
X509313Y105109D02*X510788Y106584D01*
X509313Y105109D02*X510788D01*
X538569Y96306D02*X539949D01*
X540294Y95961D01*
Y95271D01*
X539949Y94926D02*X540294Y95271D01*
X538914Y94926D02*X539949D01*
X538914Y96306D02*Y93546D01*
X539466Y94926D02*X540294Y93546D01*
X541122Y93891D02*X541467Y93546D01*
X541122Y94443D02*Y93891D01*
Y94443D02*X541605Y94926D01*
X542019D01*
X542502Y94443D01*
Y93891D01*
X542157Y93546D02*X542502Y93891D01*
X541467Y93546D02*X542157D01*
X541122Y95409D02*X541605Y94926D01*
X541122Y95961D02*Y95409D01*
Y95961D02*X541467Y96306D01*
X542157D01*
X542502Y95961D01*
Y95409D01*
X542019Y94926D02*X542502Y95409D01*
X543330Y96306D02*X544710D01*
X543330D02*Y94926D01*
X543675Y95271D01*
X544365D01*
X544710Y94926D01*
Y93891D01*
X544365Y93546D02*X544710Y93891D01*
X543675Y93546D02*X544365D01*
X543330Y93891D02*X543675Y93546D01*
X547477Y105633D02*X548374D01*
X546994Y106116D02*X547477Y105633D01*
X546994Y107910D02*Y106116D01*
Y107910D02*X547477Y108393D01*
X548374D01*
X549202Y105978D02*X549547Y105633D01*
X549202Y106530D02*Y105978D01*
Y106530D02*X549685Y107013D01*
X550099D01*
X550582Y106530D01*
Y105978D01*
X550237Y105633D02*X550582Y105978D01*
X549547Y105633D02*X550237D01*
X549202Y107496D02*X549685Y107013D01*
X549202Y108048D02*Y107496D01*
Y108048D02*X549547Y108393D01*
X550237D01*
X550582Y108048D01*
Y107496D01*
X550099Y107013D02*X550582Y107496D01*
X551410Y105978D02*X551755Y105633D01*
X551410Y106530D02*Y105978D01*
Y106530D02*X551893Y107013D01*
X552307D01*
X552790Y106530D01*
Y105978D01*
X552445Y105633D02*X552790Y105978D01*
X551755Y105633D02*X552445D01*
X551410Y107496D02*X551893Y107013D01*
X551410Y108048D02*Y107496D01*
Y108048D02*X551755Y108393D01*
X552445D01*
X552790Y108048D01*
Y107496D01*
X552307Y107013D02*X552790Y107496D01*
X202870Y72129D02*X203767D01*
X202387Y72612D02*X202870Y72129D01*
X202387Y74406D02*Y72612D01*
Y74406D02*X202870Y74889D01*
X203767D01*
X204595D02*X205975D01*
X204595D02*Y73509D01*
X204940Y73854D01*
X205630D01*
X205975Y73509D01*
Y72474D01*
X205630Y72129D02*X205975Y72474D01*
X204940Y72129D02*X205630D01*
X204595Y72474D02*X204940Y72129D01*
X207148D02*X208528Y74889D01*
X206803D02*X208528D01*
G54D181*X113547Y67018D02*X114747D01*
Y61768D01*
X113997Y61018D02*X114747Y61768D01*
X113247Y61018D02*X113997D01*
X112497Y61768D02*X113247Y61018D01*
X112497Y62518D02*Y61768D01*
X116547Y67018D02*X119547D01*
X116547D02*Y64018D01*
X117297Y64768D01*
X118797D01*
X119547Y64018D01*
Y61768D01*
X118797Y61018D02*X119547Y61768D01*
X117297Y61018D02*X118797D01*
X116547Y61768D02*X117297Y61018D01*
G54D175*X246763Y81874D02*X248063D01*
X246063Y82574D02*X246763Y81874D01*
X246063Y85174D02*Y82574D01*
Y85174D02*X246763Y85874D01*
X248063D01*
X249263D02*X251263D01*
X249263D02*Y83874D01*
X249763Y84374D01*
X250763D01*
X251263Y83874D01*
Y82374D01*
X250763Y81874D02*X251263Y82374D01*
X249763Y81874D02*X250763D01*
X249263Y82374D02*X249763Y81874D01*
X253963Y85874D02*X254463Y85374D01*
X252963Y85874D02*X253963D01*
X252463Y85374D02*X252963Y85874D01*
X252463Y85374D02*Y82374D01*
X252963Y81874D01*
X253963Y84074D02*X254463Y83574D01*
X252463Y84074D02*X253963D01*
X252963Y81874D02*X253963D01*
X254463Y82374D01*
Y83574D02*Y82374D01*
X161993Y166796D02*Y162796D01*
X163993D01*
X166693Y166796D02*X167193Y166296D01*
X165693Y166796D02*X166693D01*
X165193Y166296D02*X165693Y166796D01*
X165193Y166296D02*Y163296D01*
X165693Y162796D01*
X166693Y164996D02*X167193Y164496D01*
X165193Y164996D02*X166693D01*
X165693Y162796D02*X166693D01*
X167193Y163296D01*
Y164496D02*Y163296D01*
X140464Y142898D02*X141764D01*
X139764Y143598D02*X140464Y142898D01*
X139764Y146198D02*Y143598D01*
Y146198D02*X140464Y146898D01*
X141764D01*
X142964D02*X144964D01*
X142964D02*Y144898D01*
X143464Y145398D01*
X144464D01*
X144964Y144898D01*
Y143398D01*
X144464Y142898D02*X144964Y143398D01*
X143464Y142898D02*X144464D01*
X142964Y143398D02*X143464Y142898D01*
X146164Y146898D02*X148164D01*
X146164D02*Y144898D01*
X146664Y145398D01*
X147664D01*
X148164Y144898D01*
Y143398D01*
X147664Y142898D02*X148164Y143398D01*
X146664Y142898D02*X147664D01*
X146164Y143398D02*X146664Y142898D01*
X133071Y167567D02*Y163567D01*
X135071D01*
X136271Y167567D02*X138271D01*
X136271D02*Y165567D01*
X136771Y166067D01*
X137771D01*
X138271Y165567D01*
Y164067D01*
X137771Y163567D02*X138271Y164067D01*
X136771Y163567D02*X137771D01*
X136271Y164067D02*X136771Y163567D01*
X32342Y174294D02*X33239D01*
X31859Y174777D02*X32342Y174294D01*
X31859Y176571D02*Y174777D01*
Y176571D02*X32342Y177054D01*
X33239D01*
X34412Y174294D02*X35792Y177054D01*
X34067D02*X35792D01*
X36620D02*X38000D01*
X36620D02*Y175674D01*
X36965Y176019D01*
X37655D01*
X38000Y175674D01*
Y174639D01*
X37655Y174294D02*X38000Y174639D01*
X36965Y174294D02*X37655D01*
X36620Y174639D02*X36965Y174294D01*
X91448Y156677D02*X92748D01*
X90748Y157377D02*X91448Y156677D01*
X90748Y159977D02*Y157377D01*
Y159977D02*X91448Y160677D01*
X92748D01*
X93948D02*X95948D01*
X93948D02*Y158677D01*
X94448Y159177D01*
X95448D01*
X95948Y158677D01*
Y157177D01*
X95448Y156677D02*X95948Y157177D01*
X94448Y156677D02*X95448D01*
X93948Y157177D02*X94448Y156677D01*
X97148Y159877D02*X97948Y160677D01*
Y156677D01*
X97148D02*X98648D01*
X29776Y92834D02*X31776D01*
X32276Y92334D01*
Y91334D01*
X31776Y90834D02*X32276Y91334D01*
X30276Y90834D02*X31776D01*
X30276Y92834D02*Y88834D01*
X31076Y90834D02*X32276Y88834D01*
X33476Y89334D02*X33976Y88834D01*
X33476Y90134D02*Y89334D01*
Y90134D02*X34176Y90834D01*
X34776D01*
X35476Y90134D01*
Y89334D01*
X34976Y88834D02*X35476Y89334D01*
X33976Y88834D02*X34976D01*
X33476Y91534D02*X34176Y90834D01*
X33476Y92334D02*Y91534D01*
Y92334D02*X33976Y92834D01*
X34976D01*
X35476Y92334D01*
Y91534D01*
X34776Y90834D02*X35476Y91534D01*
X36676Y92334D02*X37176Y92834D01*
X38176D01*
X38676Y92334D01*
X38176Y88834D02*X38676Y89334D01*
X37176Y88834D02*X38176D01*
X36676Y89334D02*X37176Y88834D01*
Y91034D02*X38176D01*
X38676Y92334D02*Y91534D01*
Y90534D02*Y89334D01*
Y90534D02*X38176Y91034D01*
X38676Y91534D02*X38176Y91034D01*
X23606Y96017D02*Y95217D01*
X20106D02*X23606D01*
X19606Y95717D02*X20106Y95217D01*
X19606Y96217D02*Y95717D01*
X20106Y96717D02*X19606Y96217D01*
X20106Y96717D02*X20606D01*
X23106Y94017D02*X23606Y93517D01*
Y92017D01*
X23106Y91517D01*
X22106D02*X23106D01*
X19606Y94017D02*X22106Y91517D01*
X19606Y94017D02*Y91517D01*
X19457Y136397D02*Y132897D01*
X19957Y132397D01*
X20957D01*
X21457Y132897D01*
Y136397D02*Y132897D01*
X22657Y135597D02*X23457Y136397D01*
Y132397D01*
X22657D02*X24157D01*
X25357Y135897D02*X25857Y136397D01*
X26857D01*
X27357Y135897D01*
X26857Y132397D02*X27357Y132897D01*
X25857Y132397D02*X26857D01*
X25357Y132897D02*X25857Y132397D01*
Y134597D02*X26857D01*
X27357Y135897D02*Y135097D01*
Y134097D02*Y132897D01*
Y134097D02*X26857Y134597D01*
X27357Y135097D02*X26857Y134597D01*
M02*
