M48
INCH
T126C0.020
T125C0.051
T124C0.038
T123C0.125
T122C0.035
%
T126
X001378Y034475
X007480Y033983
X010335Y029258
X010827Y032211
X011220Y028077
X013878Y031424
X013878Y030538
X015650Y031817
X016929Y041955
X016929Y040380
X021457Y042447
X022047Y041857
X022638Y041266
X023031Y035656
X023228Y040676
X024311Y031325
X025197Y030833
X029528Y025912
X029626Y032408
X029626Y031325
X029626Y030341
X029626Y029357
X031299Y027782
X031496Y027191
X031496Y024928
X031496Y024140
X031496Y022861
X031988Y026404
X031988Y025813
X031988Y023648
X031988Y020006
X032283Y040774
X033957Y021581
X033957Y019022
X035138Y022172
X035630Y021680
X035827Y035361
X035827Y032211
X036122Y022172
X036614Y035361
X036614Y032211
X037598Y022172
X037598Y018628
X037894Y034573
X037894Y032211
X038091Y021680
X038091Y018038
X038255Y028045
X038386Y035262
X038386Y032802
X038583Y022172
X038583Y018628
X038780Y034573
X038780Y032211
X039272Y035262
X039272Y032802
X039665Y021483
X040059Y032802
X040354Y032211
X040453Y021876
X040453Y020006
X040945Y031916
X041142Y033687
X041732Y033195
X042028Y027782
X042028Y024829
X042323Y032703
X042618Y029947
X042618Y029258
X042618Y028372
X042618Y027191
X042618Y025420
X042618Y024239
X043504Y035656
X044094Y036345
X044094Y034770
X044193Y040282
X046752Y034770
X048031Y033884
X049213Y037329
X049213Y033884
X049213Y017250
X049902Y024829
X050197Y017250
X050295Y035656
X050984Y036640
X050984Y034770
X051083Y039790
X051181Y016758
X051772Y037132
X052165Y016561
X052657Y034770
X052953Y019809
X053051Y033491
X053051Y031128
X053248Y028963
X053346Y029947
X053740Y017250
X054429Y021384
X054626Y036443
X054626Y034967
X055020Y017250
X055020Y016168
X055709Y039987
X056004Y028471
X056102Y016168
X056594Y029652
X056594Y011050
X057087Y033687
X057087Y028176
X057480Y027683
X057480Y011050
X057776Y017841
X057874Y025912
X057874Y025124
X058563Y025912
X058563Y025124
X058563Y019711
X059154Y026404
X059350Y022861
X059350Y021581
T122
X003335Y027452
X003335Y026372
X003335Y025292
X003335Y024212
X004455Y027992
X004455Y026912
X004455Y025832
X004455Y024752
X004455Y023672
X005906Y035164
X006030Y010118
X006201Y044219
X006299Y036542
X006791Y041266
X006819Y038483
X006988Y044219
X007579Y037231
X009449Y015282
X010531Y042447
X010531Y041266
X012380Y004492
X012920Y003372
X013460Y004492
X014000Y003372
X014540Y004492
X015080Y003372
X015620Y004492
X016160Y003372
X016339Y019219
X016700Y004492
X017240Y003372
X017780Y004492
X018209Y035459
X018209Y033884
X018209Y026306
X018320Y003372
X018860Y004492
X019400Y003372
X019940Y004492
X020480Y003372
X021020Y004492
X021560Y003372
X022100Y004492
X022617Y005743
X022640Y003372
X023180Y004492
X023720Y003372
X024260Y004492
X024800Y003372
X025197Y039888
X025197Y037132
X025197Y035951
X025340Y004492
X025880Y003372
X026420Y004492
X026960Y003372
X027067Y027880
X027500Y004492
X028040Y003372
X028580Y004492
X029120Y003372
X029660Y004492
X030200Y003372
X030740Y004492
X030807Y033294
X031280Y003372
X031820Y004492
X032185Y032408
X041437Y031325
X041676Y004425
X042216Y003305
X042756Y004425
X043296Y003305
X043836Y004425
X043898Y031916
X044376Y003305
X044916Y004425
X045079Y036935
X045456Y003305
X045996Y004425
X046536Y003305
X047076Y004425
X047244Y025912
X047244Y021581
X047616Y003305
X048156Y004425
X048327Y039593
X048425Y018628
X048524Y027388
X048696Y003305
X049236Y004425
X049776Y003305
X050000Y027880
X050316Y004425
X050856Y003305
X051396Y004425
X051936Y003305
X052476Y004425
X053016Y003305
X053556Y004425
X054096Y003305
X054636Y004425
X055176Y003305
X055413Y043136
X055413Y041857
X055716Y004425
X056256Y003305
X056594Y009770
X056796Y004425
X057336Y003305
X057480Y043136
X057480Y041857
X057876Y004425
X058071Y038412
X058416Y003305
X058956Y004425
X059154Y037624
X059154Y031227
X059496Y003305
X060036Y004425
X060576Y003305
X061116Y004425
X061516Y016955
X062402Y017644
X063976Y035164
X063976Y007605
X064272Y009770
T124
X026280Y025384
X026280Y024384
X026280Y023384
X026280Y022384
X026280Y021384
X030449Y015987
X030449Y014987
X031449Y015987
X031449Y014987
X032449Y015987
X032449Y014987
X033449Y015987
X033449Y014987
X034449Y015987
X034449Y014987
X035449Y015987
X035449Y014987
X036449Y015987
X036449Y014987
X037449Y015987
X037449Y014987
T125
X000984Y009475
X000984Y007506
X000984Y005538
X000984Y003569
X000984Y001601
X014567Y013806
X014567Y005931
X018524Y010046
X021555Y018038
X022539Y010046
X023563Y018038
X026555Y018038
X026555Y010046
T123
X003895Y030692
X003895Y020972
X009680Y003932
X034520Y003932
X038976Y003865
X063816Y003865
M30
