G04 start of page 15 for group -4015 idx -4015 *
G04 Title: DAISI, toppaste *
G04 Creator: pcb 20140316 *
G04 CreationDate: Wed 18 Apr 2018 03:14:34 AM GMT UTC *
G04 For: afonsop *
G04 Format: Gerber/RS-274X *
G04 PCB-Dimensions (mil): 6540.00 4540.00 *
G04 PCB-Coordinate-Origin: lower left *
%MOIN*%
%FSLAX25Y25*%
%LNTOPPASTE*%
%ADD209R,0.0787X0.0787*%
%ADD208R,0.0630X0.0630*%
%ADD207R,0.0600X0.0600*%
%ADD206R,0.0984X0.0984*%
%ADD205R,0.0512X0.0512*%
%ADD204R,0.0276X0.0276*%
%ADD203R,0.0315X0.0315*%
%ADD202R,0.0219X0.0219*%
%ADD201R,0.0256X0.0256*%
%ADD200C,0.0001*%
%ADD199R,0.0100X0.0100*%
%ADD198R,0.0236X0.0236*%
%ADD197R,0.0197X0.0197*%
%ADD196R,0.1450X0.1450*%
%ADD195R,0.0512X0.0512*%
%ADD194R,0.0846X0.0846*%
%ADD193R,0.0402X0.0402*%
%ADD192R,0.0591X0.0591*%
%ADD191R,0.0394X0.0394*%
%ADD190R,0.0433X0.0433*%
%ADD189R,0.0236X0.0236*%
%ADD188R,0.0140X0.0140*%
%ADD187R,0.0110X0.0110*%
%ADD186R,0.2752X0.2752*%
%ADD185R,0.0421X0.0421*%
G54D185*X94882Y214000D02*Y209709D01*
X101575Y214000D02*Y209709D01*
X108268Y214000D02*Y209709D01*
X114961Y214000D02*Y209709D01*
X121654Y214000D02*Y209709D01*
G54D186*X100768Y249630D02*X115768D01*
G54D187*X335308Y230485D02*Y227087D01*
X337276Y230485D02*Y227087D01*
X339245Y230485D02*Y227087D01*
X341213Y230485D02*Y227087D01*
X343182Y230485D02*Y227087D01*
X345150Y230485D02*Y227087D01*
X347119Y230485D02*Y227087D01*
X349087Y230485D02*Y227087D01*
X351056Y230485D02*Y227087D01*
X353024Y230485D02*Y227087D01*
X354993Y230485D02*Y227087D01*
X356961Y230485D02*Y227087D01*
X358930Y230485D02*Y227087D01*
X360898Y230485D02*Y227087D01*
X362867Y230485D02*Y227087D01*
X364835Y230485D02*Y227087D01*
X366804Y230485D02*Y227087D01*
X368772Y230485D02*Y227087D01*
X370741Y230485D02*Y227087D01*
X372709Y230485D02*Y227087D01*
X374678Y230485D02*Y227087D01*
X376646Y230485D02*Y227087D01*
X378615Y230485D02*Y227087D01*
X380583Y230485D02*Y227087D01*
X382552Y230485D02*Y227087D01*
X384520Y230485D02*Y227087D01*
X386489Y230485D02*Y227087D01*
X388457Y230485D02*Y227087D01*
X390426Y230485D02*Y227087D01*
X392394Y230485D02*Y227087D01*
X394363Y230485D02*Y227087D01*
X396331Y230485D02*Y227087D01*
X398300Y230485D02*Y227087D01*
X400268Y230485D02*Y227087D01*
X402237Y230485D02*Y227087D01*
X404205Y230485D02*Y227087D01*
X410177Y236458D02*X413575D01*
X410177Y238426D02*X413575D01*
X410177Y240395D02*X413575D01*
X410177Y242363D02*X413575D01*
X410177Y244331D02*X413575D01*
X410177Y246300D02*X413575D01*
X410177Y248269D02*X413575D01*
X410177Y250237D02*X413575D01*
X410177Y252206D02*X413575D01*
X410177Y254174D02*X413575D01*
X410177Y256143D02*X413575D01*
X410177Y258111D02*X413575D01*
X410177Y260080D02*X413575D01*
X410177Y262048D02*X413575D01*
X410177Y264017D02*X413575D01*
X410177Y265985D02*X413575D01*
X410177Y267954D02*X413575D01*
X410177Y269922D02*X413575D01*
X410177Y271891D02*X413575D01*
X410177Y273859D02*X413575D01*
X410177Y275828D02*X413575D01*
X410177Y277796D02*X413575D01*
X410177Y279765D02*X413575D01*
X410177Y281733D02*X413575D01*
X410177Y283702D02*X413575D01*
X410177Y285670D02*X413575D01*
X410177Y287639D02*X413575D01*
X410177Y289607D02*X413575D01*
X410177Y291576D02*X413575D01*
X410177Y293544D02*X413575D01*
X410177Y295513D02*X413575D01*
X410177Y297481D02*X413575D01*
X410177Y299450D02*X413575D01*
X410177Y301418D02*X413575D01*
X410177Y303387D02*X413575D01*
X410177Y305355D02*X413575D01*
X404204Y314724D02*Y311327D01*
X402236Y314724D02*Y311327D01*
X400267Y314724D02*Y311327D01*
X398299Y314724D02*Y311327D01*
X396330Y314724D02*Y311327D01*
X394362Y314724D02*Y311327D01*
X392393Y314724D02*Y311327D01*
X390425Y314724D02*Y311327D01*
X388456Y314724D02*Y311327D01*
X386488Y314724D02*Y311327D01*
X384519Y314724D02*Y311327D01*
X382551Y314724D02*Y311327D01*
X380582Y314724D02*Y311327D01*
X378614Y314724D02*Y311327D01*
X376645Y314724D02*Y311327D01*
X374677Y314724D02*Y311327D01*
X372708Y314724D02*Y311327D01*
X370740Y314724D02*Y311327D01*
X368771Y314724D02*Y311327D01*
X366803Y314724D02*Y311327D01*
X364834Y314724D02*Y311327D01*
X362866Y314724D02*Y311327D01*
X360897Y314724D02*Y311327D01*
X358929Y314724D02*Y311327D01*
X356960Y314724D02*Y311327D01*
X354992Y314724D02*Y311327D01*
X353023Y314724D02*Y311327D01*
X351055Y314724D02*Y311327D01*
X349086Y314724D02*Y311327D01*
X347118Y314724D02*Y311327D01*
X345149Y314724D02*Y311327D01*
X343181Y314724D02*Y311327D01*
X341212Y314724D02*Y311327D01*
X339244Y314724D02*Y311327D01*
X337275Y314724D02*Y311327D01*
X335307Y314724D02*Y311327D01*
X325937Y305354D02*X329335D01*
X325937Y303386D02*X329335D01*
X325937Y301417D02*X329335D01*
X325937Y299449D02*X329335D01*
X325937Y297480D02*X329335D01*
X325937Y295512D02*X329335D01*
X325937Y293543D02*X329335D01*
X325937Y291575D02*X329335D01*
X325937Y289606D02*X329335D01*
X325937Y287638D02*X329335D01*
X325937Y285669D02*X329335D01*
X325937Y283701D02*X329335D01*
X325937Y281731D02*X329335D01*
X325937Y279764D02*X329335D01*
X325937Y277795D02*X329335D01*
X325937Y275827D02*X329335D01*
X325937Y273858D02*X329335D01*
X325937Y271890D02*X329335D01*
X325937Y269921D02*X329335D01*
X325937Y267953D02*X329335D01*
X325937Y265984D02*X329335D01*
X325937Y264016D02*X329335D01*
X325937Y262047D02*X329335D01*
X325937Y260079D02*X329335D01*
X325937Y258110D02*X329335D01*
X325937Y256142D02*X329335D01*
X325937Y254173D02*X329335D01*
X325937Y252205D02*X329335D01*
X325937Y250236D02*X329335D01*
X325937Y248268D02*X329335D01*
X325937Y246299D02*X329335D01*
X325937Y244331D02*X329335D01*
X325937Y242362D02*X329335D01*
X325937Y240394D02*X329335D01*
X325937Y238425D02*X329335D01*
X325937Y236457D02*X329335D01*
G54D188*X432739Y287477D02*Y285877D01*
X437339Y287477D02*Y285877D01*
X207024Y70942D02*Y69342D01*
X202424Y70942D02*Y69342D01*
X617310Y142645D02*X618910D01*
X617310Y147245D02*X618910D01*
G54D189*X605610Y132760D02*X609350D01*
X605610Y127760D02*X609350D01*
X605610Y122760D02*X609350D01*
X605610Y117760D02*X609350D01*
X626870D02*X630610D01*
X626870Y122760D02*X630610D01*
X626870Y127760D02*X630610D01*
X626870Y132760D02*X630610D01*
G54D190*X629134Y80181D02*Y71913D01*
X607087Y80181D02*Y71913D01*
G54D188*X229515Y278472D02*X231115D01*
X229515Y283072D02*X231115D01*
X229515Y296188D02*X231115D01*
X229515Y300788D02*X231115D01*
G54D191*X214173Y267976D02*X216142D01*
X214173Y273882D02*X216142D01*
X214173Y279787D02*X216142D01*
X214173Y285693D02*X216142D01*
G54D192*X190354Y280378D02*Y273291D01*
G54D191*X214173Y313252D02*X216142D01*
X214173Y319157D02*X216142D01*
X214173Y325063D02*X216142D01*
X214173Y330969D02*X216142D01*
G54D192*X190354Y325654D02*Y318567D01*
G54D193*X211742Y224472D02*X216467D01*
X211742Y233528D02*X216467D01*
X211742Y242583D02*X216467D01*
G54D194*X191270Y235693D02*Y231362D01*
G54D191*X214173Y356559D02*X216142D01*
X214173Y362465D02*X216142D01*
X214173Y368370D02*X216142D01*
X214173Y374276D02*X216142D01*
G54D192*X190354Y368961D02*Y361874D01*
G54D188*X162586Y269292D02*X164186D01*
X162586Y264692D02*X164186D01*
G54D195*X162993Y281166D02*X163779D01*
X162993Y288252D02*X163779D01*
G54D188*X147969Y212674D02*Y211074D01*
X143369Y212674D02*Y211074D01*
G54D196*X105388Y176472D02*Y172472D01*
X83588Y176472D02*Y172472D01*
G54D188*X163717Y200863D02*Y199263D01*
X159117Y200863D02*Y199263D01*
X232615Y251060D02*Y249460D01*
X228015Y251060D02*Y249460D01*
X240810Y241217D02*Y239617D01*
X245410Y241217D02*Y239617D01*
X240810Y230391D02*Y228791D01*
X245410Y230391D02*Y228791D01*
X229515Y323747D02*X231115D01*
X229515Y328347D02*X231115D01*
X229515Y341464D02*X231115D01*
X229515Y346064D02*X231115D01*
X229515Y367054D02*X231115D01*
X229515Y371654D02*X231115D01*
X229515Y386739D02*X231115D01*
X229515Y391339D02*X231115D01*
G54D197*X101969Y317779D02*X102755D01*
X101969Y314631D02*X102755D01*
G54D188*X98094Y328816D02*Y327216D01*
X102694Y328816D02*Y327216D01*
X109905Y328816D02*Y327216D01*
X114505Y328816D02*Y327216D01*
X144869Y313905D02*X146469D01*
X144869Y318505D02*X146469D01*
G54D198*X113385Y318173D02*X116929D01*
X113385Y314433D02*X116929D01*
X113385Y310693D02*X116929D01*
X127165Y310692D02*X130709D01*
X127165Y314433D02*X130709D01*
X127164Y318173D02*X130708D01*
G54D188*X356952Y137871D02*Y136271D01*
X361552Y137871D02*Y136271D01*
G54D191*X304134Y266992D02*Y266598D01*
Y259512D02*Y259118D01*
X310039Y259512D02*Y259118D01*
Y266992D02*Y266598D01*
G54D199*X563886Y230575D02*X565248D01*
X563886Y232543D02*X565248D01*
X563886Y234512D02*X565248D01*
X563886Y236480D02*X565248D01*
X563886Y238449D02*X565248D01*
X563886Y240417D02*X565248D01*
X563886Y242386D02*X565248D01*
X563886Y244354D02*X565248D01*
X563886Y246323D02*X565248D01*
X563886Y248291D02*X565248D01*
X563886Y250260D02*X565248D01*
X563886Y252228D02*X565248D01*
X563886Y254197D02*X565248D01*
X563886Y256165D02*X565248D01*
X563886Y258134D02*X565248D01*
X563886Y260102D02*X565248D01*
X529240D02*X530602D01*
X529240Y258134D02*X530602D01*
X529240Y256165D02*X530602D01*
X529240Y254197D02*X530602D01*
X529240Y252228D02*X530602D01*
X529240Y250260D02*X530602D01*
X529240Y248291D02*X530602D01*
X529240Y246323D02*X530602D01*
X529240Y244354D02*X530602D01*
X529240Y242386D02*X530602D01*
X529240Y240417D02*X530602D01*
X529240Y238449D02*X530602D01*
X529240Y236480D02*X530602D01*
X529240Y234512D02*X530602D01*
X529240Y232543D02*X530602D01*
X529240Y230575D02*X530602D01*
X562008Y263343D02*Y261980D01*
X560039Y263343D02*Y261980D01*
X558071Y263343D02*Y261980D01*
X556102Y263343D02*Y261980D01*
X554134Y263343D02*Y261980D01*
X552165Y263343D02*Y261980D01*
X550197Y263343D02*Y261980D01*
X548228Y263343D02*Y261980D01*
X546260Y263343D02*Y261980D01*
X544291Y263343D02*Y261980D01*
X542323Y263343D02*Y261980D01*
X540354Y263343D02*Y261980D01*
X538386Y263343D02*Y261980D01*
X536417Y263343D02*Y261980D01*
X534449Y263343D02*Y261980D01*
X532480Y263343D02*Y261980D01*
Y228697D02*Y227335D01*
X534449Y228697D02*Y227335D01*
X536417Y228697D02*Y227335D01*
X538386Y228697D02*Y227335D01*
X540354Y228697D02*Y227335D01*
X542323Y228697D02*Y227335D01*
X544291Y228697D02*Y227335D01*
X546260Y228697D02*Y227335D01*
X548228Y228697D02*Y227335D01*
X550197Y228697D02*Y227335D01*
X552165Y228697D02*Y227335D01*
X554134Y228697D02*Y227335D01*
X556102Y228697D02*Y227335D01*
X558071Y228697D02*Y227335D01*
X560039Y228697D02*Y227335D01*
X562008Y228697D02*Y227335D01*
G54D200*G36*
X533858Y258724D02*Y231953D01*
X560630D01*
Y258724D01*
X533858D01*
G37*
G54D188*X432739Y279603D02*Y278003D01*
X437339Y279603D02*Y278003D01*
X432739Y271729D02*Y270129D01*
X437339Y271729D02*Y270129D01*
X432739Y263855D02*Y262255D01*
X437339Y263855D02*Y262255D01*
X365342Y333590D02*X366942D01*
X365342Y338190D02*X366942D01*
X357468Y333590D02*X359068D01*
X357468Y338190D02*X359068D01*
X357468Y203669D02*X359068D01*
X357468Y208269D02*X359068D01*
X365342Y203669D02*X366942D01*
X365342Y208269D02*X366942D01*
X373216Y203669D02*X374816D01*
X373216Y208269D02*X374816D01*
X381090Y203669D02*X382690D01*
X381090Y208269D02*X382690D01*
X296913Y275666D02*Y274066D01*
X301513Y275666D02*Y274066D01*
X283133Y279603D02*Y278003D01*
X287733Y279603D02*Y278003D01*
X283133Y287477D02*Y285877D01*
X287733Y287477D02*Y285877D01*
X283133Y242202D02*Y240602D01*
X287733Y242202D02*Y240602D01*
X283133Y250076D02*Y248476D01*
X287733Y250076D02*Y248476D01*
X329072Y191020D02*Y189420D01*
X324472Y191020D02*Y189420D01*
X293639Y191020D02*Y189420D01*
X289039Y191020D02*Y189420D01*
X314161Y185952D02*X315761D01*
X314161Y190552D02*X315761D01*
X302350Y185952D02*X303950D01*
X302350Y190552D02*X303950D01*
X228015Y241217D02*Y239617D01*
X232615Y241217D02*Y239617D01*
Y219564D02*Y217964D01*
X228015Y219564D02*Y217964D01*
Y230391D02*Y228791D01*
X232615Y230391D02*Y228791D01*
X511011Y273229D02*X512611D01*
X511011Y268629D02*X512611D01*
G54D201*X516240Y287957D02*X517028D01*
X516240Y281461D02*X517028D01*
X522343D02*X523130D01*
X522343Y287957D02*X523130D01*
G54D188*X464898Y254997D02*Y253397D01*
X460298Y254997D02*Y253397D01*
X468835Y291414D02*Y289814D01*
X464235Y291414D02*Y289814D01*
X471788Y265824D02*Y264224D01*
X467188Y265824D02*Y264224D01*
X556434Y371139D02*Y369539D01*
X551834Y371139D02*Y369539D01*
X510495Y301257D02*Y299657D01*
X515095Y301257D02*Y299657D01*
X526906Y301257D02*Y299657D01*
X522306Y301257D02*Y299657D01*
X538570Y195473D02*X540170D01*
X538570Y190873D02*X540170D01*
X485420Y230906D02*X487020D01*
X485420Y226306D02*X487020D01*
X493294Y230906D02*X494894D01*
X493294Y226306D02*X494894D01*
X500184Y242717D02*X501784D01*
X500184Y238117D02*X501784D01*
X492310Y242717D02*X493910D01*
X492310Y238117D02*X493910D01*
X546913Y289446D02*Y287846D01*
X551513Y289446D02*Y287846D01*
X546913Y297320D02*Y295720D01*
X551513Y297320D02*Y295720D01*
X591204Y252044D02*Y250444D01*
X595804Y252044D02*Y250444D01*
X593835Y277635D02*Y276035D01*
X589235Y277635D02*Y276035D01*
X556434Y357359D02*Y355759D01*
X551834Y357359D02*Y355759D01*
X556434Y329800D02*Y328200D01*
X551834Y329800D02*Y328200D01*
X556434Y343580D02*Y341980D01*
X551834Y343580D02*Y341980D01*
X463767Y280119D02*X465367D01*
X463767Y275519D02*X465367D01*
X471641D02*X473241D01*
X471641Y280119D02*X473241D01*
X485889Y282556D02*Y280956D01*
X490489Y282556D02*Y280956D01*
X485889Y293383D02*Y291783D01*
X490489Y293383D02*Y291783D01*
X547897Y192005D02*Y190405D01*
X552497Y192005D02*Y190405D01*
X396838Y333590D02*X398438D01*
X396838Y338190D02*X398438D01*
X388964Y333590D02*X390564D01*
X388964Y338190D02*X390564D01*
X405180Y151650D02*Y150050D01*
X409780Y151650D02*Y150050D01*
X400259Y165430D02*Y163830D01*
X404859Y165430D02*Y163830D01*
X394869Y153150D02*X396469D01*
X394869Y148550D02*X396469D01*
X394869Y128544D02*X396469D01*
X394869Y123944D02*X396469D01*
X400259Y139839D02*Y138239D01*
X404859Y139839D02*Y138239D01*
X446519Y151650D02*Y150050D01*
X451119Y151650D02*Y150050D01*
X441598Y165430D02*Y163830D01*
X446198Y165430D02*Y163830D01*
X441598Y139839D02*Y138239D01*
X446198Y139839D02*Y138239D01*
X435224Y153150D02*X436824D01*
X435224Y148550D02*X436824D01*
X435224Y128544D02*X436824D01*
X435224Y123944D02*X436824D01*
X454393Y129013D02*Y127413D01*
X458993Y129013D02*Y127413D01*
X459314Y115233D02*Y113633D01*
X463914Y115233D02*Y113633D01*
X454393Y103422D02*Y101822D01*
X458993Y103422D02*Y101822D01*
X448019Y92127D02*X449619D01*
X448019Y87527D02*X449619D01*
X448019Y116733D02*X449619D01*
X448019Y112133D02*X449619D01*
X406680Y116733D02*X408280D01*
X406680Y112133D02*X408280D01*
X406680Y92127D02*X408280D01*
X406680Y87527D02*X408280D01*
X416991Y115233D02*Y113633D01*
X421591Y115233D02*Y113633D01*
X412070Y103422D02*Y101822D01*
X416670Y103422D02*Y101822D01*
X412070Y128028D02*Y126428D01*
X416670Y128028D02*Y126428D01*
X485420Y153150D02*X487020D01*
X485420Y148550D02*X487020D01*
X485420Y128544D02*X487020D01*
X485420Y123944D02*X487020D01*
X491794Y164446D02*Y162846D01*
X496394Y164446D02*Y162846D01*
X491794Y139839D02*Y138239D01*
X496394Y139839D02*Y138239D01*
G54D202*X496716Y151650D02*Y150050D01*
G54D188*X501316Y151650D02*Y150050D01*
X498216Y92127D02*X499816D01*
X498216Y87527D02*X499816D01*
X498216Y116733D02*X499816D01*
X498216Y112133D02*X499816D01*
X527743Y128544D02*X529343D01*
X527743Y123944D02*X529343D01*
X527743Y153150D02*X529343D01*
X527743Y148550D02*X529343D01*
X510495Y115233D02*Y113633D01*
X515095Y115233D02*Y113633D01*
X505574Y129013D02*Y127413D01*
X510174Y129013D02*Y127413D01*
X505574Y103422D02*Y101822D01*
X510174Y103422D02*Y101822D01*
X535102Y164446D02*Y162846D01*
X539702Y164446D02*Y162846D01*
X535102Y139839D02*Y138239D01*
X539702Y139839D02*Y138239D01*
X541523Y92127D02*X543123D01*
X541523Y87527D02*X543123D01*
X541523Y116733D02*X543123D01*
X541523Y112133D02*X543123D01*
X547897Y103422D02*Y101822D01*
X552497Y103422D02*Y101822D01*
X552818Y115233D02*Y113633D01*
X557418Y115233D02*Y113633D01*
X547897Y129013D02*Y127413D01*
X552497Y129013D02*Y127413D01*
X540023Y151650D02*Y150050D01*
X544623Y151650D02*Y150050D01*
G54D189*X22933Y408350D02*X26673D01*
X22933Y403350D02*X26673D01*
X22933Y398350D02*X26673D01*
X22933Y393350D02*X26673D01*
X44193D02*X47933D01*
X44193Y398350D02*X47933D01*
X44193Y403350D02*X47933D01*
X44193Y408350D02*X47933D01*
G54D190*X46457Y355772D02*Y347504D01*
X24409Y355772D02*Y347504D01*
X629134Y355772D02*Y347504D01*
X607087Y355772D02*Y347504D01*
G54D188*X617310Y416267D02*X618910D01*
X617310Y420867D02*X618910D01*
G54D189*X605760Y407461D02*X609500D01*
X605760Y402461D02*X609500D01*
X605760Y397461D02*X609500D01*
X605760Y392461D02*X609500D01*
X627020D02*X630760D01*
X627020Y397461D02*X630760D01*
X627020Y402461D02*X630760D01*
X627020Y407461D02*X630760D01*
G54D188*X34633Y416267D02*X36233D01*
X34633Y420867D02*X36233D01*
X301513Y385902D02*Y384302D01*
X296913Y385902D02*Y384302D01*
X266080Y385902D02*Y384302D01*
X261480Y385902D02*Y384302D01*
X286602Y380834D02*X288202D01*
X286602Y385434D02*X288202D01*
X274791Y380834D02*X276391D01*
X274791Y385434D02*X276391D01*
X301513Y372123D02*Y370523D01*
X296913Y372123D02*Y370523D01*
X266080Y372123D02*Y370523D01*
X261480Y372123D02*Y370523D01*
X286602Y367054D02*X288202D01*
X286602Y371654D02*X288202D01*
X274791Y367054D02*X276391D01*
X274791Y371654D02*X276391D01*
X301513Y360312D02*Y358712D01*
X296913Y360312D02*Y358712D01*
X266080Y360312D02*Y358712D01*
X261480Y360312D02*Y358712D01*
X286602Y355243D02*X288202D01*
X286602Y359843D02*X288202D01*
X274791Y355243D02*X276391D01*
X274791Y359843D02*X276391D01*
X301513Y346532D02*Y344932D01*
X296913Y346532D02*Y344932D01*
X266080Y346532D02*Y344932D01*
X261480Y346532D02*Y344932D01*
X286602Y341464D02*X288202D01*
X286602Y346064D02*X288202D01*
X274791Y341464D02*X276391D01*
X274791Y346064D02*X276391D01*
X301513Y399682D02*Y398082D01*
X296913Y399682D02*Y398082D01*
X266080Y399682D02*Y398082D01*
X261480Y399682D02*Y398082D01*
X286602Y394613D02*X288202D01*
X286602Y399213D02*X288202D01*
X274791Y394613D02*X276391D01*
X274791Y399213D02*X276391D01*
X427350Y371654D02*X428950D01*
X427350Y367054D02*X428950D01*
X458846Y371654D02*X460446D01*
X458846Y367054D02*X460446D01*
X440145Y371654D02*X441745D01*
X440145Y367054D02*X441745D01*
G54D191*X469488Y433134D02*Y430969D01*
G54D203*X471063Y423685D02*Y421323D01*
G54D200*G36*
X466732Y392976D02*Y387071D01*
X472638D01*
Y392976D01*
X466732D01*
G37*
G54D204*X460039Y391598D02*Y387465D01*
X455709Y391598D02*Y387465D01*
X451378Y391598D02*Y387465D01*
X447047Y391598D02*Y387465D01*
X442717Y391598D02*Y387465D01*
X438386Y391598D02*Y387465D01*
X434055Y391598D02*Y387465D01*
X429724Y391598D02*Y387465D01*
G54D205*X425000Y390417D02*Y389630D01*
G54D203*X424016Y421323D02*Y418567D01*
G54D191*X424409Y425850D02*X426181D01*
X538386Y433134D02*Y430969D01*
G54D203*X539961Y423685D02*Y421323D01*
G54D200*G36*
X535630Y392976D02*Y387071D01*
X541535D01*
Y392976D01*
X535630D01*
G37*
G54D204*X528937Y391598D02*Y387465D01*
X524606Y391598D02*Y387465D01*
X520276Y391598D02*Y387465D01*
X515945Y391598D02*Y387465D01*
X511614Y391598D02*Y387465D01*
X507283Y391598D02*Y387465D01*
X502953Y391598D02*Y387465D01*
X498622Y391598D02*Y387465D01*
G54D205*X493898Y390417D02*Y389630D01*
G54D203*X492913Y421323D02*Y418567D01*
G54D191*X493307Y425850D02*X495079D01*
G54D188*X34633Y168235D02*X36233D01*
X34633Y172835D02*X36233D01*
G54D189*X22213Y157889D02*X25953D01*
X22213Y152889D02*X25953D01*
X22213Y147889D02*X25953D01*
X22213Y142889D02*X25953D01*
X43472D02*X47213D01*
X43472Y147889D02*X47213D01*
X43472Y152889D02*X47213D01*
X43472Y157889D02*X47213D01*
G54D190*X45736Y105311D02*Y97043D01*
X23689Y105311D02*Y97043D01*
G54D188*X89235Y196926D02*Y195326D01*
X93835Y196926D02*Y195326D01*
G54D206*X108465Y135102D02*X115945D01*
X75394D02*X82874D01*
G54D207*X244094Y75563D02*Y74563D01*
X256094Y75563D02*Y74563D01*
G54D188*X356952Y171335D02*Y169735D01*
X361552Y171335D02*Y169735D01*
X274275Y234328D02*Y232728D01*
X278875Y234328D02*Y232728D01*
G54D195*X159253Y158133D02*Y157347D01*
X166339Y158133D02*Y157347D01*
G54D188*X591204Y259918D02*Y258318D01*
X595804Y259918D02*Y258318D01*
X605499Y240749D02*X607099D01*
X605499Y236149D02*X607099D01*
X597625Y240749D02*X599225D01*
X597625Y236149D02*X599225D01*
X564308Y192005D02*Y190405D01*
X559708Y192005D02*Y190405D01*
X564308Y200863D02*Y199263D01*
X559708Y200863D02*Y199263D01*
X547897Y200863D02*Y199263D01*
X552497Y200863D02*Y199263D01*
X562192Y216143D02*X563792D01*
X562192Y211543D02*X563792D01*
X571050Y216143D02*X572650D01*
X571050Y211543D02*X572650D01*
X522969Y201847D02*Y200247D01*
X518369Y201847D02*Y200247D01*
X522969Y192989D02*Y191389D01*
X518369Y192989D02*Y191389D01*
X511158Y192989D02*Y191389D01*
X506558Y192989D02*Y191389D01*
X511158Y201847D02*Y200247D01*
X506558Y201847D02*Y200247D01*
X527743Y216143D02*X529343D01*
X527743Y211543D02*X529343D01*
X521985Y214643D02*Y213043D01*
X517385Y214643D02*Y213043D01*
G54D195*X157481Y218566D02*Y213056D01*
X169291Y218566D02*Y213056D01*
G54D208*X148425Y183331D02*X154724D01*
X128740D02*X135039D01*
G54D209*X123425Y157740D02*Y153803D01*
X148622Y157740D02*Y153803D01*
G54D188*X296913Y284524D02*Y282924D01*
X301513Y284524D02*Y282924D01*
M02*
