G04 start of page 12 for group -4062 idx -4062 *
G04 Title: DAISI, soldermask *
G04 Creator: pcb 20140316 *
G04 CreationDate: Wed 18 Apr 2018 03:14:34 AM GMT UTC *
G04 For: afonsop *
G04 Format: Gerber/RS-274X *
G04 PCB-Dimensions (mil): 6540.00 4540.00 *
G04 PCB-Coordinate-Origin: lower left *
%MOIN*%
%FSLAX25Y25*%
%LNBOTTOMMASK*%
%ADD173R,0.0330X0.0330*%
%ADD172R,0.0738X0.0738*%
%ADD171R,0.0344X0.0344*%
%ADD170R,0.0423X0.0423*%
%ADD169R,0.0541X0.0541*%
%ADD168R,0.0305X0.0305*%
%ADD167R,0.3530X0.3530*%
%ADD166R,0.0848X0.0848*%
%ADD165R,0.0463X0.0463*%
%ADD164R,0.0200X0.0200*%
%ADD163C,0.1320*%
%ADD162C,0.0817*%
%ADD161C,0.2560*%
%ADD160C,0.0001*%
%ADD159C,0.0660*%
%ADD158C,0.0100*%
G54D158*X0Y454000D02*Y260D01*
X653543D01*
Y454000D01*
X0D01*
G54D159*X600364Y44246D03*
X589564D03*
X578764D03*
X567964D03*
G54D160*G36*
X607864Y47546D02*Y40946D01*
X614464D01*
Y47546D01*
X607864D01*
G37*
G54D161*X638164Y38646D03*
G54D159*X594964Y33046D03*
X584164D03*
X573364D03*
X562564D03*
X557164Y44246D03*
X546364D03*
X535564D03*
X605764Y33046D03*
X551764D03*
X540964D03*
X530164D03*
X470764Y44246D03*
X459964D03*
X449164D03*
X476164Y33046D03*
X465364D03*
X454564D03*
X503164Y44246D03*
X492364D03*
X481564D03*
X486964Y33046D03*
X524764Y44246D03*
X513964D03*
X519364Y33046D03*
X508564D03*
X497764D03*
G54D160*G36*
X259495Y217143D02*Y210543D01*
X266095D01*
Y217143D01*
X259495D01*
G37*
G54D159*X262795Y223843D03*
Y233843D03*
Y243843D03*
Y253843D03*
G54D162*X265551Y180378D03*
X235630D03*
X215551D03*
G54D160*G36*
X314905Y48224D02*Y41624D01*
X321505D01*
Y48224D01*
X314905D01*
G37*
G54D159*X307405Y44924D03*
X296605D03*
X285805D03*
X275005D03*
X264205D03*
G54D162*X265551Y100457D03*
G54D159*X253405Y44924D03*
X242605D03*
X231805D03*
X221005D03*
X210205D03*
X199405D03*
X188605D03*
X177805D03*
G54D162*X185236Y100457D03*
X225394D03*
G54D159*X167005Y44924D03*
X156205D03*
X145405D03*
X134605D03*
X123805D03*
G54D162*X145669Y59315D03*
G54D160*G36*
X371188Y163166D02*Y156566D01*
X377788D01*
Y163166D01*
X371188D01*
G37*
G54D159*X364488Y159866D03*
X354488D03*
X374488Y149866D03*
X364488D03*
X354488D03*
X344488D03*
X334488D03*
X324488D03*
X344488Y159866D03*
X334488D03*
X324488D03*
X314488D03*
Y149866D03*
X304488Y159866D03*
Y149866D03*
G54D160*G36*
X141585Y142140D02*Y133970D01*
X149754D01*
Y142140D01*
X141585D01*
G37*
G36*
X41253Y240017D02*Y233417D01*
X47853D01*
Y240017D01*
X41253D01*
G37*
G54D159*X33353Y242117D03*
Y252917D03*
G54D161*X38953Y209717D03*
G54D159*X44553Y247517D03*
Y258317D03*
Y269117D03*
Y279917D03*
X33353Y263717D03*
Y274517D03*
G54D161*X38953Y306917D03*
G54D159*X312805Y33724D03*
X302005D03*
X291205D03*
G54D161*X345205Y39324D03*
G54D159*X280405Y33724D03*
X269605D03*
X258805D03*
X248005D03*
X237205D03*
X226405D03*
X215605D03*
X204805D03*
X194005D03*
X183205D03*
X172405D03*
X161605D03*
X150805D03*
X140005D03*
X129205D03*
G54D161*X96805Y39324D03*
G54D160*G36*
X5758Y98833D02*Y90663D01*
X13927D01*
Y98833D01*
X5758D01*
G37*
G54D162*X9843Y75063D03*
Y55378D03*
Y35693D03*
Y16008D03*
G54D159*X427564Y44246D03*
X416764D03*
X438364D03*
X443764Y33046D03*
X432964D03*
X422164D03*
G54D161*X389764Y38646D03*
G54D163*X145669Y340811D03*
X121063Y78016D03*
X603346Y296520D03*
X364173Y111480D03*
G54D164*X479515Y371654D02*X481115D01*
X479515Y367054D02*X481115D01*
X466720Y371654D02*X468320D01*
X466720Y367054D02*X468320D01*
G54D165*X68965Y156492D02*Y148224D01*
X91012Y156492D02*Y148224D01*
G54D166*X45433Y128941D02*Y122130D01*
X25433Y128941D02*Y122130D01*
G54D165*X23689Y105311D02*Y97043D01*
X45736Y105311D02*Y97043D01*
G54D167*X30433Y170535D02*X40433D01*
X613110Y142976D02*X623110D01*
G54D165*X563780Y129394D02*Y121126D01*
X585827Y129394D02*Y121126D01*
G54D166*X628110Y101382D02*Y94571D01*
G54D165*X629134Y80181D02*Y71913D01*
G54D166*X608110Y101382D02*Y94571D01*
G54D165*X607087Y80181D02*Y71913D01*
X563780Y404984D02*Y396717D01*
X585827Y404984D02*Y396717D01*
X607087Y355772D02*Y347504D01*
G54D166*X608110Y376972D02*Y370161D01*
G54D165*X629134Y355772D02*Y347504D01*
G54D166*X628110Y376972D02*Y370161D01*
G54D167*X613110Y418567D02*X623110D01*
G54D164*X536602Y371654D02*X538202D01*
X536602Y367054D02*X538202D01*
X525775Y371654D02*X527375D01*
X525775Y367054D02*X527375D01*
X502153Y371654D02*X503753D01*
X502153Y367054D02*X503753D01*
G54D168*X532480Y391598D02*Y387465D01*
X536811Y391598D02*Y387465D01*
G54D169*X541535Y390417D02*Y389630D01*
G54D168*X515157Y391598D02*Y387465D01*
X519488Y391598D02*Y387465D01*
X523819Y391598D02*Y387465D01*
X528150Y391598D02*Y387465D01*
X506496Y391598D02*Y387465D01*
X510827Y391598D02*Y387465D01*
G54D170*X497047Y433134D02*Y430969D01*
G54D171*X495472Y423685D02*Y421323D01*
G54D160*G36*
X493750Y393124D02*Y386923D01*
X499951D01*
Y393124D01*
X493750D01*
G37*
G54D171*X542520Y421323D02*Y418567D01*
G54D170*X540354Y425850D02*X542126D01*
G54D164*X434239Y371654D02*X435839D01*
X434239Y367054D02*X435839D01*
G54D168*X437598Y391598D02*Y387465D01*
G54D160*G36*
X424852Y393124D02*Y386923D01*
X431053D01*
Y393124D01*
X424852D01*
G37*
G54D170*X428150Y433134D02*Y430969D01*
G54D171*X426575Y423685D02*Y421323D01*
X473622D02*Y418567D01*
G54D170*X471457Y425850D02*X473228D01*
G54D169*X472638Y390417D02*Y389630D01*
G54D168*X441929Y391598D02*Y387465D01*
X454921Y391598D02*Y387465D01*
X459252Y391598D02*Y387465D01*
X446260Y391598D02*Y387465D01*
X450591Y391598D02*Y387465D01*
X463583Y391598D02*Y387465D01*
X467913Y391598D02*Y387465D01*
G54D165*X24409Y355772D02*Y347504D01*
G54D166*X25433Y376972D02*Y370161D01*
G54D165*X46457Y355772D02*Y347504D01*
G54D166*X45433Y376972D02*Y370161D01*
G54D167*X30433Y418567D02*X40433D01*
G54D172*X238583Y416205D02*X257480D01*
X238583Y442583D02*X257480D01*
G54D173*X145120Y384256D02*X146620D01*
X145120Y389256D02*X146620D01*
X145120Y394256D02*X146620D01*
X145120Y399256D02*X146620D01*
G54D165*X89764Y404984D02*Y396717D01*
X67717Y404984D02*Y396717D01*
G54D173*X145120Y404256D02*X146620D01*
X145120Y409256D02*X146620D01*
X145120Y414256D02*X146620D01*
X145120Y419256D02*X146620D01*
X145120Y424256D02*X146620D01*
X145120Y429256D02*X146620D01*
G54D164*X202103Y425272D02*Y423672D01*
X197503Y425272D02*Y423672D01*
G54D173*X182120Y429256D02*X183620D01*
X182120Y424256D02*X183620D01*
G54D164*X202103Y395745D02*Y394145D01*
X197503Y395745D02*Y394145D01*
X202103Y415430D02*Y413830D01*
X197503Y415430D02*Y413830D01*
X202103Y405587D02*Y403987D01*
X197503Y405587D02*Y403987D01*
G54D173*X182120Y419256D02*X183620D01*
X182120Y414256D02*X183620D01*
X182120Y409256D02*X183620D01*
X182120Y404256D02*X183620D01*
X182120Y399256D02*X183620D01*
X182120Y394256D02*X183620D01*
X182120Y389256D02*X183620D01*
X182120Y384256D02*X183620D01*
M02*
